<svg width="18" height="16" viewBox="0 0 18 16" fill="none" xmlns="http://www.w3.org/2000/svg">
<path d="M4.73333 5.39997H13.2667H17L14.8667 11.8H6.33333L3.66667 1.1333H1" stroke="white" stroke-miterlimit="10" stroke-linecap="round" stroke-linejoin="round"/>
<path d="M6.86702 15C7.45612 15 7.93369 14.5225 7.93369 13.9334C7.93369 13.3443 7.45612 12.8667 6.86702 12.8667C6.27792 12.8667 5.80035 13.3443 5.80035 13.9334C5.80035 14.5225 6.27792 15 6.86702 15Z" stroke="white" stroke-miterlimit="10" stroke-linecap="round" stroke-linejoin="round"/>
<path d="M13.7997 15C14.3888 15 14.8664 14.5225 14.8664 13.9334C14.8664 13.3443 14.3888 12.8667 13.7997 12.8667C13.2106 12.8667 12.7331 13.3443 12.7331 13.9334C12.7331 14.5225 13.2106 15 13.7997 15Z" stroke="white" stroke-miterlimit="10" stroke-linecap="round" stroke-linejoin="round"/>
</svg>
