<svg width="140" height="40" viewBox="0 0 140 40" fill="none" xmlns="http://www.w3.org/2000/svg">
<rect width="140" height="40" rx="12" fill="#5DB248"/>
<path d="M24.9473 25H28.521C30.4697 25 31.625 24.0415 31.625 22.4355V22.4229C31.625 21.2168 30.8315 20.3599 29.5811 20.2012V20.0996C30.4634 19.9409 31.1616 19.0776 31.1616 18.1318V18.1191C31.1616 16.7227 30.1333 15.8403 28.4512 15.8403H24.9473V25ZM28.21 16.8496C29.3462 16.8496 30.0063 17.3892 30.0063 18.3159V18.3286C30.0063 19.2935 29.3018 19.7886 27.918 19.7886H26.0898V16.8496H28.21ZM28.2417 20.7725C29.7017 20.7725 30.4507 21.312 30.4507 22.3657V22.3784C30.4507 23.4321 29.7271 23.9907 28.3496 23.9907H26.0898V20.7725H28.2417ZM38.582 21.8833L41.2607 25H42.6763L39.4771 21.3818L42.5557 18.1572H41.229L38.582 21.02H38.2329V18.1572H37.1284V25H38.2329V21.8833H38.582ZM46.7007 25.1206C48.6494 25.1206 49.8555 23.7749 49.8555 21.585V21.5723C49.8555 19.376 48.6494 18.0366 46.7007 18.0366C44.752 18.0366 43.5459 19.376 43.5459 21.5723V21.585C43.5459 23.7749 44.752 25.1206 46.7007 25.1206ZM46.7007 24.1431C45.4058 24.1431 44.6758 23.1973 44.6758 21.585V21.5723C44.6758 19.9536 45.4058 19.0142 46.7007 19.0142C47.9956 19.0142 48.7256 19.9536 48.7256 21.5723V21.585C48.7256 23.1973 47.9956 24.1431 46.7007 24.1431ZM51.6963 27.2852H52.8008V23.9209H52.9023C53.2769 24.6509 54.0957 25.1206 55.0352 25.1206C56.7744 25.1206 57.9043 23.7305 57.9043 21.585V21.5723C57.9043 19.4395 56.7681 18.0366 55.0352 18.0366C54.083 18.0366 53.3213 18.4873 52.9023 19.249H52.8008V18.1572H51.6963V27.2852ZM54.7812 24.1431C53.5371 24.1431 52.7754 23.1655 52.7754 21.585V21.5723C52.7754 19.9917 53.5371 19.0142 54.7812 19.0142C56.0317 19.0142 56.7744 19.979 56.7744 21.5723V21.585C56.7744 23.1782 56.0317 24.1431 54.7812 24.1431ZM62.0176 25.127C63.6108 25.127 64.709 24.2573 64.709 22.9878V22.9751C64.709 22.2134 64.2329 21.6675 63.3315 21.4707V21.3691C64.0107 21.2104 64.4614 20.582 64.4614 19.8901V19.8774C64.4614 18.7856 63.5854 18.0303 62.0557 18.0303C60.6592 18.0303 59.6562 18.7285 59.4976 19.8267L59.4912 19.8711H60.5703L60.5767 19.8394C60.6846 19.2935 61.2749 18.9443 62.0557 18.9443C62.9316 18.9443 63.3823 19.376 63.3823 19.96V19.9727C63.3823 20.6836 62.8936 21.0327 62.0176 21.0327H60.9512V21.9468H62.0176C63.0649 21.9468 63.6235 22.2896 63.6235 23.0322V23.0449C63.6235 23.7241 63.0269 24.2129 62.0176 24.2129C61.186 24.2129 60.5767 23.8574 60.437 23.2988L60.4243 23.248H59.3008L59.3071 23.2988C59.4468 24.4033 60.5576 25.127 62.0176 25.127ZM66.5435 25H67.6479L71.0312 19.8965H71.1328V25H72.2373V18.1572H71.1328L67.7495 23.2607H67.6479V18.1572H66.5435V25ZM78.9087 25H80.0132V18.1572H78.9087V20.9883H75.519V18.1572H74.4146V25H75.519V21.9023H78.9087V25ZM82.7744 27.3994C83.9868 27.3994 84.5518 26.9551 85.1167 25.4189L87.7891 18.1572H86.6274L84.7549 23.7876H84.6533L82.7744 18.1572H81.5938L84.1265 25.0063L83.9995 25.4126C83.752 26.1997 83.3711 26.4854 82.7427 26.4854C82.5903 26.4854 82.4189 26.479 82.2856 26.4536V27.3613C82.438 27.3867 82.6284 27.3994 82.7744 27.3994Z" fill="white"/>
<g clip-path="url(#clip0_266_10695)">
<path d="M100.233 18.4H108.767H112.5L110.367 24.8H101.833L99.1667 14.1333H96.5" stroke="white" stroke-miterlimit="10" stroke-linecap="round" stroke-linejoin="round"/>
<path d="M102.367 28C102.956 28 103.434 27.5225 103.434 26.9334C103.434 26.3443 102.956 25.8667 102.367 25.8667C101.778 25.8667 101.3 26.3443 101.3 26.9334C101.3 27.5225 101.778 28 102.367 28Z" stroke="white" stroke-miterlimit="10" stroke-linecap="round" stroke-linejoin="round"/>
<path d="M109.3 28C109.889 28 110.366 27.5225 110.366 26.9334C110.366 26.3443 109.889 25.8667 109.3 25.8667C108.711 25.8667 108.233 26.3443 108.233 26.9334C108.233 27.5225 108.711 28 109.3 28Z" stroke="white" stroke-miterlimit="10" stroke-linecap="round" stroke-linejoin="round"/>
</g>
<defs>
<clipPath id="clip0_266_10695">
<rect width="24" height="24" fill="white" transform="translate(92.5 8)"/>
</clipPath>
</defs>
</svg>
