<svg width="57" height="48" viewBox="0 0 57 48" fill="none" xmlns="http://www.w3.org/2000/svg">
<g clip-path="url(#clip0_6759_15844)">
<path d="M25.298 18.0474L21.5 20.0406L28.9882 24.0002L36.4764 20.0406L32.6784 18.0474" stroke="#808185" stroke-miterlimit="10" stroke-linecap="round" stroke-linejoin="round"/>
<path d="M25.3518 14.0068L21.5 16.027L28.9882 19.9866L36.4764 16.027L32.6246 14.0068" stroke="#808185" stroke-miterlimit="10" stroke-linecap="round" stroke-linejoin="round"/>
<path d="M28.9882 8L21.5 11.9596L28.9882 15.9192L36.4764 11.9596L28.9882 8Z" stroke="#808185" stroke-miterlimit="10" stroke-linecap="round" stroke-linejoin="round"/>
</g>
<path d="M10.8145 42V38.7529H11.0684L14.2031 42H15.3652L11.8301 38.3379L15.082 34.9541H13.9785L11.0684 38.0498H10.8145V34.9541H9.93555V42H10.8145ZM17.6699 42.0928C18.3779 42.0928 18.9297 41.7852 19.2617 41.2236H19.3398V42H20.1895V38.3965C20.1895 37.3027 19.4717 36.6436 18.1875 36.6436C17.0645 36.6436 16.2637 37.2002 16.127 38.0254L16.1221 38.0547H16.9717L16.9766 38.04C17.1133 37.6299 17.5283 37.3955 18.1582 37.3955C18.9443 37.3955 19.3398 37.7471 19.3398 38.3965V38.875L17.8311 38.9678C16.6055 39.041 15.9121 39.583 15.9121 40.5205V40.5303C15.9121 41.4873 16.6689 42.0928 17.6699 42.0928ZM16.7812 40.5107V40.501C16.7812 39.9785 17.1328 39.6953 17.9336 39.6465L19.3398 39.5586V40.0371C19.3398 40.7891 18.71 41.3555 17.8457 41.3555C17.2354 41.3555 16.7812 41.043 16.7812 40.5107ZM25.6484 36.7363H21.3906V37.4395H23.0947V42H23.9443V37.4395H25.6484V36.7363ZM28.2461 42.0928C28.9541 42.0928 29.5059 41.7852 29.8379 41.2236H29.916V42H30.7656V38.3965C30.7656 37.3027 30.0479 36.6436 28.7637 36.6436C27.6406 36.6436 26.8398 37.2002 26.7031 38.0254L26.6982 38.0547H27.5479L27.5527 38.04C27.6895 37.6299 28.1045 37.3955 28.7344 37.3955C29.5205 37.3955 29.916 37.7471 29.916 38.3965V38.875L28.4072 38.9678C27.1816 39.041 26.4883 39.583 26.4883 40.5205V40.5303C26.4883 41.4873 27.2451 42.0928 28.2461 42.0928ZM27.3574 40.5107V40.501C27.3574 39.9785 27.709 39.6953 28.5098 39.6465L29.916 39.5586V40.0371C29.916 40.7891 29.2861 41.3555 28.4219 41.3555C27.8115 41.3555 27.3574 41.043 27.3574 40.5107ZM33.6465 39.9395L33.8418 37.4395H35.6729V42H36.5225V36.7363H33.0801L32.8555 39.8711C32.8018 40.6523 32.6064 41.2627 32.123 41.2627C31.9961 41.2627 31.8643 41.2432 31.8203 41.2285V41.9951C31.8887 42.0195 32.0254 42.0488 32.2061 42.0488C33.085 42.0488 33.5342 41.3896 33.6465 39.9395ZM40.3604 42.0928C41.8594 42.0928 42.7871 41.0576 42.7871 39.373V39.3633C42.7871 37.6738 41.8594 36.6436 40.3604 36.6436C38.8613 36.6436 37.9336 37.6738 37.9336 39.3633V39.373C37.9336 41.0576 38.8613 42.0928 40.3604 42.0928ZM40.3604 41.3408C39.3643 41.3408 38.8027 40.6133 38.8027 39.373V39.3633C38.8027 38.1182 39.3643 37.3955 40.3604 37.3955C41.3564 37.3955 41.918 38.1182 41.918 39.3633V39.373C41.918 40.6133 41.3564 41.3408 40.3604 41.3408ZM47.5674 37.4395V36.7363H44.1982V42H45.0479V37.4395H47.5674Z" fill="#808185"/>
<defs>
<clipPath id="clip0_6759_15844">
<rect width="24" height="24" fill="white" transform="translate(16.5 4)"/>
</clipPath>
</defs>
</svg>
