<svg width="57" height="48" viewBox="0 0 57 48" fill="none" xmlns="http://www.w3.org/2000/svg">
<g clip-path="url(#clip0_6759_18203)">
<path d="M25.298 18.0469L21.5 20.0401L28.9882 23.9997L36.4764 20.0401L32.6784 18.0469" stroke="#808185" stroke-miterlimit="10" stroke-linecap="round" stroke-linejoin="round"/>
<path d="M25.3518 14.0068L21.5 16.027L28.9882 19.9866L36.4764 16.027L32.6246 14.0068" stroke="#808185" stroke-miterlimit="10" stroke-linecap="round" stroke-linejoin="round"/>
<path d="M28.9882 8L21.5 11.9596L28.9882 15.9192L36.4764 11.9596L28.9882 8Z" stroke="#5F9E50" stroke-miterlimit="10" stroke-linecap="round" stroke-linejoin="round"/>
</g>
<rect x="0.5" y="29.5" width="56" height="1" rx="0.5" fill="#5F9E50"/>
<path d="M10.5605 42V38.8701H10.8145L13.7148 42H15.1016L11.7471 38.3574L14.8477 34.9541H13.5537L10.8096 38.0156H10.5605V34.9541H9.4668V42H10.5605ZM17.3623 42.0879C18.0654 42.0879 18.6221 41.7852 18.9346 41.248H19.0176V42H20.0674V38.3721C20.0674 37.2588 19.3154 36.5947 17.9824 36.5947C16.7764 36.5947 15.9414 37.1758 15.8145 38.0449L15.8096 38.0791H16.8301L16.835 38.0596C16.9619 37.6836 17.3477 37.4688 17.9336 37.4688C18.6514 37.4688 19.0176 37.791 19.0176 38.3721V38.8408L17.582 38.9238C16.3174 39.002 15.6045 39.5537 15.6045 40.501V40.5107C15.6045 41.4727 16.3516 42.0879 17.3623 42.0879ZM16.6592 40.4668V40.457C16.6592 39.9785 16.9912 39.7148 17.7236 39.6709L19.0176 39.5879V40.042C19.0176 40.7256 18.4365 41.2432 17.6455 41.2432C17.0742 41.2432 16.6592 40.9551 16.6592 40.4668ZM25.6191 36.6973H21.2197V37.5322H22.8896V42H23.9492V37.5322H25.6191V36.6973ZM28.1826 42.0879C28.8857 42.0879 29.4424 41.7852 29.7549 41.248H29.8379V42H30.8877V38.3721C30.8877 37.2588 30.1357 36.5947 28.8027 36.5947C27.5967 36.5947 26.7617 37.1758 26.6348 38.0449L26.6299 38.0791H27.6504L27.6553 38.0596C27.7822 37.6836 28.168 37.4688 28.7539 37.4688C29.4717 37.4688 29.8379 37.791 29.8379 38.3721V38.8408L28.4023 38.9238C27.1377 39.002 26.4248 39.5537 26.4248 40.501V40.5107C26.4248 41.4727 27.1719 42.0879 28.1826 42.0879ZM27.4795 40.4668V40.457C27.4795 39.9785 27.8115 39.7148 28.5439 39.6709L29.8379 39.5879V40.042C29.8379 40.7256 29.2568 41.2432 28.4658 41.2432C27.8945 41.2432 27.4795 40.9551 27.4795 40.4668ZM33.8906 39.7979L34.0615 37.5322H35.7363V42H36.7959V36.6973H33.1338L32.9287 39.7148C32.8799 40.4863 32.6992 41.1016 32.2109 41.1016C32.0791 41.1016 31.9473 41.082 31.8984 41.0674V41.9902C31.9717 42.0146 32.123 42.0488 32.3232 42.0488C33.3242 42.0488 33.7832 41.2969 33.8906 39.7979ZM40.6631 42.1025C42.2158 42.1025 43.168 41.0625 43.168 39.3535V39.3438C43.168 37.6348 42.2109 36.5947 40.6631 36.5947C39.1104 36.5947 38.1533 37.6396 38.1533 39.3438V39.3535C38.1533 41.0625 39.1055 42.1025 40.6631 42.1025ZM40.6631 41.2188C39.75 41.2188 39.2373 40.5303 39.2373 39.3535V39.3438C39.2373 38.167 39.75 37.4785 40.6631 37.4785C41.5713 37.4785 42.0889 38.167 42.0889 39.3438V39.3535C42.0889 40.5254 41.5713 41.2188 40.6631 41.2188ZM48.0264 37.5322V36.6973H44.5254V42H45.585V37.5322H48.0264Z" fill="#5F9E50"/>
<defs>
<clipPath id="clip0_6759_18203">
<rect width="24" height="24" fill="white" transform="translate(16.5 4)"/>
</clipPath>
</defs>
</svg>
