<svg width="57" height="48" viewBox="0 0 57 48" fill="none" xmlns="http://www.w3.org/2000/svg">
<g clip-path="url(#clip0_6759_19388)">
<path d="M28.5 19.7867L23.5667 23.4667L25.46 17.5467L20.5 13.8667H26.6333L28.5 8L30.3667 13.8667H36.5L31.54 17.5467L33.4333 23.4667L28.5 19.7867Z" stroke="#808185" stroke-miterlimit="10" stroke-linecap="round" stroke-linejoin="round"/>
</g>
<path d="M2.25488 42H3.10938L6.93262 36.4873H7.01074V42H7.87988V34.9541H7.02539L3.20703 40.4863H3.12402V34.9541H2.25488V42ZM11.4541 42.0977C12.6797 42.0977 13.5244 41.4287 13.5244 40.4521V40.4424C13.5244 39.8564 13.1582 39.4365 12.4648 39.2852V39.207C12.9873 39.085 13.334 38.6016 13.334 38.0693V38.0596C13.334 37.2197 12.6602 36.6387 11.4834 36.6387C10.4092 36.6387 9.6377 37.1758 9.51562 38.0205L9.51074 38.0547H10.3408L10.3457 38.0303C10.4287 37.6104 10.8828 37.3418 11.4834 37.3418C12.1572 37.3418 12.5039 37.6738 12.5039 38.123V38.1328C12.5039 38.6797 12.1279 38.9482 11.4541 38.9482H10.6338V39.6514H11.4541C12.2598 39.6514 12.6895 39.915 12.6895 40.4863V40.4961C12.6895 41.0186 12.2305 41.3945 11.4541 41.3945C10.8145 41.3945 10.3457 41.1211 10.2383 40.6914L10.2285 40.6523H9.36426L9.36914 40.6914C9.47656 41.541 10.3311 42.0977 11.4541 42.0977ZM17.0791 42.0977C18.5977 42.0977 19.5303 41.0625 19.5303 39.3926V39.3828C19.5303 37.7959 18.6221 36.7852 17.2061 36.7852C16.4102 36.7852 15.7803 37.127 15.4238 37.7568H15.3457L15.3604 37.6494C15.5557 36.2139 16.0879 35.6426 17.3135 35.5889L17.8506 35.5645C18.4609 35.5352 19.0176 35.4082 19.1836 35.252V34.5C18.7295 34.6855 18.2314 34.7637 17.8115 34.7832L17.2842 34.8076C15.4043 34.8955 14.6279 36.0869 14.6279 38.8799V38.8896C14.6279 40.999 15.4678 42.0977 17.0791 42.0977ZM17.0791 41.3457C16.0732 41.3457 15.4971 40.6279 15.4971 39.3926V39.3828C15.4971 38.2061 16.0732 37.5371 17.0791 37.5371C18.085 37.5371 18.6611 38.2061 18.6611 39.3828V39.3926C18.6611 40.6279 18.085 41.3457 17.0791 41.3457ZM20.9463 43.7578H21.7959V41.1699H21.874C22.1621 41.7314 22.792 42.0928 23.5146 42.0928C24.8525 42.0928 25.7217 41.0234 25.7217 39.373V39.3633C25.7217 37.7227 24.8477 36.6436 23.5146 36.6436C22.7822 36.6436 22.1963 36.9902 21.874 37.5762H21.7959V36.7363H20.9463V43.7578ZM23.3193 41.3408C22.3623 41.3408 21.7764 40.5889 21.7764 39.373V39.3633C21.7764 38.1475 22.3623 37.3955 23.3193 37.3955C24.2812 37.3955 24.8525 38.1377 24.8525 39.3633V39.373C24.8525 40.5986 24.2812 41.3408 23.3193 41.3408ZM28.5928 42.0928C29.3008 42.0928 29.8525 41.7852 30.1846 41.2236H30.2627V42H31.1123V38.3965C31.1123 37.3027 30.3945 36.6436 29.1104 36.6436C27.9873 36.6436 27.1865 37.2002 27.0498 38.0254L27.0449 38.0547H27.8945L27.8994 38.04C28.0361 37.6299 28.4512 37.3955 29.0811 37.3955C29.8672 37.3955 30.2627 37.7471 30.2627 38.3965V38.875L28.7539 38.9678C27.5283 39.041 26.835 39.583 26.835 40.5205V40.5303C26.835 41.4873 27.5918 42.0928 28.5928 42.0928ZM27.7041 40.5107V40.501C27.7041 39.9785 28.0557 39.6953 28.8564 39.6465L30.2627 39.5586V40.0371C30.2627 40.7891 29.6328 41.3555 28.7686 41.3555C28.1582 41.3555 27.7041 41.043 27.7041 40.5107ZM36.2148 42H37.0645V36.7363H36.2148V38.9141H33.6074V36.7363H32.7578V42H33.6074V39.6172H36.2148V42ZM42.1914 42H43.041V36.7363H42.1914V38.9141H39.584V36.7363H38.7344V42H39.584V39.6172H42.1914V42ZM46.8789 42.0928C48.3779 42.0928 49.3057 41.0576 49.3057 39.373V39.3633C49.3057 37.6738 48.3779 36.6436 46.8789 36.6436C45.3799 36.6436 44.4521 37.6738 44.4521 39.3633V39.373C44.4521 41.0576 45.3799 42.0928 46.8789 42.0928ZM46.8789 41.3408C45.8828 41.3408 45.3213 40.6133 45.3213 39.373V39.3633C45.3213 38.1182 45.8828 37.3955 46.8789 37.3955C47.875 37.3955 48.4365 38.1182 48.4365 39.3633V39.373C48.4365 40.6133 47.875 41.3408 46.8789 41.3408ZM52.8701 42.0928C54.1104 42.0928 54.8623 41.3896 55.043 40.6768L55.0527 40.6377H54.2031L54.1836 40.6816C54.042 40.999 53.6025 41.3359 52.8896 41.3359C51.9521 41.3359 51.3516 40.7012 51.3271 39.6123H55.1162V39.2803C55.1162 37.708 54.2471 36.6436 52.8164 36.6436C51.3857 36.6436 50.458 37.7568 50.458 39.3828V39.3877C50.458 41.0381 51.3662 42.0928 52.8701 42.0928ZM52.8115 37.4004C53.5879 37.4004 54.1641 37.8936 54.252 38.9336H51.3418C51.4346 37.9326 52.0303 37.4004 52.8115 37.4004Z" fill="#808185"/>
<defs>
<clipPath id="clip0_6759_19388">
<rect width="24" height="24" fill="white" transform="translate(16.5 4)"/>
</clipPath>
</defs>
</svg>
