<svg width="57" height="48" viewBox="0 0 57 48" fill="none" xmlns="http://www.w3.org/2000/svg">
<g clip-path="url(#clip0_571_24944)">
<path d="M28.5 19.7867L23.5667 23.4667L25.46 17.5467L20.5 13.8667H26.6333L28.5 8L30.3667 13.8667H36.5L31.54 17.5467L33.4333 23.4667L28.5 19.7867Z" stroke="#5F9E50" stroke-miterlimit="10" stroke-linecap="round" stroke-linejoin="round"/>
</g>
<rect x="0.5" y="29.5" width="56" height="1" rx="0.5" fill="#5F9E50"/>
<path d="M1.62012 42H2.6748L6.26367 36.7803H6.34668V42H7.43066V34.9541H6.37598L2.79199 40.1934H2.7041V34.9541H1.62012V42ZM11.083 42.1025C12.3916 42.1025 13.251 41.4238 13.251 40.4424V40.4326C13.251 39.8369 12.8896 39.417 12.167 39.2656V39.1826C12.7188 39.0557 13.0703 38.6016 13.0703 38.0547V38.0449C13.0703 37.166 12.3379 36.5898 11.1123 36.5898C9.90625 36.5898 9.14453 37.1807 9.02246 38.0791L9.01758 38.1133H10.0332L10.0381 38.0889C10.1162 37.6885 10.5215 37.4297 11.0879 37.4297C11.7227 37.4297 12.04 37.7373 12.04 38.1523V38.1621C12.04 38.6504 11.708 38.9092 11.0684 38.9092H10.2822V39.6807H11.0732C11.8105 39.6807 12.2061 39.9297 12.2061 40.4424V40.4521C12.2061 40.9307 11.7861 41.2676 11.0732 41.2676C10.4727 41.2676 10.0381 41.0137 9.93066 40.5938L9.9209 40.5596H8.87598L8.88086 40.5986C8.99316 41.5557 9.90625 42.1025 11.083 42.1025ZM16.8496 42.1025C18.4072 42.1025 19.3691 41.0479 19.3691 39.3633V39.3535C19.3691 37.7812 18.4512 36.7754 17.0352 36.7754C16.2197 36.7754 15.5947 37.1221 15.2432 37.7568H15.1602L15.1748 37.6543C15.3604 36.2773 15.8975 35.7207 17.1133 35.6719L17.6895 35.6475C18.2803 35.623 18.8369 35.5059 19.0225 35.3643V34.4805C18.583 34.6465 18.0654 34.7246 17.6357 34.7441L17.0498 34.7686C15.1309 34.8516 14.3105 36.082 14.3105 38.8652V38.875C14.3105 40.9795 15.1846 42.1025 16.8496 42.1025ZM16.8398 41.2188C15.917 41.2188 15.3896 40.5352 15.3896 39.3779V39.3682C15.3896 38.2695 15.917 37.6396 16.8398 37.6396C17.7578 37.6396 18.29 38.2695 18.29 39.3682V39.3779C18.29 40.5352 17.7578 41.2188 16.8398 41.2188ZM20.7363 43.7676H21.7959V41.1602H21.874C22.1572 41.7314 22.7773 42.0879 23.5049 42.0879C24.8525 42.0879 25.7021 41.0332 25.7021 39.3535V39.3438C25.7021 37.6738 24.8428 36.6045 23.5049 36.6045C22.7627 36.6045 22.1816 36.9512 21.874 37.5322H21.7959V36.6973H20.7363V43.7676ZM23.207 41.1846C22.3232 41.1846 21.7764 40.4863 21.7764 39.3535V39.3438C21.7764 38.2109 22.3232 37.5127 23.207 37.5127C24.0908 37.5127 24.623 38.2012 24.623 39.3438V39.3535C24.623 40.4912 24.0908 41.1846 23.207 41.1846ZM28.5293 42.0879C29.2324 42.0879 29.7891 41.7852 30.1016 41.248H30.1846V42H31.2344V38.3721C31.2344 37.2588 30.4824 36.5947 29.1494 36.5947C27.9434 36.5947 27.1084 37.1758 26.9814 38.0449L26.9766 38.0791H27.9971L28.002 38.0596C28.1289 37.6836 28.5146 37.4688 29.1006 37.4688C29.8184 37.4688 30.1846 37.791 30.1846 38.3721V38.8408L28.749 38.9238C27.4844 39.002 26.7715 39.5537 26.7715 40.501V40.5107C26.7715 41.4727 27.5186 42.0879 28.5293 42.0879ZM27.8262 40.4668V40.457C27.8262 39.9785 28.1582 39.7148 28.8906 39.6709L30.1846 39.5879V40.042C30.1846 40.7256 29.6035 41.2432 28.8125 41.2432C28.2412 41.2432 27.8262 40.9551 27.8262 40.4668ZM36.2881 42H37.3428V36.6973H36.2881V38.8359H33.8809V36.6973H32.8213V42H33.8809V39.6758H36.2881V42ZM42.4209 42H43.4756V36.6973H42.4209V38.8359H40.0137V36.6973H38.9541V42H40.0137V39.6758H42.4209V42ZM47.3379 42.1025C48.8906 42.1025 49.8428 41.0625 49.8428 39.3535V39.3438C49.8428 37.6348 48.8857 36.5947 47.3379 36.5947C45.7852 36.5947 44.8281 37.6396 44.8281 39.3438V39.3535C44.8281 41.0625 45.7803 42.1025 47.3379 42.1025ZM47.3379 41.2188C46.4248 41.2188 45.9121 40.5303 45.9121 39.3535V39.3438C45.9121 38.167 46.4248 37.4785 47.3379 37.4785C48.2461 37.4785 48.7637 38.167 48.7637 39.3438V39.3535C48.7637 40.5254 48.2461 41.2188 47.3379 41.2188ZM53.4316 42.1025C54.7891 42.1025 55.5215 41.3213 55.6973 40.623L55.707 40.5791L54.6865 40.584L54.667 40.623C54.54 40.8965 54.1348 41.2334 53.4561 41.2334C52.582 41.2334 52.0254 40.6426 52.0059 39.627H55.7656V39.2559C55.7656 37.6641 54.8574 36.5947 53.3779 36.5947C51.8984 36.5947 50.9414 37.7031 50.9414 39.3584V39.3633C50.9414 41.043 51.8789 42.1025 53.4316 42.1025ZM53.3828 37.4639C54.1006 37.4639 54.6328 37.9229 54.7158 38.8701H52.0205C52.1133 37.957 52.6602 37.4639 53.3828 37.4639Z" fill="#5F9E50"/>
<defs>
<clipPath id="clip0_571_24944">
<rect width="24" height="24" fill="white" transform="translate(16.5 4)"/>
</clipPath>
</defs>
</svg>
