<svg width="57" height="48" viewBox="0 0 57 48" fill="none" xmlns="http://www.w3.org/2000/svg">
<g clip-path="url(#clip0_6759_19383)">
<path d="M34.4397 13.7416L36.4793 15.7125C36.489 15.7218 36.4957 15.7338 36.4985 15.747C36.5013 15.7602 36.5001 15.7739 36.4951 15.7864C36.49 15.7989 36.4814 15.8096 36.4702 15.8171C36.459 15.8246 36.4458 15.8286 36.4324 15.8286H34.4397V23.3888H30.66V18.5292H26.3403V23.3888H22.5606V15.8294H20.5676C20.5542 15.8294 20.541 15.8254 20.5298 15.8179C20.5186 15.8104 20.51 15.7997 20.5049 15.7872C20.4999 15.7747 20.4987 15.761 20.5015 15.7478C20.5043 15.7347 20.511 15.7226 20.5207 15.7133L28.5001 8L32.0099 11.3928V9.88985H34.4397V13.7416Z" stroke="#808185" stroke-miterlimit="10" stroke-linecap="round" stroke-linejoin="round"/>
</g>
<path d="M11.0928 42V35.7451H14.3936V34.9541H10.2139V42H11.0928ZM16.0244 39.9395L16.2197 37.4395H18.0508V42H18.9004V36.7363H15.458L15.2334 39.8711C15.1797 40.6523 14.9844 41.2627 14.501 41.2627C14.374 41.2627 14.2422 41.2432 14.1982 41.2285V41.9951C14.2666 42.0195 14.4033 42.0488 14.584 42.0488C15.4629 42.0488 15.9121 41.3896 16.0244 39.9395ZM22.0205 42.0928C22.7285 42.0928 23.2803 41.7852 23.6123 41.2236H23.6904V42H24.54V38.3965C24.54 37.3027 23.8223 36.6436 22.5381 36.6436C21.415 36.6436 20.6143 37.2002 20.4775 38.0254L20.4727 38.0547H21.3223L21.3271 38.04C21.4639 37.6299 21.8789 37.3955 22.5088 37.3955C23.2949 37.3955 23.6904 37.7471 23.6904 38.3965V38.875L22.1816 38.9678C20.9561 39.041 20.2627 39.583 20.2627 40.5205V40.5303C20.2627 41.4873 21.0195 42.0928 22.0205 42.0928ZM21.1318 40.5107V40.501C21.1318 39.9785 21.4834 39.6953 22.2842 39.6465L23.6904 39.5586V40.0371C23.6904 40.7891 23.0605 41.3555 22.1963 41.3555C21.5859 41.3555 21.1318 41.043 21.1318 40.5107ZM26.1855 42H28.4268C29.5596 42 30.2285 41.4043 30.2285 40.4912V40.4814C30.2285 39.8711 29.8037 39.4023 29.1348 39.3096V39.2314C29.6279 39.1289 29.9941 38.6357 29.9941 38.1133V38.1035C29.9941 37.2783 29.4131 36.7363 28.417 36.7363H26.1855V42ZM27.0352 38.9629V37.4395H28.2949C28.8857 37.4395 29.1494 37.7422 29.1494 38.1914V38.2012C29.1494 38.6992 28.8418 38.9629 28.1582 38.9629H27.0352ZM27.0352 41.2969V39.666H28.2314C28.9883 39.666 29.3643 39.9102 29.3643 40.4668V40.4766C29.3643 41.0039 29.0371 41.2969 28.3926 41.2969H27.0352ZM35.1211 42H35.9707V36.7363H35.1211V38.9141H32.5137V36.7363H31.6641V42H32.5137V39.6172H35.1211V42ZM39.0908 42.0928C39.7988 42.0928 40.3506 41.7852 40.6826 41.2236H40.7607V42H41.6104V38.3965C41.6104 37.3027 40.8926 36.6436 39.6084 36.6436C38.4854 36.6436 37.6846 37.2002 37.5479 38.0254L37.543 38.0547H38.3926L38.3975 38.04C38.5342 37.6299 38.9492 37.3955 39.5791 37.3955C40.3652 37.3955 40.7607 37.7471 40.7607 38.3965V38.875L39.252 38.9678C38.0264 39.041 37.333 39.583 37.333 40.5205V40.5303C37.333 41.4873 38.0898 42.0928 39.0908 42.0928ZM38.2021 40.5107V40.501C38.2021 39.9785 38.5537 39.6953 39.3545 39.6465L40.7607 39.5586V40.0371C40.7607 40.7891 40.1309 41.3555 39.2666 41.3555C38.6562 41.3555 38.2021 41.043 38.2021 40.5107ZM46.0488 42H46.8984V36.7363H45.0674C43.8613 36.7363 43.0898 37.3955 43.0898 38.4746V38.4844C43.0898 39.2021 43.5391 39.749 44.2812 39.959L42.8115 42H43.8125L45.1553 40.1152H46.0488V42ZM45.0674 39.4121C44.3789 39.4121 43.959 39.0166 43.959 38.4648V38.4551C43.959 37.8203 44.374 37.4395 45.0674 37.4395H46.0488V39.4121H45.0674Z" fill="#808185"/>
<defs>
<clipPath id="clip0_6759_19383">
<rect width="24" height="24" fill="white" transform="translate(16.5 4)"/>
</clipPath>
</defs>
</svg>
