<svg width="57" height="48" viewBox="0 0 57 48" fill="none" xmlns="http://www.w3.org/2000/svg">
<g clip-path="url(#clip0_6759_15833)">
<path d="M34.4397 13.7416L36.4793 15.7125C36.489 15.7218 36.4957 15.7338 36.4985 15.747C36.5013 15.7602 36.5001 15.7739 36.4951 15.7864C36.49 15.7989 36.4814 15.8096 36.4702 15.8171C36.459 15.8246 36.4458 15.8286 36.4324 15.8286H34.4397V23.3888H30.66V18.5292H26.3403V23.3888H22.5606V15.8294H20.5676C20.5542 15.8294 20.541 15.8254 20.5298 15.8179C20.5186 15.8104 20.51 15.7997 20.5049 15.7872C20.4999 15.7747 20.4987 15.761 20.5015 15.7478C20.5043 15.7347 20.511 15.7226 20.5207 15.7133L28.5001 8L32.0099 11.3928V9.88985H34.4397V13.7416Z" stroke="#5F9E50" stroke-miterlimit="10" stroke-linecap="round" stroke-linejoin="round"/>
</g>
<rect x="0.5" y="29.5" width="56" height="1" rx="0.5" fill="#5F9E50"/>
<path d="M10.7217 42V35.8965H13.9346V34.9541H9.62793V42H10.7217ZM15.751 39.7979L15.9219 37.5322H17.5967V42H18.6562V36.6973H14.9941L14.7891 39.7148C14.7402 40.4863 14.5596 41.1016 14.0713 41.1016C13.9395 41.1016 13.8076 41.082 13.7588 41.0674V41.9902C13.832 42.0146 13.9834 42.0488 14.1836 42.0488C15.1846 42.0488 15.6436 41.2969 15.751 39.7979ZM21.7324 42.0879C22.4355 42.0879 22.9922 41.7852 23.3047 41.248H23.3877V42H24.4375V38.3721C24.4375 37.2588 23.6855 36.5947 22.3525 36.5947C21.1465 36.5947 20.3115 37.1758 20.1846 38.0449L20.1797 38.0791H21.2002L21.2051 38.0596C21.332 37.6836 21.7178 37.4688 22.3037 37.4688C23.0215 37.4688 23.3877 37.791 23.3877 38.3721V38.8408L21.9521 38.9238C20.6875 39.002 19.9746 39.5537 19.9746 40.501V40.5107C19.9746 41.4727 20.7217 42.0879 21.7324 42.0879ZM21.0293 40.4668V40.457C21.0293 39.9785 21.3613 39.7148 22.0938 39.6709L23.3877 39.5879V40.042C23.3877 40.7256 22.8066 41.2432 22.0156 41.2432C21.4443 41.2432 21.0293 40.9551 21.0293 40.4668ZM26.0244 42H28.4463C29.6133 42 30.3115 41.3945 30.3115 40.4863V40.4766C30.3115 39.8467 29.8623 39.3682 29.1738 39.2852V39.2021C29.6963 39.1045 30.0723 38.6113 30.0723 38.0693V38.0596C30.0723 37.2344 29.4619 36.6973 28.4219 36.6973H26.0244V42ZM27.0742 38.9189V37.4736H28.207C28.7686 37.4736 29.0273 37.7617 29.0273 38.1865V38.1963C29.0273 38.665 28.7295 38.9189 28.0947 38.9189H27.0742ZM27.0742 41.2188V39.6807H28.1729C28.8809 39.6807 29.2275 39.9248 29.2275 40.4375V40.4473C29.2275 40.9355 28.9199 41.2188 28.3096 41.2188H27.0742ZM35.165 42H36.2197V36.6973H35.165V38.8359H32.7578V36.6973H31.6982V42H32.7578V39.6758H35.165V42ZM39.291 42.0879C39.9941 42.0879 40.5508 41.7852 40.8633 41.248H40.9463V42H41.9961V38.3721C41.9961 37.2588 41.2441 36.5947 39.9111 36.5947C38.7051 36.5947 37.8701 37.1758 37.7432 38.0449L37.7383 38.0791H38.7588L38.7637 38.0596C38.8906 37.6836 39.2764 37.4688 39.8623 37.4688C40.5801 37.4688 40.9463 37.791 40.9463 38.3721V38.8408L39.5107 38.9238C38.2461 39.002 37.5332 39.5537 37.5332 40.501V40.5107C37.5332 41.4727 38.2803 42.0879 39.291 42.0879ZM38.5879 40.4668V40.457C38.5879 39.9785 38.9199 39.7148 39.6523 39.6709L40.9463 39.5879V40.042C40.9463 40.7256 40.3652 41.2432 39.5742 41.2432C39.0029 41.2432 38.5879 40.9551 38.5879 40.4668ZM46.4492 42H47.4941V36.6973H45.4531C44.2275 36.6973 43.4268 37.376 43.4268 38.4746V38.4844C43.4268 39.207 43.876 39.7734 44.6084 39.9834L43.1582 42H44.3789L45.668 40.1641H46.4492V42ZM45.5068 39.3535C44.877 39.3535 44.4912 38.9824 44.4912 38.4746V38.4648C44.4912 37.8838 44.8721 37.5273 45.5068 37.5273H46.4492V39.3535H45.5068Z" fill="#5F9E50"/>
<defs>
<clipPath id="clip0_6759_15833">
<rect width="24" height="24" fill="white" transform="translate(16.5 4)"/>
</clipPath>
</defs>
</svg>
