<svg width="60" height="48" viewBox="0 0 60 48" fill="none" xmlns="http://www.w3.org/2000/svg">
<path fill-rule="evenodd" clip-rule="evenodd" d="M37.4375 21.6L33.7188 18.7667V11.9667L37.4375 9.13333V21.6ZM32.6562 18.2H31.0625V12.5333H32.6562V18.2ZM30 18.2H25.75C24.6939 18.2 22.5625 17.8702 22.5625 15.3667C22.5625 12.8631 24.6588 12.4965 25.75 12.5333H30V18.2ZM27.3438 23.3C27.3438 23.6134 27.1058 23.8667 26.8125 23.8667H26.2812C25.988 23.8667 25.75 23.6134 25.75 23.3V19.3333H27.3438V23.3ZM37.4375 8L32.6562 11.4H25.75C23.4029 11.4 21.5 12.8631 21.5 15.3667C21.5 17.482 22.8504 18.9588 24.6875 19.3333C24.7114 19.4863 24.6875 23.8667 24.6875 23.8667C24.6875 24.4923 25.1635 25 25.75 25H27.3438C27.9303 25 28.4062 24.4923 28.4062 23.8667V19.3333H32.6562L37.4375 22.7333C38.024 22.7333 38.5 22.2256 38.5 21.6V9.13333C38.5 8.50773 38.024 8 37.4375 8Z" fill="#5F9E50"/>
<rect x="2" y="29.5" width="56" height="1" rx="0.5" fill="#5F9E50"/>
<path d="M4.24805 42.166C2.22656 42.166 1.01562 40.7305 1.01562 38.4795V38.4697C1.01562 36.209 2.25586 34.7881 4.24805 34.7881C6.25 34.7881 7.48047 36.2139 7.48047 38.4697V38.4795C7.48047 40.7256 6.25977 42.166 4.24805 42.166ZM4.24805 41.3555C5.69336 41.3555 6.58203 40.2227 6.58203 38.4795V38.4697C6.58203 36.7119 5.68848 35.5986 4.24805 35.5986C2.8125 35.5986 1.91406 36.7119 1.91406 38.4697V38.4795C1.91406 40.2227 2.7832 41.3555 4.24805 41.3555ZM11.1816 42.0977C9.57031 42.0977 8.73047 40.999 8.73047 38.8896V38.8799C8.73047 36.0869 9.50684 34.8955 11.3867 34.8076L11.9141 34.7832C12.334 34.7637 12.832 34.6855 13.2861 34.5V35.252C13.1201 35.4082 12.5635 35.5352 11.9531 35.5645L11.416 35.5889C10.1904 35.6426 9.6582 36.2139 9.46289 37.6494L9.44824 37.7568H9.52637C9.88281 37.127 10.5127 36.7852 11.3086 36.7852C12.7246 36.7852 13.6328 37.7959 13.6328 39.3828V39.3926C13.6328 41.0625 12.7002 42.0977 11.1816 42.0977ZM11.1816 41.3457C12.1875 41.3457 12.7637 40.6279 12.7637 39.3926V39.3828C12.7637 38.2061 12.1875 37.5371 11.1816 37.5371C10.1758 37.5371 9.59961 38.2061 9.59961 39.3828V39.3926C9.59961 40.6279 10.1758 41.3457 11.1816 41.3457ZM15.6445 42V37.4395H14.2188V36.7363H16.4941V38.4258H17.5244C18.7305 38.4258 19.502 39.1191 19.502 40.208V40.2178C19.502 41.3066 18.7305 42 17.5244 42H15.6445ZM17.5244 39.1289H16.4941V41.2969H17.5244C18.2178 41.2969 18.6523 40.8672 18.6523 40.2178V40.208C18.6523 39.5537 18.2129 39.1289 17.5244 39.1289ZM23.6084 42V40.1152H22.7148L21.3721 42H20.3711L21.8408 39.959C21.0986 39.749 20.6494 39.2021 20.6494 38.4844V38.4746C20.6494 37.3955 21.4209 36.7363 22.627 36.7363H24.458V42H23.6084ZM22.627 39.4121H23.6084V37.4395H22.627C21.9336 37.4395 21.5186 37.8203 21.5186 38.4551V38.4648C21.5186 39.0166 21.9385 39.4121 22.627 39.4121ZM26.1279 42V36.7363H28.3594C29.3555 36.7363 29.9365 37.2783 29.9365 38.1035V38.1133C29.9365 38.6357 29.5703 39.1289 29.0771 39.2314V39.3096C29.7461 39.4023 30.1709 39.8711 30.1709 40.4814V40.4912C30.1709 41.4043 29.502 42 28.3691 42H26.1279ZM26.9775 38.9629H28.1006C28.7842 38.9629 29.0918 38.6992 29.0918 38.2012V38.1914C29.0918 37.7422 28.8281 37.4395 28.2373 37.4395H26.9775V38.9629ZM26.9775 41.2969H28.335C28.9795 41.2969 29.3066 41.0039 29.3066 40.4766V40.4668C29.3066 39.9102 28.9307 39.666 28.1738 39.666H26.9775V41.2969ZM32.793 39.9395C32.6807 41.3896 32.2314 42.0488 31.3525 42.0488C31.1719 42.0488 31.0352 42.0195 30.9668 41.9951V41.2285C31.0107 41.2432 31.1426 41.2627 31.2695 41.2627C31.7529 41.2627 31.9482 40.6523 32.002 39.8711L32.2266 36.7363H35.6689V42H34.8193V37.4395H32.9883L32.793 39.9395ZM39.4922 42.0928C37.9883 42.0928 37.0801 41.0381 37.0801 39.3877V39.3828C37.0801 37.7568 38.0078 36.6436 39.4385 36.6436C40.8691 36.6436 41.7383 37.708 41.7383 39.2803V39.6123H37.9492C37.9736 40.7012 38.5742 41.3359 39.5117 41.3359C40.2246 41.3359 40.6641 40.999 40.8057 40.6816L40.8252 40.6377H41.6748L41.665 40.6768C41.4844 41.3896 40.7324 42.0928 39.4922 42.0928ZM39.4336 37.4004C38.6523 37.4004 38.0566 37.9326 37.9639 38.9336H40.874C40.7861 37.8936 40.21 37.4004 39.4336 37.4004ZM46.6064 42V39.6172H43.999V42H43.1494V36.7363H43.999V38.9141H46.6064V36.7363H47.4561V42H46.6064ZM49.126 42V36.7363H49.9756V40.6621H50.0537L52.6562 36.7363H53.5059V42H52.6562V38.0742H52.5781L49.9756 42H49.126ZM57.9736 42V40.1152H57.0801L55.7373 42H54.7363L56.2061 39.959C55.4639 39.749 55.0146 39.2021 55.0146 38.4844V38.4746C55.0146 37.3955 55.7861 36.7363 56.9922 36.7363H58.8232V42H57.9736ZM56.9922 39.4121H57.9736V37.4395H56.9922C56.2988 37.4395 55.8838 37.8203 55.8838 38.4551V38.4648C55.8838 39.0166 56.3037 39.4121 56.9922 39.4121Z" fill="#5F9E50"/>
</svg>
