<svg width="60" height="48" viewBox="0 0 60 48" fill="none" xmlns="http://www.w3.org/2000/svg">
<path fill-rule="evenodd" clip-rule="evenodd" d="M37.4375 22.85L33.7188 20.0167V13.2167L37.4375 10.3833V22.85ZM32.6562 19.45H31.0625V13.7833H32.6562V19.45ZM30 19.45H25.75C24.6939 19.45 22.5625 19.1202 22.5625 16.6167C22.5625 14.1131 24.6588 13.7465 25.75 13.7833H30V19.45ZM27.3438 24.55C27.3438 24.8634 27.1058 25.1167 26.8125 25.1167H26.2812C25.988 25.1167 25.75 24.8634 25.75 24.55V20.5833H27.3438V24.55ZM37.4375 9.25L32.6562 12.65H25.75C23.4029 12.65 21.5 14.1131 21.5 16.6167C21.5 18.732 22.8504 20.2088 24.6875 20.5833C24.7114 20.7363 24.6875 25.1167 24.6875 25.1167C24.6875 25.7423 25.1635 26.25 25.75 26.25H27.3438C27.9303 26.25 28.4062 25.7423 28.4062 25.1167V20.5833H32.6562L37.4375 23.9833C38.024 23.9833 38.5 23.4756 38.5 22.85V10.3833C38.5 9.75773 38.024 9.25 37.4375 9.25Z" fill="#808185"/>
<path d="M4.24805 40.916C2.22656 40.916 1.01562 39.4805 1.01562 37.2295V37.2197C1.01562 34.959 2.25586 33.5381 4.24805 33.5381C6.25 33.5381 7.48047 34.9639 7.48047 37.2197V37.2295C7.48047 39.4756 6.25977 40.916 4.24805 40.916ZM4.24805 40.1055C5.69336 40.1055 6.58203 38.9727 6.58203 37.2295V37.2197C6.58203 35.4619 5.68848 34.3486 4.24805 34.3486C2.8125 34.3486 1.91406 35.4619 1.91406 37.2197V37.2295C1.91406 38.9727 2.7832 40.1055 4.24805 40.1055ZM11.1816 40.8477C9.57031 40.8477 8.73047 39.749 8.73047 37.6396V37.6299C8.73047 34.8369 9.50684 33.6455 11.3867 33.5576L11.9141 33.5332C12.334 33.5137 12.832 33.4355 13.2861 33.25V34.002C13.1201 34.1582 12.5635 34.2852 11.9531 34.3145L11.416 34.3389C10.1904 34.3926 9.6582 34.9639 9.46289 36.3994L9.44824 36.5068H9.52637C9.88281 35.877 10.5127 35.5352 11.3086 35.5352C12.7246 35.5352 13.6328 36.5459 13.6328 38.1328V38.1426C13.6328 39.8125 12.7002 40.8477 11.1816 40.8477ZM11.1816 40.0957C12.1875 40.0957 12.7637 39.3779 12.7637 38.1426V38.1328C12.7637 36.9561 12.1875 36.2871 11.1816 36.2871C10.1758 36.2871 9.59961 36.9561 9.59961 38.1328V38.1426C9.59961 39.3779 10.1758 40.0957 11.1816 40.0957ZM15.6445 40.75V36.1895H14.2188V35.4863H16.4941V37.1758H17.5244C18.7305 37.1758 19.502 37.8691 19.502 38.958V38.9678C19.502 40.0566 18.7305 40.75 17.5244 40.75H15.6445ZM17.5244 37.8789H16.4941V40.0469H17.5244C18.2178 40.0469 18.6523 39.6172 18.6523 38.9678V38.958C18.6523 38.3037 18.2129 37.8789 17.5244 37.8789ZM23.6084 40.75V38.8652H22.7148L21.3721 40.75H20.3711L21.8408 38.709C21.0986 38.499 20.6494 37.9521 20.6494 37.2344V37.2246C20.6494 36.1455 21.4209 35.4863 22.627 35.4863H24.458V40.75H23.6084ZM22.627 38.1621H23.6084V36.1895H22.627C21.9336 36.1895 21.5186 36.5703 21.5186 37.2051V37.2148C21.5186 37.7666 21.9385 38.1621 22.627 38.1621ZM26.1279 40.75V35.4863H28.3594C29.3555 35.4863 29.9365 36.0283 29.9365 36.8535V36.8633C29.9365 37.3857 29.5703 37.8789 29.0771 37.9814V38.0596C29.7461 38.1523 30.1709 38.6211 30.1709 39.2314V39.2412C30.1709 40.1543 29.502 40.75 28.3691 40.75H26.1279ZM26.9775 37.7129H28.1006C28.7842 37.7129 29.0918 37.4492 29.0918 36.9512V36.9414C29.0918 36.4922 28.8281 36.1895 28.2373 36.1895H26.9775V37.7129ZM26.9775 40.0469H28.335C28.9795 40.0469 29.3066 39.7539 29.3066 39.2266V39.2168C29.3066 38.6602 28.9307 38.416 28.1738 38.416H26.9775V40.0469ZM32.793 38.6895C32.6807 40.1396 32.2314 40.7988 31.3525 40.7988C31.1719 40.7988 31.0352 40.7695 30.9668 40.7451V39.9785C31.0107 39.9932 31.1426 40.0127 31.2695 40.0127C31.7529 40.0127 31.9482 39.4023 32.002 38.6211L32.2266 35.4863H35.6689V40.75H34.8193V36.1895H32.9883L32.793 38.6895ZM39.4922 40.8428C37.9883 40.8428 37.0801 39.7881 37.0801 38.1377V38.1328C37.0801 36.5068 38.0078 35.3936 39.4385 35.3936C40.8691 35.3936 41.7383 36.458 41.7383 38.0303V38.3623H37.9492C37.9736 39.4512 38.5742 40.0859 39.5117 40.0859C40.2246 40.0859 40.6641 39.749 40.8057 39.4316L40.8252 39.3877H41.6748L41.665 39.4268C41.4844 40.1396 40.7324 40.8428 39.4922 40.8428ZM39.4336 36.1504C38.6523 36.1504 38.0566 36.6826 37.9639 37.6836H40.874C40.7861 36.6436 40.21 36.1504 39.4336 36.1504ZM46.6064 40.75V38.3672H43.999V40.75H43.1494V35.4863H43.999V37.6641H46.6064V35.4863H47.4561V40.75H46.6064ZM49.126 40.75V35.4863H49.9756V39.4121H50.0537L52.6562 35.4863H53.5059V40.75H52.6562V36.8242H52.5781L49.9756 40.75H49.126ZM57.9736 40.75V38.8652H57.0801L55.7373 40.75H54.7363L56.2061 38.709C55.4639 38.499 55.0146 37.9521 55.0146 37.2344V37.2246C55.0146 36.1455 55.7861 35.4863 56.9922 35.4863H58.8232V40.75H57.9736ZM56.9922 38.1621H57.9736V36.1895H56.9922C56.2988 36.1895 55.8838 36.5703 55.8838 37.2051V37.2148C55.8838 37.7666 56.3037 38.1621 56.9922 38.1621Z" fill="#808185"/>
</svg>
