<svg width="57" height="48" viewBox="0 0 57 48" fill="none" xmlns="http://www.w3.org/2000/svg">
<g clip-path="url(#clip0_571_24941)">
<path d="M30.7933 20.5197C28.6333 20.0931 28.5 19.5597 28.5 19.1331V18.5997C29.0297 18.0946 29.4004 17.4459 29.5667 16.7331C30.2333 16.7331 30.6333 15.9331 30.6333 15.1331C30.6333 14.9197 30.6333 14.0664 30.1 14.0664C31.4333 10.1997 27.54 8.73308 24.7667 10.5997C23.5933 10.5997 23.2733 12.3597 23.7 14.0664C23.1667 14.0664 23.1667 14.9197 23.1667 15.1331C23.1667 15.9331 23.5667 16.7331 24.2333 16.7331C24.4011 17.4453 24.7716 18.0936 25.3 18.5997V19.1331C25.3 19.5597 25.1667 20.0931 23.0067 20.5197C20.8467 20.9464 20.5 22.8664 20.5 22.8664H33.3C33.3 22.8664 33.3 21.0264 30.7933 20.5197Z" stroke="#808185" stroke-miterlimit="10" stroke-linecap="round" stroke-linejoin="round"/>
<path d="M31.1666 9H36.5M32.2333 13.2667H36.5H32.2333ZM32.2333 11.1333H36.5H32.2333Z" stroke="#5F9E50" stroke-miterlimit="10" stroke-linecap="round" stroke-linejoin="round"/>
</g>
<rect x="0.5" y="29.5" width="56" height="1" rx="0.5" fill="#5F9E50"/>
<path d="M12.5332 42V34.9541H6.80078V42H7.89453V35.8965H11.4395V42H12.5332ZM14.2764 43.7676H15.3359V41.1602H15.4141C15.6973 41.7314 16.3174 42.0879 17.0449 42.0879C18.3926 42.0879 19.2422 41.0332 19.2422 39.3535V39.3438C19.2422 37.6738 18.3828 36.6045 17.0449 36.6045C16.3027 36.6045 15.7217 36.9512 15.4141 37.5322H15.3359V36.6973H14.2764V43.7676ZM16.7471 41.1846C15.8633 41.1846 15.3164 40.4863 15.3164 39.3535V39.3438C15.3164 38.2109 15.8633 37.5127 16.7471 37.5127C17.6309 37.5127 18.1631 38.2012 18.1631 39.3438V39.3535C18.1631 40.4912 17.6309 41.1846 16.7471 41.1846ZM22.8604 42.1025C24.4131 42.1025 25.3652 41.0625 25.3652 39.3535V39.3438C25.3652 37.6348 24.4082 36.5947 22.8604 36.5947C21.3076 36.5947 20.3506 37.6396 20.3506 39.3438V39.3535C20.3506 41.0625 21.3027 42.1025 22.8604 42.1025ZM22.8604 41.2188C21.9473 41.2188 21.4346 40.5303 21.4346 39.3535V39.3438C21.4346 38.167 21.9473 37.4785 22.8604 37.4785C23.7686 37.4785 24.2861 38.167 24.2861 39.3438V39.3535C24.2861 40.5254 23.7686 41.2188 22.8604 41.2188ZM29.2471 43.7676H30.2725V42.0684C31.9424 42.0391 33.0459 40.9941 33.0459 39.3535V39.3438C33.0459 37.6982 31.9473 36.6631 30.2725 36.6289V34.9297H29.2471V36.6289C27.5723 36.6582 26.4639 37.7031 26.4639 39.3438V39.3535C26.4639 40.9941 27.5625 42.0342 29.2471 42.0684V43.7676ZM29.2471 41.2139C28.1973 41.1846 27.5283 40.4912 27.5283 39.3535V39.3438C27.5283 38.2061 28.2021 37.5078 29.2471 37.4834V41.2139ZM30.2676 41.2139V37.4834C31.3125 37.5078 31.9814 38.2061 31.9814 39.3438V39.3535C31.9814 40.4912 31.3076 41.1895 30.2676 41.2139ZM34.3984 42H35.4482L37.8457 38.2646H37.9385V42H38.9883V36.6973H37.9385L35.541 40.418H35.4482V36.6973H34.3984V42ZM42.0254 39.7979L42.1963 37.5322H43.8711V42H44.9307V36.6973H41.2686L41.0635 39.7148C41.0146 40.4863 40.834 41.1016 40.3457 41.1016C40.2139 41.1016 40.082 41.082 40.0332 41.0674V41.9902C40.1064 42.0146 40.2578 42.0488 40.458 42.0488C41.459 42.0488 41.918 41.2969 42.0254 39.7979ZM46.5469 42H48.6465C49.877 42 50.6631 41.292 50.6631 40.1738V40.1641C50.6631 39.0508 49.877 38.3428 48.6465 38.3428H47.6064V36.6973H46.5469V42ZM48.5586 39.1777C49.1934 39.1777 49.5986 39.5684 49.5986 40.1641V40.1738C49.5986 40.7646 49.1982 41.165 48.5586 41.165H47.6064V39.1777H48.5586Z" fill="#5F9E50"/>
<defs>
<clipPath id="clip0_571_24941">
<rect width="24" height="24" fill="white" transform="translate(16.5 4)"/>
</clipPath>
</defs>
</svg>
