<svg width="57" height="48" viewBox="0 0 57 48" fill="none" xmlns="http://www.w3.org/2000/svg">
<g clip-path="url(#clip0_6759_19369)">
<path d="M30.7933 20.5197C28.6333 20.0931 28.5 19.5597 28.5 19.1331V18.5997C29.0297 18.0946 29.4004 17.4459 29.5667 16.7331C30.2333 16.7331 30.6333 15.9331 30.6333 15.1331C30.6333 14.9197 30.6333 14.0664 30.1 14.0664C31.4333 10.1997 27.54 8.73308 24.7667 10.5997C23.5933 10.5997 23.2733 12.3597 23.7 14.0664C23.1667 14.0664 23.1667 14.9197 23.1667 15.1331C23.1667 15.9331 23.5667 16.7331 24.2333 16.7331C24.4011 17.4453 24.7716 18.0936 25.3 18.5997V19.1331C25.3 19.5597 25.1667 20.0931 23.0067 20.5197C20.8467 20.9464 20.5 22.8664 20.5 22.8664H33.3C33.3 22.8664 33.3 21.0264 30.7933 20.5197Z" stroke="#808185" stroke-miterlimit="10" stroke-linecap="round" stroke-linejoin="round"/>
<path d="M31.1667 9H36.5M32.2333 13.2667H36.5H32.2333ZM32.2333 11.1333H36.5H32.2333Z" stroke="#808185" stroke-miterlimit="10" stroke-linecap="round" stroke-linejoin="round"/>
</g>
<path d="M12.958 42V34.9541H7.43066V42H8.30957V35.7451H12.0791V42H12.958ZM14.7451 43.7578H15.5947V41.1699H15.6729C15.9609 41.7314 16.5908 42.0928 17.3135 42.0928C18.6514 42.0928 19.5205 41.0234 19.5205 39.373V39.3633C19.5205 37.7227 18.6465 36.6436 17.3135 36.6436C16.5811 36.6436 15.9951 36.9902 15.6729 37.5762H15.5947V36.7363H14.7451V43.7578ZM17.1182 41.3408C16.1611 41.3408 15.5752 40.5889 15.5752 39.373V39.3633C15.5752 38.1475 16.1611 37.3955 17.1182 37.3955C18.0801 37.3955 18.6514 38.1377 18.6514 39.3633V39.373C18.6514 40.5986 18.0801 41.3408 17.1182 41.3408ZM23.1094 42.0928C24.6084 42.0928 25.5361 41.0576 25.5361 39.373V39.3633C25.5361 37.6738 24.6084 36.6436 23.1094 36.6436C21.6104 36.6436 20.6826 37.6738 20.6826 39.3633V39.373C20.6826 41.0576 21.6104 42.0928 23.1094 42.0928ZM23.1094 41.3408C22.1133 41.3408 21.5518 40.6133 21.5518 39.373V39.3633C21.5518 38.1182 22.1133 37.3955 23.1094 37.3955C24.1055 37.3955 24.667 38.1182 24.667 39.3633V39.373C24.667 40.6133 24.1055 41.3408 23.1094 41.3408ZM29.4033 43.7578H30.2236V42.0635C31.8496 42.0391 32.9336 40.9941 32.9336 39.373V39.3633C32.9336 37.7422 31.8496 36.7021 30.2236 36.6729V34.9541H29.4033V36.6729C27.7725 36.6973 26.6885 37.7422 26.6885 39.3633V39.373C26.6885 40.9893 27.7725 42.0342 29.4033 42.0635V43.7578ZM29.4033 41.3359C28.2656 41.3066 27.543 40.5645 27.543 39.373V39.3633C27.543 38.167 28.2656 37.4248 29.4033 37.4004V41.3359ZM30.2236 41.3359V37.4004C31.3564 37.4297 32.0791 38.1719 32.0791 39.3633V39.373C32.0791 40.5693 31.3564 41.3115 30.2236 41.3359ZM34.3496 42H35.1992L37.8018 38.0742H37.8799V42H38.7295V36.7363H37.8799L35.2773 40.6621H35.1992V36.7363H34.3496V42ZM41.6396 39.9395L41.835 37.4395H43.666V42H44.5156V36.7363H41.0732L40.8486 39.8711C40.7949 40.6523 40.5996 41.2627 40.1162 41.2627C39.9893 41.2627 39.8574 41.2432 39.8135 41.2285V41.9951C39.8818 42.0195 40.0186 42.0488 40.1992 42.0488C41.0781 42.0488 41.5273 41.3896 41.6396 39.9395ZM46.1855 42H48.0654C49.2715 42 50.043 41.3066 50.043 40.2178V40.208C50.043 39.1191 49.2715 38.4258 48.0654 38.4258H47.0352V36.7363H46.1855V42ZM48.0654 39.1289C48.7539 39.1289 49.1934 39.5537 49.1934 40.208V40.2178C49.1934 40.8672 48.7588 41.2969 48.0654 41.2969H47.0352V39.1289H48.0654Z" fill="#808185"/>
<defs>
<clipPath id="clip0_6759_19369">
<rect width="24" height="24" fill="white" transform="translate(16.5 4)"/>
</clipPath>
</defs>
</svg>
