<svg width="57" height="48" viewBox="0 0 57 48" fill="none" xmlns="http://www.w3.org/2000/svg">
<g clip-path="url(#clip0_6759_10662)">
<path d="M25.8334 20.64H36.5M25.8334 11.04H36.5H25.8334ZM25.8334 15.84H36.5H25.8334Z" stroke="#808185" stroke-miterlimit="10" stroke-linecap="round" stroke-linejoin="round"/>
<path d="M20.5 20.64L21.5667 21.7067L22.8467 19.5733M20.5 11.04L21.5667 12.1067L22.8467 10L20.5 11.04ZM20.5 15.84L21.5667 16.9067L22.8467 14.8L20.5 15.84Z" stroke="#5F9E50" stroke-width="0.5" stroke-miterlimit="10" stroke-linecap="round" stroke-linejoin="round"/>
</g>
<rect x="0.5" y="29.5" width="56" height="1" rx="0.5" fill="#5F9E50"/>
<path d="M13.0752 38.8701H14.0469C15.0332 38.8701 15.5996 39.3145 15.5996 40.0273V40.0371C15.5996 40.7402 14.9941 41.209 14.0811 41.209C13.1875 41.209 12.5771 40.8086 12.5039 40.1396L12.499 40.1055H11.4346V40.1543C11.5176 41.3701 12.5674 42.1709 14.0811 42.1709C15.5654 42.1709 16.7129 41.2822 16.7129 40.0908V40.0811C16.7129 39.0947 16.0586 38.4648 15.1455 38.3721V38.2891C15.9268 38.1084 16.4688 37.459 16.4688 36.6875V36.6777C16.4688 35.5645 15.4922 34.7832 14.1055 34.7832C12.6699 34.7832 11.7227 35.5352 11.625 36.7461L11.6152 36.8242H12.665L12.6699 36.79C12.7383 36.1309 13.2656 35.7451 14.0713 35.7451C14.8965 35.7451 15.3848 36.1504 15.3848 36.79V36.7998C15.3848 37.4785 14.8525 37.9473 14.0176 37.9473H13.0752V38.8701ZM19.5156 42.0879C20.2188 42.0879 20.7754 41.7852 21.0879 41.248H21.1709V42H22.2207V38.3721C22.2207 37.2588 21.4688 36.5947 20.1357 36.5947C18.9297 36.5947 18.0947 37.1758 17.9678 38.0449L17.9629 38.0791H18.9834L18.9883 38.0596C19.1152 37.6836 19.501 37.4688 20.0869 37.4688C20.8047 37.4688 21.1709 37.791 21.1709 38.3721V38.8408L19.7354 38.9238C18.4707 39.002 17.7578 39.5537 17.7578 40.501V40.5107C17.7578 41.4727 18.5049 42.0879 19.5156 42.0879ZM18.8125 40.4668V40.457C18.8125 39.9785 19.1445 39.7148 19.877 39.6709L21.1709 39.5879V40.042C21.1709 40.7256 20.5898 41.2432 19.7988 41.2432C19.2275 41.2432 18.8125 40.9551 18.8125 40.4668ZM26.6738 42H27.7188V36.6973H25.6777C24.4521 36.6973 23.6514 37.376 23.6514 38.4746V38.4844C23.6514 39.207 24.1006 39.7734 24.833 39.9834L23.3828 42H24.6035L25.8926 40.1641H26.6738V42ZM25.7314 39.3535C25.1016 39.3535 24.7158 38.9824 24.7158 38.4746V38.4648C24.7158 37.8838 25.0967 37.5273 25.7314 37.5273H26.6738V39.3535H25.7314ZM29.335 42H31.7568C32.9238 42 33.6221 41.3945 33.6221 40.4863V40.4766C33.6221 39.8467 33.1729 39.3682 32.4844 39.2852V39.2021C33.0068 39.1045 33.3828 38.6113 33.3828 38.0693V38.0596C33.3828 37.2344 32.7725 36.6973 31.7324 36.6973H29.335V42ZM30.3848 38.9189V37.4736H31.5176C32.0791 37.4736 32.3379 37.7617 32.3379 38.1865V38.1963C32.3379 38.665 32.04 38.9189 31.4053 38.9189H30.3848ZM30.3848 41.2188V39.6807H31.4834C32.1914 39.6807 32.5381 39.9248 32.5381 40.4375V40.4473C32.5381 40.9355 32.2305 41.2188 31.6201 41.2188H30.3848ZM36.3369 39.6562L38.2363 42H39.5449L37.1963 39.168L39.4473 36.6973H38.2119L36.332 38.8652H36.0684V36.6973H35.0088V42H36.0684V39.6562H36.3369ZM40.6631 42H41.7129L44.1104 38.2646H44.2031V42H45.2529V36.6973H44.2031L41.8057 40.418H41.7129V36.6973H40.6631V42Z" fill="#5F9E50"/>
<defs>
<clipPath id="clip0_6759_10662">
<rect width="24" height="24" fill="white" transform="translate(16.5 4)"/>
</clipPath>
</defs>
</svg>
