<svg width="57" height="48" viewBox="0 0 57 48" fill="none" xmlns="http://www.w3.org/2000/svg">
<g clip-path="url(#clip0_6759_19376)">
<path d="M25.8333 20.64H36.5M25.8333 11.04H36.5H25.8333ZM25.8333 15.84H36.5H25.8333Z" stroke="#808185" stroke-miterlimit="10" stroke-linecap="round" stroke-linejoin="round"/>
<path d="M20.5 20.64L21.5667 21.7067L22.8467 19.5733M20.5 11.04L21.5667 12.1067L22.8467 10L20.5 11.04ZM20.5 15.84L21.5667 16.9067L22.8467 14.8L20.5 15.84Z" stroke="#808185" stroke-width="0.5" stroke-miterlimit="10" stroke-linecap="round" stroke-linejoin="round"/>
</g>
<path d="M13.5146 38.7969H14.5059C15.5703 38.7969 16.1807 39.2852 16.1807 40.0713V40.0811C16.1807 40.8379 15.5264 41.3555 14.54 41.3555C13.5928 41.3555 12.9336 40.9209 12.8457 40.2031L12.8408 40.1641H11.9717L11.9766 40.2227C12.0742 41.4092 13.0947 42.166 14.5498 42.166C15.9658 42.166 17.0791 41.2676 17.0791 40.1055V40.0957C17.0791 39.0898 16.415 38.46 15.5166 38.3672V38.2891C16.2979 38.0986 16.8301 37.4492 16.8301 36.6826V36.6729C16.8301 35.5742 15.8926 34.7881 14.5693 34.7881C13.2021 34.7881 12.2988 35.5059 12.1768 36.668L12.167 36.7607H13.0361L13.041 36.7217C13.1289 36.0137 13.6855 35.5986 14.5352 35.5986C15.4189 35.5986 15.9316 36.0479 15.9316 36.7412V36.751C15.9316 37.4883 15.3604 38.0059 14.4668 38.0059H13.5146V38.7969ZM19.9014 42.0928C20.6094 42.0928 21.1611 41.7852 21.4932 41.2236H21.5713V42H22.4209V38.3965C22.4209 37.3027 21.7031 36.6436 20.4189 36.6436C19.2959 36.6436 18.4951 37.2002 18.3584 38.0254L18.3535 38.0547H19.2031L19.208 38.04C19.3447 37.6299 19.7598 37.3955 20.3896 37.3955C21.1758 37.3955 21.5713 37.7471 21.5713 38.3965V38.875L20.0625 38.9678C18.8369 39.041 18.1436 39.583 18.1436 40.5205V40.5303C18.1436 41.4873 18.9004 42.0928 19.9014 42.0928ZM19.0127 40.5107V40.501C19.0127 39.9785 19.3643 39.6953 20.165 39.6465L21.5713 39.5586V40.0371C21.5713 40.7891 20.9414 41.3555 20.0771 41.3555C19.4668 41.3555 19.0127 41.043 19.0127 40.5107ZM26.8594 42H27.709V36.7363H25.8779C24.6719 36.7363 23.9004 37.3955 23.9004 38.4746V38.4844C23.9004 39.2021 24.3496 39.749 25.0918 39.959L23.6221 42H24.623L25.9658 40.1152H26.8594V42ZM25.8779 39.4121C25.1895 39.4121 24.7695 39.0166 24.7695 38.4648V38.4551C24.7695 37.8203 25.1846 37.4395 25.8779 37.4395H26.8594V39.4121H25.8779ZM29.3789 42H31.6201C32.7529 42 33.4219 41.4043 33.4219 40.4912V40.4814C33.4219 39.8711 32.9971 39.4023 32.3281 39.3096V39.2314C32.8213 39.1289 33.1875 38.6357 33.1875 38.1133V38.1035C33.1875 37.2783 32.6064 36.7363 31.6104 36.7363H29.3789V42ZM30.2285 38.9629V37.4395H31.4883C32.0791 37.4395 32.3428 37.7422 32.3428 38.1914V38.2012C32.3428 38.6992 32.0352 38.9629 31.3516 38.9629H30.2285ZM30.2285 41.2969V39.666H31.4248C32.1816 39.666 32.5576 39.9102 32.5576 40.4668V40.4766C32.5576 41.0039 32.2305 41.2969 31.5859 41.2969H30.2285ZM35.9756 39.6025L38.0361 42H39.125L36.6641 39.2168L39.0322 36.7363H38.0117L35.9756 38.9385H35.707V36.7363H34.8574V42H35.707V39.6025H35.9756ZM40.2969 42H41.1465L43.749 38.0742H43.8271V42H44.6768V36.7363H43.8271L41.2246 40.6621H41.1465V36.7363H40.2969V42Z" fill="#808185"/>
<defs>
<clipPath id="clip0_6759_19376">
<rect width="24" height="24" fill="white" transform="translate(16.5 4)"/>
</clipPath>
</defs>
</svg>
