<svg width="21" height="12" viewBox="0 0 21 12" fill="none" xmlns="http://www.w3.org/2000/svg">
<path d="M10.6406 11.0234C10.3672 11.0234 10.1328 10.9219 9.92969 10.7031L3.97656 4.625C3.80469 4.44531 3.71094 4.22656 3.71094 3.97656C3.71094 3.45313 4.11719 3.04688 4.64062 3.04688C4.89844 3.04688 5.125 3.14844 5.30469 3.32813L10.6406 8.79688L15.9766 3.32813C16.1562 3.14844 16.3906 3.04688 16.6406 3.04688C17.1641 3.04688 17.5703 3.45313 17.5703 3.97656C17.5703 4.23438 17.4766 4.44531 17.3047 4.625L11.3594 10.7031C11.1484 10.9141 10.9141 11.0156 10.6406 11.0234Z" fill="#3C3C43" fill-opacity="0.3"/>
</svg>
