<svg width="343" height="477" viewBox="0 0 343 477" fill="none" xmlns="http://www.w3.org/2000/svg">
<path d="M10.3577 324.246H341.272" stroke="#263238" stroke-linecap="round" stroke-linejoin="round"/>
<path d="M138.278 15.7725H23.4385V171.958H138.278V15.7725Z" stroke="#263238" stroke-linecap="round" stroke-linejoin="round"/>
<path d="M135.089 20.1128H26.6272V167.625H135.089V20.1128Z" stroke="#263238" stroke-linecap="round" stroke-linejoin="round"/>
<path d="M26.657 27.7971H134.971" stroke="#263238" stroke-linecap="round" stroke-linejoin="round"/>
<path d="M26.657 36.0725H134.971" stroke="#263238" stroke-linecap="round" stroke-linejoin="round"/>
<path d="M26.657 44.3479H134.971" stroke="#263238" stroke-linecap="round" stroke-linejoin="round"/>
<path d="M26.657 52.615H134.971" stroke="#263238" stroke-linecap="round" stroke-linejoin="round"/>
<path d="M26.657 60.8904H134.971" stroke="#263238" stroke-linecap="round" stroke-linejoin="round"/>
<path d="M26.657 69.1653H134.971" stroke="#263238" stroke-linecap="round" stroke-linejoin="round"/>
<path d="M26.657 77.4407H134.971" stroke="#263238" stroke-linecap="round" stroke-linejoin="round"/>
<path d="M26.657 85.7161H134.971" stroke="#263238" stroke-linecap="round" stroke-linejoin="round"/>
<path d="M26.657 93.9832H134.971" stroke="#263238" stroke-linecap="round" stroke-linejoin="round"/>
<path d="M26.657 102.259H134.971" stroke="#263238" stroke-linecap="round" stroke-linejoin="round"/>
<path d="M26.657 110.533H134.971" stroke="#263238" stroke-linecap="round" stroke-linejoin="round"/>
<path d="M26.657 118.809H134.971" stroke="#263238" stroke-linecap="round" stroke-linejoin="round"/>
<path d="M26.657 127.084H134.971" stroke="#263238" stroke-linecap="round" stroke-linejoin="round"/>
<path d="M26.657 135.351H134.971" stroke="#263238" stroke-linecap="round" stroke-linejoin="round"/>
<path d="M26.657 143.626H134.971" stroke="#263238" stroke-linecap="round" stroke-linejoin="round"/>
<path d="M26.657 151.901H134.971" stroke="#263238" stroke-linecap="round" stroke-linejoin="round"/>
<path d="M26.657 160.177H134.971" stroke="#263238" stroke-linecap="round" stroke-linejoin="round"/>
<path d="M190.601 15.7725H188.342V122.677H190.601V15.7725Z" fill="#263238"/>
<path d="M194.506 15.7725H192.247V122.677H194.506V15.7725Z" fill="#263238"/>
<path d="M203.763 15.7725H201.504V113.036H203.763V15.7725Z" fill="#263238"/>
<path d="M225.156 15.7725H222.897V113.036H225.156V15.7725Z" fill="#263238"/>
<path d="M239.757 15.7725H237.498V113.036H239.757V15.7725Z" fill="#263238"/>
<path d="M255.185 15.7725H252.926V113.036H255.185V15.7725Z" fill="#263238"/>
<path d="M259.297 15.7725H257.038V122.677H259.297V15.7725Z" fill="#263238"/>
<path d="M263.409 15.7725H261.15V122.677H263.409V15.7725Z" fill="#263238"/>
<path d="M278.423 15.7725H276.164V113.036H278.423V15.7725Z" fill="#263238"/>
<path d="M294.058 15.7725H291.799V113.036H294.058V15.7725Z" fill="#263238"/>
<path d="M309.073 15.7725H306.814V113.036H309.073V15.7725Z" fill="#263238"/>
<path d="M313.399 15.7725H311.132V113.036H313.399V15.7725Z" fill="#263238"/>
<path d="M324.088 15.7725H321.829V113.036H324.088V15.7725Z" fill="#263238"/>
<path d="M328.613 15.7725H326.354V122.677H328.613V15.7725Z" fill="#263238"/>
<path d="M332.931 15.7725H330.672V122.677H332.931V15.7725Z" fill="#263238"/>
<path d="M209.521 15.7725H205.409V113.036H209.521V15.7725Z" fill="#263238"/>
<path d="M216.105 15.7725H211.994V113.036H216.105V15.7725Z" fill="#263238"/>
<path d="M235.439 15.7725H231.327V113.036H235.439V15.7725Z" fill="#263238"/>
<path d="M246.135 15.7725H242.023V113.036H246.135V15.7725Z" fill="#263238"/>
<path d="M272.053 15.7725H266.089V113.036H272.053V15.7725Z" fill="#263238"/>
<path d="M286.861 15.7725H280.896V113.036H286.861V15.7725Z" fill="#263238"/>
<path d="M302.289 15.7725H296.325V113.036H302.289V15.7725Z" fill="#263238"/>
<path d="M207.476 134.052C206.673 134.093 205.876 133.893 205.188 133.476C204.606 133.082 204.168 132.51 203.94 131.845C203.663 131.053 203.531 130.218 203.549 129.379C203.536 128.767 203.608 128.156 203.763 127.563C203.88 127.132 204.073 126.725 204.332 126.36C204.547 126.07 204.812 125.82 205.114 125.622C205.385 125.441 205.666 125.276 205.956 125.127C205.285 124.853 204.717 124.375 204.332 123.762C203.884 122.993 203.668 122.111 203.711 121.222C203.7 120.485 203.825 119.751 204.081 119.06C204.313 118.449 204.738 117.931 205.291 117.583C205.962 117.196 206.732 117.011 207.506 117.052C208.269 117.013 209.026 117.201 209.683 117.591C210.218 117.952 210.629 118.466 210.864 119.067C211.121 119.764 211.246 120.502 211.234 121.245C211.281 122.122 211.07 122.995 210.628 123.754C210.239 124.36 209.675 124.833 209.012 125.113C209.3 125.26 209.578 125.425 209.846 125.607C210.131 125.811 210.381 126.06 210.584 126.345C210.845 126.711 211.042 127.118 211.167 127.549C211.328 128.14 211.403 128.752 211.389 129.365C211.407 130.203 211.274 131.038 210.997 131.83C210.769 132.493 210.335 133.065 209.757 133.462C209.073 133.881 208.278 134.087 207.476 134.052ZM207.476 132.864C207.959 132.887 208.436 132.752 208.834 132.48C209.221 132.193 209.503 131.789 209.639 131.328C209.973 130.101 209.973 128.806 209.639 127.578C209.512 127.105 209.257 126.675 208.901 126.338C208.499 126 207.994 125.81 207.469 125.799C206.93 125.809 206.41 125.998 205.992 126.338C205.62 126.669 205.348 127.099 205.21 127.578C205.041 128.163 204.961 128.771 204.974 129.379C204.953 130.04 205.048 130.7 205.254 131.328C205.389 131.801 205.683 132.212 206.087 132.492C206.491 132.772 206.979 132.903 207.469 132.864H207.476ZM207.476 124.419C207.968 124.426 208.447 124.259 208.827 123.946C209.164 123.637 209.405 123.237 209.521 122.795C209.66 122.265 209.727 121.719 209.72 121.171C209.775 120.396 209.589 119.622 209.189 118.956C208.987 118.701 208.725 118.5 208.426 118.371C208.127 118.242 207.8 118.189 207.476 118.218C207.149 118.189 206.819 118.241 206.516 118.37C206.214 118.499 205.948 118.7 205.741 118.956C205.33 119.618 205.139 120.393 205.195 121.171C205.187 121.719 205.256 122.266 205.402 122.795C205.523 123.246 205.781 123.648 206.14 123.946C206.52 124.249 206.991 124.415 207.476 124.419V124.419Z" fill="#263238"/>
<path d="M219.848 134.052C219.125 134.077 218.407 133.931 217.752 133.624C217.195 133.342 216.748 132.882 216.482 132.317C216.181 131.639 216.03 130.904 216.039 130.162V129.859H217.516C217.448 130.647 217.626 131.436 218.025 132.118C218.432 132.486 218.944 132.717 219.489 132.781C220.034 132.844 220.585 132.736 221.066 132.472C221.444 132.196 221.717 131.801 221.841 131.35C222.04 130.657 222.13 129.938 222.107 129.217V126.072C221.834 126.365 221.502 126.596 221.133 126.751C220.594 126.968 220.016 127.072 219.435 127.054C218.678 127.099 217.924 126.917 217.272 126.53C216.719 126.138 216.324 125.563 216.157 124.906C215.915 123.984 215.806 123.032 215.833 122.079C215.813 121.169 215.948 120.263 216.231 119.399C216.462 118.694 216.908 118.079 217.508 117.642C218.187 117.194 218.991 116.974 219.804 117.015C220.591 116.974 221.37 117.195 222.019 117.642C222.607 118.094 223.038 118.719 223.251 119.429C223.533 120.331 223.665 121.274 223.643 122.219V128.863C223.659 129.774 223.534 130.683 223.274 131.557C223.073 132.272 222.661 132.91 222.092 133.388C221.445 133.865 220.651 134.1 219.848 134.052V134.052ZM219.789 125.88C220.301 125.904 220.809 125.795 221.266 125.563C221.588 125.397 221.88 125.177 222.129 124.913V122.057C222.15 121.311 222.07 120.566 221.893 119.842C221.808 119.367 221.55 118.94 221.168 118.645C220.785 118.351 220.307 118.209 219.826 118.247C219.348 118.23 218.876 118.362 218.475 118.624C218.087 118.916 217.802 119.325 217.663 119.79C217.469 120.431 217.38 121.099 217.398 121.769C217.387 122.532 217.438 123.295 217.553 124.05C217.611 124.565 217.846 125.045 218.217 125.408C218.667 125.749 219.225 125.917 219.789 125.88Z" fill="#263238"/>
<path d="M233.084 133.868V128.988H228.064V127.446L232.796 117.177H234.568V127.615H236.48V128.974H234.568V133.868H233.084ZM229.585 127.63H233.084V119.171L229.585 127.63Z" fill="#263238"/>
<path d="M241.3 133.868L244.555 118.366H239.506V117.155H246.098V117.893L242.762 133.868H241.3Z" fill="#263238"/>
<path d="M274.386 134.052C273.555 134.098 272.732 133.876 272.038 133.417C271.456 132.976 271.025 132.365 270.805 131.668C270.549 130.849 270.425 129.994 270.436 129.136V121.887C270.42 121.025 270.55 120.166 270.82 119.347C271.044 118.655 271.484 118.052 272.075 117.628C272.762 117.187 273.57 116.973 274.386 117.015C275.213 116.968 276.034 117.183 276.733 117.628C277.32 118.054 277.757 118.657 277.981 119.347C278.247 120.167 278.377 121.025 278.364 121.887V129.136C278.378 130.002 278.251 130.865 277.988 131.69C277.775 132.386 277.342 132.995 276.755 133.425C276.052 133.88 275.222 134.1 274.386 134.052V134.052ZM274.386 132.864C274.922 132.894 275.449 132.719 275.862 132.376C276.226 132.025 276.482 131.577 276.6 131.085C276.748 130.488 276.82 129.876 276.814 129.261V121.791C276.821 121.176 276.749 120.564 276.6 119.968C276.481 119.476 276.225 119.028 275.862 118.676C275.443 118.346 274.919 118.178 274.386 118.203C273.852 118.171 273.325 118.339 272.909 118.676C272.541 119.024 272.284 119.474 272.171 119.968C272.016 120.563 271.942 121.176 271.95 121.791V129.261C271.943 129.876 272.017 130.489 272.171 131.085C272.283 131.579 272.54 132.029 272.909 132.376C273.321 132.721 273.849 132.896 274.386 132.864Z" fill="#263238"/>
<path d="M287.09 134.052C286.259 134.099 285.436 133.877 284.742 133.417C284.158 132.978 283.726 132.366 283.509 131.668C283.249 130.849 283.125 129.994 283.14 129.136V121.887C283.126 121.025 283.253 120.167 283.517 119.347C283.74 118.655 284.18 118.052 284.772 117.627C285.484 117.226 286.287 117.015 287.104 117.015C287.922 117.015 288.725 117.226 289.437 117.627C290.022 118.055 290.457 118.657 290.677 119.347C290.947 120.166 291.077 121.025 291.061 121.887V129.136C291.074 130.001 290.949 130.863 290.692 131.69C290.476 132.385 290.044 132.992 289.459 133.425C288.755 133.878 287.926 134.098 287.09 134.052V134.052ZM287.09 132.864C287.626 132.895 288.154 132.721 288.566 132.376C288.933 132.027 289.189 131.578 289.304 131.085C289.458 130.489 289.533 129.876 289.526 129.261V121.791C289.534 121.176 289.459 120.563 289.304 119.967C289.191 119.473 288.935 119.024 288.566 118.676C288.133 118.373 287.618 118.211 287.09 118.211C286.562 118.211 286.046 118.373 285.613 118.676C285.248 119.026 284.991 119.475 284.875 119.967C284.727 120.564 284.655 121.176 284.661 121.791V129.261C284.656 129.876 284.727 130.488 284.875 131.085C284.988 131.579 285.245 132.028 285.613 132.376C286.024 132.723 286.553 132.898 287.09 132.864V132.864Z" fill="#263238"/>
<path d="M299.787 134.052C298.956 134.098 298.133 133.876 297.439 133.417C296.857 132.976 296.426 132.365 296.206 131.668C295.95 130.849 295.826 129.994 295.837 129.136V121.887C295.821 121.025 295.951 120.166 296.221 119.347C296.445 118.655 296.885 118.052 297.476 117.628C298.163 117.187 298.971 116.973 299.787 117.015C300.614 116.968 301.435 117.183 302.134 117.628C302.721 118.054 303.158 118.657 303.382 119.347C303.648 120.167 303.778 121.025 303.765 121.887V129.136C303.779 130.002 303.652 130.865 303.389 131.69C303.176 132.386 302.743 132.995 302.156 133.425C301.453 133.88 300.623 134.1 299.787 134.052V134.052ZM299.787 132.864C300.323 132.894 300.85 132.719 301.263 132.376C301.627 132.025 301.883 131.577 302.001 131.085C302.149 130.488 302.221 129.876 302.215 129.261V121.791C302.222 121.176 302.15 120.564 302.001 119.968C301.882 119.476 301.626 119.028 301.263 118.676C300.844 118.346 300.32 118.178 299.787 118.203C299.253 118.171 298.726 118.339 298.31 118.676C297.942 119.024 297.685 119.474 297.572 119.968C297.417 120.563 297.343 121.176 297.351 121.791V129.261C297.344 129.876 297.418 130.489 297.572 131.085C297.684 131.579 297.941 132.029 298.31 132.376C298.722 132.721 299.25 132.896 299.787 132.864Z" fill="#263238"/>
<path d="M309.302 133.868L312.55 118.403H307.508V117.192H314.093V117.93L310.764 133.868H309.302Z" fill="#263238"/>
<path d="M172.125 255.72H96.8147V324.106H172.125V255.72Z" fill="#7DC16D"/>
<path opacity="0.3" d="M172.125 255.72H96.8147V324.106H172.125V255.72Z" fill="#2B2D33" stroke="#263238" stroke-linecap="round" stroke-linejoin="round"/>
<path d="M172.125 255.72H96.8147V324.106H172.125V255.72Z" stroke="#263238" stroke-linecap="round" stroke-linejoin="round"/>
<path d="M150.488 255.72H96.8147V324.106H150.488V255.72Z" fill="#7DC16D" stroke="#263238" stroke-linecap="round" stroke-linejoin="round"/>
<path d="M129.088 255.72H117.558V274.81H129.088V255.72Z" fill="white" stroke="#263238" stroke-linecap="round" stroke-linejoin="round"/>
<path d="M145.409 280.391H132.041V287.212H145.409V280.391Z" fill="white"/>
<path d="M118.966 291.84L105.193 288.431L103.161 296.643L116.934 300.052L118.966 291.84Z" fill="white"/>
<path d="M231.357 255.72H156.047V324.106H231.357V255.72Z" fill="#7DC16D"/>
<path opacity="0.3" d="M231.357 255.72H156.047V324.106H231.357V255.72Z" fill="#2B2D33" stroke="#263238" stroke-linecap="round" stroke-linejoin="round"/>
<path d="M231.357 255.72H156.047V324.106H231.357V255.72Z" stroke="#263238" stroke-linecap="round" stroke-linejoin="round"/>
<path d="M209.72 255.72H156.047V324.106H209.72V255.72Z" fill="#7DC16D" stroke="#263238" stroke-linecap="round" stroke-linejoin="round"/>
<path d="M188.32 255.72H176.79V274.81H188.32V255.72Z" fill="white" stroke="#263238" stroke-linecap="round" stroke-linejoin="round"/>
<path d="M199.179 307.549H185.811V314.369H199.179V307.549Z" fill="white"/>
<path d="M178.192 291.842L164.419 288.434L162.387 296.646L176.159 300.054L178.192 291.842Z" fill="white"/>
<path d="M291.017 255.72H215.707V324.106H291.017V255.72Z" fill="#7DC16D"/>
<path opacity="0.3" d="M291.017 255.72H215.707V324.106H291.017V255.72Z" fill="#2B2D33" stroke="#263238" stroke-linecap="round" stroke-linejoin="round"/>
<path d="M291.017 255.72H215.707V324.106H291.017V255.72Z" stroke="#263238" stroke-linecap="round" stroke-linejoin="round"/>
<path d="M269.381 255.72H215.707V324.106H269.381V255.72Z" fill="#7DC16D" stroke="#263238" stroke-linecap="round" stroke-linejoin="round"/>
<path d="M247.973 255.72H236.443V274.81H247.973V255.72Z" fill="white" stroke="#263238" stroke-linecap="round" stroke-linejoin="round"/>
<path d="M264.819 285.97L255.171 276.716L250.45 281.638L260.097 290.893L264.819 285.97Z" fill="white"/>
<path d="M237.847 291.846L224.074 288.438L222.042 296.649L235.815 300.058L237.847 291.846Z" fill="white"/>
<path d="M202.885 187.659H127.575V256.045H202.885V187.659Z" fill="#7DC16D"/>
<path opacity="0.3" d="M202.885 187.659H127.575V256.045H202.885V187.659Z" fill="#2B2D33" stroke="#263238" stroke-linecap="round" stroke-linejoin="round"/>
<path d="M202.885 187.659H127.575V256.045H202.885V187.659Z" stroke="#263238" stroke-linecap="round" stroke-linejoin="round"/>
<path d="M181.249 187.659H127.575V256.045H181.249V187.659Z" fill="#7DC16D" stroke="#263238" stroke-linecap="round" stroke-linejoin="round"/>
<path d="M159.848 187.659H148.318V206.749H159.848V187.659Z" fill="white" stroke="#263238" stroke-linecap="round" stroke-linejoin="round"/>
<path d="M176.17 212.322H162.801V219.143H176.17V212.322Z" fill="white"/>
<path d="M174.53 234.61L160.758 231.202L158.726 239.414L172.498 242.822L174.53 234.61Z" fill="white"/>
<path d="M262.117 187.659H186.807V256.045H262.117V187.659Z" fill="#7DC16D"/>
<path opacity="0.3" d="M262.117 187.659H186.807V256.045H262.117V187.659Z" fill="#2B2D33" stroke="#263238" stroke-linecap="round" stroke-linejoin="round"/>
<path d="M262.117 187.659H186.807V256.045H262.117V187.659Z" stroke="#263238" stroke-linecap="round" stroke-linejoin="round"/>
<path d="M240.481 187.659H186.807V256.045H240.481V187.659Z" fill="#7DC16D" stroke="#263238" stroke-linecap="round" stroke-linejoin="round"/>
<path d="M219.081 187.659H207.55V206.749H219.081V187.659Z" fill="white" stroke="#263238" stroke-linecap="round" stroke-linejoin="round"/>
<path d="M225.356 213.312H211.987V220.133H225.356V213.312Z" fill="white"/>
<path d="M208.953 223.774L195.18 220.366L193.148 228.578L206.92 231.986L208.953 223.774Z" fill="white"/>
<path d="M61.4923 189.793C61.4923 189.793 65.0873 227.064 65.3088 232.224C65.5302 237.384 63.0942 240.078 63.0942 249.94C63.0942 259.803 65.5671 306.515 65.5671 306.515C65.5671 306.515 63.3526 319.537 62.4225 321.331C62.2507 321.635 62.1635 321.98 62.1701 322.329C62.1766 322.678 62.2767 323.02 62.4598 323.317C62.6429 323.615 62.9024 323.858 63.2113 324.022C63.5202 324.185 63.8672 324.263 64.2163 324.246H76.5366C76.5366 324.246 78.1089 321.781 77.6586 319.537C77.2084 317.293 75.4441 305.393 75.4441 305.393C75.4441 305.393 88.2369 241.171 88.9086 237.148C89.5804 233.125 95.198 195.396 95.198 195.396L94.5262 231.988C94.5262 231.988 92.9539 247.925 94.7477 259.374C96.5415 270.824 101.709 307.187 101.709 307.187L101.93 324.246H130.889C130.889 324.246 131.79 322.231 130.218 321.109C128.645 319.987 123.928 317.736 121.684 315.492C119.44 313.247 113.158 306.065 113.158 306.065C113.158 306.065 115.852 264.313 116.746 252.864C117.639 241.414 118.96 233.782 119.89 227.492C120.82 221.203 123.035 194.274 123.035 188.435C123.035 182.596 98.1138 179.229 98.1138 179.229L61.3004 183.046L61.4923 189.793Z" fill="#263238" stroke="#263238" stroke-linecap="round" stroke-linejoin="round"/>
<path d="M77.6437 319.552C77.2303 317.485 75.6727 307.253 75.4291 305.629H65.4858C65.4858 306.213 65.5374 306.53 65.5374 306.53C65.5374 306.53 63.3229 319.552 62.3927 321.345C62.2209 321.65 62.1338 321.994 62.1404 322.344C62.1469 322.693 62.247 323.035 62.4301 323.332C62.6132 323.63 62.8726 323.873 63.1815 324.036C63.4904 324.2 63.8375 324.277 64.1865 324.261H76.529C77.0678 323.37 77.4452 322.39 77.6437 321.368C77.7572 320.768 77.7572 320.152 77.6437 319.552V319.552ZM130.461 321.368C130.378 321.282 130.287 321.205 130.188 321.139C128.616 320.024 123.906 317.773 121.654 315.536C119.403 313.299 113.128 306.102 113.128 306.102V306.058L101.487 305.866C101.605 306.715 101.679 307.187 101.679 307.187L101.864 321.331L101.901 324.246H130.86C130.86 324.246 131.65 322.49 130.461 321.368Z" fill="white" stroke="#263238" stroke-linecap="round" stroke-linejoin="round"/>
<path d="M62.3927 321.367H77.6437C77.4454 322.398 77.0655 323.385 76.5217 324.283H64.1865C63.8375 324.299 63.4904 324.221 63.1815 324.058C62.8726 323.895 62.6132 323.652 62.4301 323.354C62.247 323.056 62.1469 322.715 62.1404 322.366C62.1338 322.016 62.2209 321.671 62.3927 321.367V321.367Z" fill="white" stroke="#263238" stroke-linecap="round" stroke-linejoin="round"/>
<path d="M130.859 324.262H101.9L101.863 321.346H130.461C131.649 322.49 130.859 324.262 130.859 324.262Z" fill="white" stroke="#263238" stroke-linecap="round" stroke-linejoin="round"/>
<path d="M121.292 118.647L127.98 128.022L143.534 134.606L139.245 145.273C139.245 145.273 125.581 144.779 123.492 143.878C122.258 143.36 121.112 142.653 120.096 141.781L120.2 118.248L121.292 118.647Z" fill="#263238" stroke="#263238" stroke-linecap="round" stroke-linejoin="round"/>
<path d="M187.303 132.359L147.803 117.292L126.768 172.434L166.268 187.501L187.303 132.359Z" fill="#7DC16D" stroke="#263238" stroke-linecap="round" stroke-linejoin="round"/>
<path d="M187.302 132.367L177.832 128.755L156.797 183.897L166.267 187.51L187.302 132.367Z" fill="#7DC16D"/>
<path opacity="0.3" d="M187.302 132.367L177.832 128.755L156.797 183.897L166.267 187.51L187.302 132.367Z" fill="#2B2D33" stroke="#263238" stroke-linecap="round" stroke-linejoin="round"/>
<path d="M187.302 132.367L177.832 128.755L156.797 183.897L166.267 187.51L187.302 132.367Z" stroke="#263238" stroke-linecap="round" stroke-linejoin="round"/>
<path d="M155.604 119.946C155.604 119.946 158.889 118.551 159.295 118.846C159.701 119.141 159.989 121.74 159.989 121.74L155.604 119.946Z" fill="white" stroke="#263238" stroke-linecap="round" stroke-linejoin="round"/>
<path d="M159.294 118.846C159.294 118.846 162.181 119.149 162.778 120.145C163.376 121.142 162.778 123.039 162.778 123.039L159.988 121.74L159.294 118.846Z" fill="white" stroke="#263238" stroke-linecap="round" stroke-linejoin="round"/>
<path d="M162.779 120.145C162.779 120.145 164.875 120.241 165.178 121.046C165.386 121.961 165.485 122.898 165.473 123.836L162.779 123.039C162.779 123.039 163.48 121.142 162.779 120.145Z" fill="white" stroke="#263238" stroke-linecap="round" stroke-linejoin="round"/>
<path d="M165.178 121.046C165.178 121.046 167.665 120.743 167.968 122.338C168.148 123.225 168.181 124.135 168.064 125.032L165.488 123.836C165.488 123.836 165.776 121.445 165.178 121.046Z" fill="white" stroke="#263238" stroke-linecap="round" stroke-linejoin="round"/>
<path d="M126.416 190.959C123.333 191.738 120.144 192.008 116.974 191.757C111.969 191.299 104.122 186.405 104.122 186.405C104.122 186.405 89.1076 191.867 77.8502 193.573C70.9136 194.554 63.8408 193.651 57.3729 190.959L58.8493 173.346L59.8237 161.668L60.7317 150.927L60.7833 150.248C60.7833 150.248 59.6244 145.59 58.2956 139.338C56.4723 130.819 54.3463 119.303 54.4128 112.49C54.5309 100.679 61.5806 96.9881 61.5806 96.9881L81.9398 88.2332C91.2557 87.8862 94.1051 90.8464 99.2281 91.8725C104.351 92.8985 119.698 99.9482 120.636 101.993C121.27 103.432 121.92 124.139 122.237 137.101C122.378 142.527 122.459 146.58 122.459 147.259C122.459 147.458 122.459 147.997 122.547 148.735C122.717 151.038 123.123 155.615 123.618 160.93C123.95 164.621 124.356 168.688 124.696 172.586C125.581 182.278 126.416 190.959 126.416 190.959Z" fill="#7DC16D" stroke="#263238" stroke-linecap="round" stroke-linejoin="round"/>
<path d="M60.7904 150.249C60.7904 150.249 59.6315 145.591 58.3027 139.338L122.215 137.124C122.355 142.549 122.436 146.602 122.436 147.281C122.436 147.48 122.436 148.019 122.525 148.757L60.7387 150.898L60.7904 150.249Z" fill="white" stroke="#263238" stroke-linecap="round" stroke-linejoin="round"/>
<path d="M124.673 172.637L58.8564 173.376L59.8309 161.697L123.595 161.011C123.928 164.68 124.312 168.74 124.673 172.637Z" fill="white" stroke="#263238" stroke-linecap="round" stroke-linejoin="round"/>
<path d="M103.251 137.936C103.251 137.936 105.045 167.795 103.473 184.405" stroke="#263238" stroke-linecap="round" stroke-linejoin="round"/>
<path d="M110.722 80.7556C110.722 80.7556 111.969 91.5553 112.198 92.5666C112.427 93.5779 110.035 94.043 105.938 93.5927L101.849 93.135C101.849 93.135 104.233 88.9273 104.919 87.7905C105.606 86.6537 110.722 80.7556 110.722 80.7556Z" fill="#263238" stroke="#263238" stroke-linecap="round" stroke-linejoin="round"/>
<path d="M100.712 93.1495C100.657 94.4065 100.734 95.6657 100.94 96.9069C101.28 99.2912 102.867 119.311 102.646 121.924C102.424 124.537 102.299 125.453 102.299 125.453C102.299 125.453 95.4778 109.072 90.7018 101.904C85.9257 94.7366 83.6521 91.3336 83.4232 90.7652C83.1944 90.1968 82.626 73.7869 82.626 73.7869C82.626 73.7869 85.5787 74.8129 86.9444 77.0866C88.31 79.3602 92.5177 84.1363 95.4778 87.4212C98.438 90.7061 100.712 93.1495 100.712 93.1495Z" fill="white" stroke="#263238" stroke-linecap="round" stroke-linejoin="round"/>
<path d="M92.2229 87.6284L99.28 99.2401L101.081 98.1623L101.849 93.15L90.4586 83.7234L92.2229 87.6284Z" fill="#263238" stroke="#263238" stroke-linecap="round" stroke-linejoin="round"/>
<path d="M97.1834 100.428C93.8025 101.107 85.6751 92.1974 83.2981 89.4883C83.3083 89.9165 83.3503 90.3433 83.4236 90.7653C83.6524 91.3337 85.926 94.7442 90.7021 101.905C95.4782 109.065 102.299 125.453 102.299 125.453C102.299 125.453 102.417 124.537 102.646 121.924C102.845 119.577 101.583 103.219 101.081 98.162C100.074 99.3346 98.7007 100.133 97.1834 100.428V100.428Z" fill="#263238" stroke="#263238" stroke-linecap="round" stroke-linejoin="round"/>
<path d="M113.335 66.6483C113.335 66.6483 111.969 74.6133 111.969 76.5474C111.969 78.4814 112.08 81.2053 109.238 85.1916C106.396 89.1778 104.004 93.2673 102.417 93.8357C101.299 94.1456 100.121 94.1729 98.9901 93.9152C97.8589 93.6575 96.8093 93.1229 95.9357 92.3594C93.7728 90.5434 88.3103 82.2388 87.6311 81.4416C87.1219 80.7773 86.7001 80.0504 86.3762 79.2787L84.7891 77.4627C84.7891 77.4627 81.6001 76.4366 81.8364 72.4578C81.852 71.3644 82.1412 70.2924 82.6776 69.3394C83.214 68.3865 83.9805 67.5832 84.9072 67.0026L89.9121 62.5735C97.2889 65.7604 105.315 67.1567 113.335 66.6483V66.6483Z" fill="white" stroke="#263238" stroke-linecap="round" stroke-linejoin="round"/>
<path d="M108.219 71.5425C108.219 71.5425 106.853 75.4106 106.853 75.7501C106.853 76.0897 108.101 82.4603 107.422 82.9179C106.743 83.3756 102.993 82.3422 102.993 82.3422" stroke="#263238" stroke-linecap="round" stroke-linejoin="round"/>
<path d="M97.2942 82.0027C97.2942 82.0027 100.025 85.8708 104.58 85.0735" stroke="#263238" stroke-linecap="round" stroke-linejoin="round"/>
<path d="M99.9294 75.2926C100.504 75.2926 100.97 74.5391 100.97 73.6096C100.97 72.68 100.504 71.9265 99.9294 71.9265C99.3546 71.9265 98.8885 72.68 98.8885 73.6096C98.8885 74.5391 99.3546 75.2926 99.9294 75.2926Z" fill="#263238"/>
<path d="M110.05 75.9501C110.625 75.9501 111.091 75.1966 111.091 74.2671C111.091 73.3375 110.625 72.584 110.05 72.584C109.475 72.584 109.009 73.3375 109.009 74.2671C109.009 75.1966 109.475 75.9501 110.05 75.9501Z" fill="#263238"/>
<path d="M98.2095 70.7458C98.8775 70.2249 99.6497 69.8537 100.474 69.6576C101.298 69.4614 102.154 69.4449 102.986 69.609" stroke="#263238" stroke-linecap="round" stroke-linejoin="round"/>
<path d="M109.385 70.1775C109.882 69.9883 110.421 69.9413 110.943 70.0417C111.464 70.1421 111.947 70.386 112.338 70.7459" stroke="#263238" stroke-linecap="round" stroke-linejoin="round"/>
<path d="M91.3815 65.2826C91.3815 65.2826 91.8391 68.132 90.8131 69.4976C89.9751 70.5133 89.0213 71.4275 87.971 72.2216C87.971 72.2216 86.037 68.8111 84.221 70.2875C82.4051 71.7639 82.8554 73.9268 83.3057 75.0636C83.6942 75.9203 84.1903 76.724 84.7821 77.4553L84.4425 91.3332C81.7359 91.1755 79.0399 90.87 76.3667 90.4179C73.8331 89.8306 71.4861 88.6203 69.5385 86.8967C69.4553 83.424 70.1147 79.9735 71.4725 76.7762C72.9411 73.3169 74.7304 70.0027 76.817 66.8771L78.1827 61.4219L91.3815 65.2826Z" fill="#263238" stroke="#263238" stroke-linecap="round" stroke-linejoin="round"/>
<path d="M74.3956 61.747C74.3956 61.747 94.2233 67.3794 96.1648 68.3907C98.1062 69.402 115.409 68.9739 117.934 67.6525C120.459 66.3312 116.376 62.9872 116.376 62.9872C116.376 62.9872 113.867 60.0787 113.675 59.1043C113.483 58.1299 114.081 48.2382 109.806 43.1816C105.532 38.125 94.0314 37.4164 88.997 38.4055C82.6264 39.6531 77.5108 44.5251 76.9276 46.6585C76.3444 48.7918 76.1673 57.4729 75.9532 58.0561C75.7391 58.6392 74.3956 61.747 74.3956 61.747Z" fill="white" stroke="#263238" stroke-linecap="round" stroke-linejoin="round"/>
<path d="M123.566 122.153C123.566 122.153 124.821 118.396 125.958 118.285C127.095 118.175 130.166 120.448 131.074 119.88C131.982 119.311 135.399 111.464 134.713 109.981C134.026 108.497 119.705 103.728 117.771 104.075C115.837 104.422 112.309 120.456 112.309 120.456L123.566 122.153Z" fill="#7DC16D" stroke="#263238" stroke-linecap="round" stroke-linejoin="round"/>
<path d="M131.989 108.356L127.907 118.92C129.147 119.503 130.52 120.226 131.074 119.879C131.989 119.311 135.399 111.464 134.713 109.98C134.543 109.611 133.488 109.021 131.989 108.356Z" fill="#263238" stroke="#263238" stroke-linecap="round" stroke-linejoin="round"/>
<path d="M113.814 120.67L118.502 104.09C118.257 104.056 118.009 104.056 117.764 104.09C115.83 104.429 112.301 120.47 112.301 120.47L113.814 120.67Z" fill="#263238" stroke="#263238" stroke-linecap="round" stroke-linejoin="round"/>
<path d="M100.483 128.406C100.483 128.406 112.338 119.104 112.648 119.104C112.958 119.104 124.363 120.699 124.821 122.175C125.13 123.135 125.13 124.168 124.821 125.128C124.71 125.475 123.684 125.925 123.345 126.154C123.005 126.383 121.639 131.617 120.274 132.864C118.908 134.112 118.222 134.459 115.948 134.119C114.09 133.708 112.294 133.058 110.603 132.185L103.222 134.909L100.483 128.406Z" fill="white" stroke="#263238" stroke-linecap="round" stroke-linejoin="round"/>
<path d="M76.0269 134.319C76.0269 134.319 67.8404 103.16 65.456 100.318C63.0717 97.4757 60.9014 96.6784 56.4649 102.362C52.0284 108.047 54.3094 121.245 57.0333 134.547C59.7572 147.85 64.6588 155.475 66.1352 155.364C67.6115 155.254 104.004 136.171 104.004 136.171L101.051 127.638L76.0269 134.319Z" fill="#263238" stroke="#263238" stroke-linecap="round" stroke-linejoin="round"/>
<path d="M75.1188 134.887C73.8527 135.147 72.6539 135.666 71.5972 136.41C70.5405 137.154 69.6486 138.108 68.9771 139.213" stroke="white" stroke-linecap="round" stroke-linejoin="round"/>
<path d="M69.6637 135.455C69.6637 135.455 68.6376 136.37 67.3827 140.46" stroke="white" stroke-linecap="round" stroke-linejoin="round"/>
<path d="M45.3696 374.576C48.8311 374.576 50.9561 372.135 50.9561 368.301V368.284C50.9561 364.441 48.8145 362.017 45.3696 362.017C41.9331 362.017 39.7749 364.432 39.7749 368.284V368.301C39.7749 372.144 41.8833 374.576 45.3696 374.576ZM45.3696 372.932C43.062 372.932 41.6758 371.106 41.6758 368.301V368.284C41.6758 365.453 43.1035 363.66 45.3696 363.66C47.6357 363.66 49.0552 365.453 49.0552 368.284V368.301C49.0552 371.106 47.644 372.932 45.3696 372.932ZM63.3906 374.285V362.307H53.6455V374.285H55.5049V363.909H61.5312V374.285H63.3906ZM69.5996 374.285H71.459V363.909H75.2192V362.307H65.8311V363.909H69.5996V374.285ZM76.3066 374.377C78.5562 374.377 79.3696 372.617 79.5439 369.712L79.8926 363.909H84.0845V374.285H85.9438V362.307H78.2158L77.8091 369.62C77.7095 371.388 77.4106 372.692 76.0991 372.692C75.9414 372.692 75.7173 372.667 75.6177 372.642V374.285C75.7588 374.335 76.0244 374.377 76.3066 374.377ZM88.2017 374.285H90.1523L91.2397 371.048H95.8218L96.9009 374.285H98.8599L94.5352 362.307H92.5264L88.2017 374.285ZM93.4561 364.407H93.5972L95.3237 369.554H91.7378L93.4561 364.407ZM101.109 374.285H106.032C108.588 374.285 110.124 373.007 110.124 370.907V370.89C110.124 369.33 109.045 368.184 107.426 368.01V367.869C108.605 367.67 109.526 366.549 109.526 365.304V365.287C109.526 363.453 108.173 362.307 105.924 362.307H101.109V374.285ZM105.492 363.826C106.87 363.826 107.675 364.482 107.675 365.611V365.628C107.675 366.79 106.82 367.404 105.177 367.404H102.969V363.826H105.492ZM105.55 368.823C107.302 368.823 108.223 369.488 108.223 370.774V370.791C108.223 372.077 107.335 372.766 105.658 372.766H102.969V368.823H105.55Z" fill="#5DB248"/>
<path d="M117.097 370.135H122.675V368.79H117.097V370.135ZM133.233 374.451C135.74 374.451 137.384 372.634 137.384 369.786V369.77C137.384 366.981 135.749 365.171 133.242 365.171C131.117 365.171 129.78 366.4 129.49 367.944L129.465 368.076H130.909L130.942 367.969C131.2 367.13 131.988 366.449 133.242 366.449C134.645 366.449 135.69 367.454 135.865 369.064H131.731V370.26H135.89C135.765 372.011 134.736 373.173 133.242 373.173C132.046 373.173 131.208 372.625 130.926 371.637L130.909 371.579H129.465L129.473 371.629C129.747 373.248 131.092 374.451 133.233 374.451ZM145.676 365.337H138.438V366.532H141.335V374.285H142.779V366.532H145.676V365.337ZM151.113 374.443C153.662 374.443 155.239 372.683 155.239 369.82V369.803C155.239 366.931 153.662 365.179 151.113 365.179C148.565 365.179 146.988 366.931 146.988 369.803V369.82C146.988 372.683 148.565 374.443 151.113 374.443ZM151.113 373.165C149.42 373.165 148.465 371.928 148.465 369.82V369.803C148.465 367.686 149.42 366.458 151.113 366.458C152.807 366.458 153.761 367.686 153.761 369.803V369.82C153.761 371.928 152.807 373.165 151.113 373.165ZM163.863 374.285V367.919H164.021L166.835 374.036H167.947L170.77 367.919H170.927V374.285H172.372V365.337H170.695L167.491 372.277H167.358L164.17 365.337H162.419V374.285H163.863ZM177.684 374.443C178.888 374.443 179.826 373.92 180.39 372.966H180.523V374.285H181.967V368.159C181.967 366.3 180.747 365.179 178.564 365.179C176.655 365.179 175.293 366.126 175.061 367.529L175.053 367.578H176.497L176.505 367.553C176.738 366.856 177.443 366.458 178.514 366.458C179.851 366.458 180.523 367.055 180.523 368.159V368.973L177.958 369.131C175.875 369.255 174.696 370.177 174.696 371.77V371.787C174.696 373.414 175.982 374.443 177.684 374.443ZM176.173 371.754V371.737C176.173 370.849 176.771 370.367 178.132 370.284L180.523 370.135V370.948C180.523 372.227 179.452 373.19 177.983 373.19C176.945 373.19 176.173 372.658 176.173 371.754ZM184.773 377.274H186.217V372.874H186.35C186.84 373.829 187.911 374.443 189.139 374.443C191.414 374.443 192.891 372.625 192.891 369.82V369.803C192.891 367.014 191.405 365.179 189.139 365.179C187.894 365.179 186.898 365.769 186.35 366.765H186.217V365.337H184.773V377.274ZM188.807 373.165C187.18 373.165 186.184 371.886 186.184 369.82V369.803C186.184 367.736 187.18 366.458 188.807 366.458C190.442 366.458 191.414 367.719 191.414 369.803V369.82C191.414 371.903 190.442 373.165 188.807 373.165ZM197.208 370.21L200.71 374.285H202.562L198.378 369.554L202.404 365.337H200.669L197.208 369.081H196.751V365.337H195.307V374.285H196.751V370.21H197.208ZM207.799 374.443C209.908 374.443 211.186 373.248 211.493 372.036L211.51 371.969H210.065L210.032 372.044C209.792 372.584 209.044 373.156 207.833 373.156C206.239 373.156 205.218 372.077 205.176 370.226H211.618V369.662C211.618 366.989 210.14 365.179 207.708 365.179C205.276 365.179 203.699 367.072 203.699 369.836V369.844C203.699 372.65 205.243 374.443 207.799 374.443ZM207.7 366.466C209.02 366.466 209.999 367.304 210.148 369.073H205.201C205.359 367.371 206.372 366.466 207.7 366.466ZM219.835 365.337H212.597V366.532H215.494V374.285H216.938V366.532H219.835V365.337ZM221.919 374.285H223.363V366.532H227.713V374.285H229.157V365.337H221.919V374.285ZM234.096 370.782L234.428 366.532H237.541V374.285H238.985V365.337H233.133L232.751 370.666C232.66 371.994 232.328 373.032 231.506 373.032C231.291 373.032 231.066 372.999 230.992 372.974V374.277C231.108 374.319 231.34 374.368 231.647 374.368C233.142 374.368 233.905 373.248 234.096 370.782ZM245.485 374.443C247.593 374.443 248.872 373.248 249.179 372.036L249.195 371.969H247.751L247.718 372.044C247.477 372.584 246.73 373.156 245.518 373.156C243.924 373.156 242.903 372.077 242.862 370.226H249.303V369.662C249.303 366.989 247.826 365.179 245.394 365.179C242.961 365.179 241.384 367.072 241.384 369.836V369.844C241.384 372.65 242.928 374.443 245.485 374.443ZM245.385 366.466C246.705 366.466 247.685 367.304 247.834 369.073H242.887C243.044 367.371 244.057 366.466 245.385 366.466ZM255.429 364.092C257.139 364.092 258.276 362.913 258.276 361.369H256.981C256.981 362.274 256.409 363.113 255.429 363.113C254.466 363.113 253.877 362.274 253.877 361.369H252.582C252.582 362.913 253.719 364.092 255.429 364.092ZM251.702 374.285H253.146L257.571 367.612H257.704V374.285H259.148V365.337H257.704L253.279 372.011H253.146V365.337H251.702V374.285ZM265.664 374.443C267.814 374.443 269.018 373.289 269.383 371.671L269.399 371.579L267.972 371.588L267.955 371.637C267.623 372.634 266.859 373.165 265.656 373.165C264.062 373.165 263.033 371.845 263.033 369.786V369.77C263.033 367.753 264.045 366.458 265.656 366.458C266.942 366.458 267.739 367.172 267.963 368.052L267.972 368.076H269.408L269.399 368.027C269.134 366.433 267.831 365.179 265.656 365.179C263.149 365.179 261.555 366.989 261.555 369.77V369.786C261.555 372.625 263.157 374.443 265.664 374.443ZM276.663 376.651V374.285H283.66V376.651H285.005V373.09H283.577V365.337H277.476L277.127 370.326C277.044 371.53 276.721 372.658 276.065 373.09H275.318V376.651H276.663ZM282.133 373.09H277.733V372.957C278.157 372.401 278.389 371.447 278.472 370.359L278.754 366.532H282.133V373.09ZM288.981 370.782L289.313 366.532H292.426V374.285H293.87V365.337H288.018L287.636 370.666C287.545 371.994 287.213 373.032 286.391 373.032C286.175 373.032 285.951 372.999 285.876 372.974V374.277C285.993 374.319 286.225 374.368 286.532 374.368C288.026 374.368 288.79 373.248 288.981 370.782ZM301.457 374.285H302.901V365.337H299.789C297.738 365.337 296.427 366.458 296.427 368.292V368.309C296.427 369.529 297.19 370.459 298.452 370.816L295.954 374.285H297.655L299.938 371.081H301.457V374.285ZM299.789 369.886C298.618 369.886 297.904 369.214 297.904 368.276V368.259C297.904 367.18 298.61 366.532 299.789 366.532H301.457V369.886H299.789ZM65.1338 398.443C67.2837 398.443 68.4873 397.289 68.8525 395.671L68.8691 395.579L67.4414 395.588L67.4248 395.637C67.0928 396.634 66.3291 397.165 65.1255 397.165C63.5317 397.165 62.5024 395.845 62.5024 393.786V393.77C62.5024 391.753 63.5151 390.458 65.1255 390.458C66.4121 390.458 67.209 391.172 67.4331 392.052L67.4414 392.076H68.8774L68.8691 392.027C68.6035 390.433 67.3003 389.179 65.1255 389.179C62.6187 389.179 61.0249 390.989 61.0249 393.77V393.786C61.0249 396.625 62.627 398.443 65.1338 398.443ZM74.8291 398.443C77.3774 398.443 78.9546 396.683 78.9546 393.82V393.803C78.9546 390.931 77.3774 389.179 74.8291 389.179C72.2808 389.179 70.7036 390.931 70.7036 393.803V393.82C70.7036 396.683 72.2808 398.443 74.8291 398.443ZM74.8291 397.165C73.1357 397.165 72.1812 395.928 72.1812 393.82V393.803C72.1812 391.686 73.1357 390.458 74.8291 390.458C76.5225 390.458 77.4771 391.686 77.4771 393.803V393.82C77.4771 395.928 76.5225 397.165 74.8291 397.165ZM81.3535 398.285H85.1636C87.0894 398.285 88.2266 397.273 88.2266 395.72V395.704C88.2266 394.666 87.5044 393.869 86.3672 393.712V393.579C87.2056 393.405 87.8281 392.566 87.8281 391.678V391.661C87.8281 390.259 86.8403 389.337 85.147 389.337H81.3535V398.285ZM82.7979 393.122V390.532H84.9395C85.9438 390.532 86.3921 391.047 86.3921 391.811V391.827C86.3921 392.674 85.8691 393.122 84.707 393.122H82.7979ZM82.7979 397.09V394.318H84.8315C86.1182 394.318 86.7573 394.733 86.7573 395.679V395.696C86.7573 396.592 86.2012 397.09 85.1055 397.09H82.7979ZM94.2446 398.443C96.353 398.443 97.6313 397.248 97.9385 396.036L97.9551 395.969H96.5107L96.4775 396.044C96.2368 396.584 95.4897 397.156 94.2778 397.156C92.6841 397.156 91.6631 396.077 91.6216 394.226H98.063V393.662C98.063 390.989 96.5854 389.179 94.1533 389.179C91.7212 389.179 90.144 391.072 90.144 393.836V393.844C90.144 396.65 91.688 398.443 94.2446 398.443ZM94.145 390.466C95.4648 390.466 96.4443 391.304 96.5938 393.073H91.6465C91.8042 391.371 92.8169 390.466 94.145 390.466ZM100.47 401.274H101.915V396.874H102.047C102.537 397.829 103.608 398.443 104.836 398.443C107.111 398.443 108.588 396.625 108.588 393.82V393.803C108.588 391.014 107.103 389.179 104.836 389.179C103.591 389.179 102.595 389.769 102.047 390.765H101.915V389.337H100.47V401.274ZM104.504 397.165C102.877 397.165 101.881 395.886 101.881 393.82V393.803C101.881 391.736 102.877 390.458 104.504 390.458C106.14 390.458 107.111 391.719 107.111 393.803V393.82C107.111 395.903 106.14 397.165 104.504 397.165ZM111.004 398.285H122.061V389.337H120.616V397.09H117.254V389.337H115.81V397.09H112.448V389.337H111.004V398.285ZM128.56 398.443C130.668 398.443 131.947 397.248 132.254 396.036L132.271 395.969H130.826L130.793 396.044C130.552 396.584 129.805 397.156 128.593 397.156C127 397.156 125.979 396.077 125.937 394.226H132.378V393.662C132.378 390.989 130.901 389.179 128.469 389.179C126.037 389.179 124.459 391.072 124.459 393.836V393.844C124.459 396.65 126.003 398.443 128.56 398.443ZM128.46 390.466C129.78 390.466 130.76 391.304 130.909 393.073H125.962C126.12 391.371 127.132 390.466 128.46 390.466ZM140.654 398.285H142.099V389.337H140.654V393.039H136.222V389.337H134.777V398.285H136.222V394.235H140.654V398.285ZM144.938 398.285H146.382L150.806 391.612H150.939V398.285H152.383V389.337H150.939L146.515 396.011H146.382V389.337H144.938V398.285ZM159.979 398.285H161.423V389.337H158.31C156.26 389.337 154.948 390.458 154.948 392.292V392.309C154.948 393.529 155.712 394.459 156.974 394.816L154.475 398.285H156.177L158.459 395.081H159.979V398.285ZM158.31 393.886C157.14 393.886 156.426 393.214 156.426 392.276V392.259C156.426 391.18 157.131 390.532 158.31 390.532H159.979V393.886H158.31ZM172.712 398.443C174.862 398.443 176.065 397.289 176.431 395.671L176.447 395.579L175.02 395.588L175.003 395.637C174.671 396.634 173.907 397.165 172.704 397.165C171.11 397.165 170.081 395.845 170.081 393.786V393.77C170.081 391.753 171.093 390.458 172.704 390.458C173.99 390.458 174.787 391.172 175.011 392.052L175.02 392.076H176.456L176.447 392.027C176.182 390.433 174.878 389.179 172.704 389.179C170.197 389.179 168.603 390.989 168.603 393.77V393.786C168.603 396.625 170.205 398.443 172.712 398.443ZM178.929 400.651V398.285H185.927V400.651H187.271V397.09H185.844V389.337H179.743L179.394 394.326C179.311 395.53 178.987 396.658 178.332 397.09H177.584V400.651H178.929ZM184.399 397.09H180V396.957C180.423 396.401 180.656 395.447 180.739 394.359L181.021 390.532H184.399V397.09ZM192.808 398.443C194.917 398.443 196.195 397.248 196.502 396.036L196.519 395.969H195.074L195.041 396.044C194.8 396.584 194.053 397.156 192.841 397.156C191.248 397.156 190.227 396.077 190.185 394.226H196.626V393.662C196.626 390.989 195.149 389.179 192.717 389.179C190.285 389.179 188.708 391.072 188.708 393.836V393.844C188.708 396.65 190.251 398.443 192.808 398.443ZM192.708 390.466C194.028 390.466 195.008 391.304 195.157 393.073H190.21C190.368 391.371 191.38 390.466 192.708 390.466ZM200.876 394.782L201.208 390.532H204.321V398.285H205.766V389.337H199.914L199.532 394.666C199.44 395.994 199.108 397.032 198.287 397.032C198.071 397.032 197.847 396.999 197.772 396.974V398.277C197.888 398.319 198.121 398.368 198.428 398.368C199.922 398.368 200.686 397.248 200.876 394.782ZM212.29 398.443C214.838 398.443 216.416 396.683 216.416 393.82V393.803C216.416 390.931 214.838 389.179 212.29 389.179C209.742 389.179 208.165 390.931 208.165 393.803V393.82C208.165 396.683 209.742 398.443 212.29 398.443ZM212.29 397.165C210.597 397.165 209.642 395.928 209.642 393.82V393.803C209.642 391.686 210.597 390.458 212.29 390.458C213.983 390.458 214.938 391.686 214.938 393.803V393.82C214.938 395.928 213.983 397.165 212.29 397.165ZM220.715 394.21L224.218 398.285H226.069L221.886 393.554L225.912 389.337H224.177L220.715 393.081H220.259V389.337H218.814V398.285H220.259V394.21H220.715ZM236.528 398.443C239.077 398.443 240.654 396.683 240.654 393.82V393.803C240.654 390.931 239.077 389.179 236.528 389.179C233.98 389.179 232.403 390.931 232.403 393.803V393.82C232.403 396.683 233.98 398.443 236.528 398.443ZM236.528 397.165C234.835 397.165 233.88 395.928 233.88 393.82V393.803C233.88 391.686 234.835 390.458 236.528 390.458C238.222 390.458 239.176 391.686 239.176 393.803V393.82C239.176 395.928 238.222 397.165 236.528 397.165ZM243.053 398.285H244.497V390.532H248.847V398.285H250.291V389.337H243.053V398.285ZM259.613 389.337H252.375V390.532H255.271V398.285H256.716V390.532H259.613V389.337ZM265.05 398.443C267.598 398.443 269.175 396.683 269.175 393.82V393.803C269.175 390.931 267.598 389.179 265.05 389.179C262.501 389.179 260.924 390.931 260.924 393.803V393.82C260.924 396.683 262.501 398.443 265.05 398.443ZM265.05 397.165C263.356 397.165 262.402 395.928 262.402 393.82V393.803C262.402 391.686 263.356 390.458 265.05 390.458C266.743 390.458 267.698 391.686 267.698 393.803V393.82C267.698 395.928 266.743 397.165 265.05 397.165ZM273.019 398.285V391.919H273.176L275.99 398.036H277.103L279.925 391.919H280.083V398.285H281.527V389.337H279.85L276.646 396.277H276.513L273.326 389.337H271.574V398.285H273.019Z" fill="#2B2D33"/>
<path d="M139.5 476.285C141.709 476.285 143.5 474.495 143.5 472.285C143.5 470.076 141.709 468.285 139.5 468.285C137.291 468.285 135.5 470.076 135.5 472.285C135.5 474.495 137.291 476.285 139.5 476.285Z" fill="#5DB248"/>
<path d="M171.5 476.285C173.709 476.285 175.5 474.495 175.5 472.285C175.5 470.076 173.709 468.285 171.5 468.285C169.291 468.285 167.5 470.076 167.5 472.285C167.5 474.495 169.291 476.285 171.5 476.285Z" fill="#E9EAEA"/>
<path d="M203.5 476.285C205.709 476.285 207.5 474.495 207.5 472.285C207.5 470.076 205.709 468.285 203.5 468.285C201.291 468.285 199.5 470.076 199.5 472.285C199.5 474.495 201.291 476.285 203.5 476.285Z" fill="#E9EAEA"/>
</svg>
