<svg width="344" height="478" viewBox="0 0 344 478" fill="none" xmlns="http://www.w3.org/2000/svg">
<path d="M266.099 195.463V195.407C259.118 192.888 248.409 193.744 246.818 194.775C245.126 196.006 243.673 197.585 242.541 199.423C238.781 205.219 236.086 211.749 234.602 218.654L158.685 226.323C155.887 219.76 151.67 213.877 147.436 210.326C146.226 209.225 144.832 208.389 143.33 207.863C142.669 207.777 142 207.802 141.345 207.937C138.591 199.265 134.69 190.899 129.815 190.369C119.55 189.254 101.637 192.991 96.7529 203.81C91.8685 214.629 90.3373 241.641 90.3373 241.641L86.9156 245.359C84.42 240.076 80.949 235.409 76.7191 231.649C75.5133 230.541 74.1179 229.704 72.6132 229.185C71.7578 228.925 68.3361 229.501 64.7519 230.775C64.6065 230.626 64.4696 230.477 64.3157 230.338C60.894 227.224 53.8797 225.523 49.9619 233.461C46.0441 241.399 50.7489 256.429 53.0927 259.831C54.231 261.569 55.6584 263.06 57.3013 264.228C60.0643 271.664 65 281.144 72.5961 281.581C75.1979 281.734 77.7994 281.276 80.2243 280.24C82.6492 279.204 84.8407 277.614 86.6505 275.577C91.5776 270 92.108 262.164 90.2517 254.496L91.0473 253.232C91.0473 253.232 92.818 255.974 99.6014 254.868C101.568 254.647 103.432 253.807 104.965 252.451C108.147 261.272 113.288 270.111 121.457 271.431C124.963 272.014 128.544 271.77 131.955 270.714C135.366 269.659 138.528 267.817 141.226 265.315C142.794 263.844 144.162 262.138 145.289 260.249C149.863 259.975 154.172 257.83 157.35 254.245C160.194 250.949 161.82 246.631 161.918 242.115L172.02 240.832C178.362 243.906 185.281 245.313 192.217 244.94C198.858 244.477 205.145 241.52 210.001 236.575L233.02 234.437C233.405 244.132 236.613 253.027 244.14 257.926C247.022 259.795 250.243 260.963 253.58 261.35C256.918 261.736 260.293 261.332 263.473 260.166C274.088 256.299 276.603 239.159 277.287 228.739C278.348 212.008 273.438 197.833 266.099 195.463Z" fill="#263238" stroke="#263238" stroke-width="0.75" stroke-linecap="round" stroke-linejoin="round"/>
<path d="M125.555 266.05C124.672 267.277 123.546 268.271 122.261 268.96" stroke="white" stroke-width="0.5" stroke-linecap="round" stroke-linejoin="round"/>
<path d="M129.703 244.021C129.703 244.021 130.721 256.104 126.931 263.772" stroke="white" stroke-width="0.5" stroke-linecap="round" stroke-linejoin="round"/>
<path d="M132.705 257.367C131.739 262.014 129.814 266.523 126.084 268.521" stroke="white" stroke-width="0.5" stroke-linecap="round" stroke-linejoin="round"/>
<path d="M137.351 243.1C137.351 243.1 139.062 263.186 129.917 268.038" stroke="white" stroke-width="0.5" stroke-linecap="round" stroke-linejoin="round"/>
<path d="M141.183 242.636C141.183 242.636 142.894 262.732 133.741 267.575" stroke="white" stroke-width="0.5" stroke-linecap="round" stroke-linejoin="round"/>
<path d="M256.587 256.716C255.603 258.065 254.382 259.187 252.994 260.016" stroke="white" stroke-width="0.5" stroke-linecap="round" stroke-linejoin="round"/>
<path d="M263.464 231.63C263.464 231.63 262.916 245.378 258.22 254.124" stroke="white" stroke-width="0.5" stroke-linecap="round" stroke-linejoin="round"/>
<path d="M264.687 246.855C263.147 252.144 260.684 257.275 256.792 259.505" stroke="white" stroke-width="0.5" stroke-linecap="round" stroke-linejoin="round"/>
<path d="M271.06 230.607C271.06 230.607 270.145 253.51 260.59 258.994" stroke="white" stroke-width="0.5" stroke-linecap="round" stroke-linejoin="round"/>
<path d="M274.875 230.106C274.875 230.106 273.959 253 264.404 258.493" stroke="white" stroke-width="0.5" stroke-linecap="round" stroke-linejoin="round"/>
<path d="M75.0085 278.476C74.2806 279.688 73.3206 280.715 72.1942 281.488" stroke="white" stroke-width="0.5" stroke-linecap="round" stroke-linejoin="round"/>
<path d="M76.3599 258.929C76.3599 258.929 78.7722 269.153 76.052 276.301" stroke="white" stroke-width="0.5" stroke-linecap="round" stroke-linejoin="round"/>
<path d="M80.8335 269.906C80.4486 274.043 79.1227 278.207 75.8123 280.494" stroke="white" stroke-width="0.5" stroke-linecap="round" stroke-linejoin="round"/>
<path d="M83.5798 256.94C83.5798 256.94 87.6002 273.903 79.4225 279.49" stroke="white" stroke-width="0.5" stroke-linecap="round" stroke-linejoin="round"/>
<path d="M87.1894 255.937C87.1894 255.937 91.2184 272.901 83.0321 278.496" stroke="white" stroke-width="0.5" stroke-linecap="round" stroke-linejoin="round"/>
<path d="M116.675 237.132C118.711 249.782 117.436 260.602 113.844 261.299C110.251 261.996 105.674 252.273 103.638 239.623C101.603 226.972 102.877 216.153 106.478 215.456C110.08 214.759 114.639 224.472 116.675 237.132Z" fill="#7DC16D" stroke="#263238" stroke-linecap="round" stroke-linejoin="round"/>
<path d="M114.862 237.402C115.426 242.254 114.904 246.315 113.681 246.483C112.458 246.65 111.021 242.858 110.456 238.006C109.892 233.154 110.456 229.083 111.637 228.915C112.817 228.748 114.297 232.55 114.862 237.402Z" fill="#7DC16D" stroke="#263238" stroke-linecap="round" stroke-linejoin="round"/>
<path d="M106.282 225.801C106.404 224.173 106.641 222.557 106.992 220.968" stroke="#263238" stroke-width="0.75" stroke-linecap="round" stroke-linejoin="round"/>
<path d="M111.953 256.736C109.586 251.585 107.893 246.101 106.923 240.442C106.279 236.438 106.018 232.373 106.145 228.312" stroke="#263238" stroke-width="0.75" stroke-linecap="round" stroke-linejoin="round"/>
<path d="M66.3326 274.729C68.9186 273.95 69.1339 265.944 66.8136 256.846C64.4933 247.748 60.516 241.005 57.9301 241.783C55.3441 242.562 55.1288 250.568 57.4491 259.666C59.7694 268.764 63.7467 275.507 66.3326 274.729Z" fill="#7DC16D" stroke="#263238" stroke-linecap="round" stroke-linejoin="round"/>
<path d="M65.9667 257.211C66.7794 260.668 66.7366 263.661 65.8641 263.903C64.9916 264.145 63.64 261.533 62.8274 258.084C62.0148 254.636 62.0575 251.624 62.93 251.392C63.8026 251.16 65.1541 253.753 65.9667 257.211Z" stroke="#263238" stroke-width="0.75" stroke-linecap="round" stroke-linejoin="round"/>
<path d="M58.7981 249.653C58.7504 248.461 58.7875 247.268 58.9093 246.083" stroke="#263238" stroke-width="0.75" stroke-linecap="round" stroke-linejoin="round"/>
<path d="M65.4613 271.486C63.3223 267.99 61.6437 264.185 60.4742 260.184C59.6749 257.35 59.1474 254.435 58.9003 251.483" stroke="#263238" stroke-width="0.75" stroke-linecap="round" stroke-linejoin="round"/>
<path d="M249.7 101.583C240.684 81.3664 236.792 79.6096 230.795 79.275C224.799 78.9404 210.642 77.0256 194.868 79.7676C194.868 79.7676 150.866 78.9311 116.82 101.341C81.2781 124.737 63.9816 145.288 61.5608 155.94C59.14 166.592 50.8767 194.347 46.959 210.26C43.0412 226.173 40.3723 240.19 45.3679 253.073C48.3875 260.862 51.6038 263.205 55.7355 263.167C55.1034 261.935 54.5461 260.659 54.0674 259.347C49.9615 248.295 50.4576 232.485 55.1452 231.462C59.8329 230.44 62.6301 241.027 65.4615 252.571C66.0235 255.116 66.7848 257.603 67.7369 260.007C74.7427 257.135 85.9657 250.712 100.884 244.038C99.4678 233.899 99.4361 223.588 100.79 213.439C102.997 197.573 112.329 194.068 116.393 203.726C119.754 211.682 121.003 229.492 121.337 235.496C127.325 233.256 132.338 231.778 135.426 231.574C135.426 231.574 186.477 219.044 224.106 218.04C261.736 217.036 280.563 216.06 280.563 216.06C280.563 216.06 258.716 121.762 249.7 101.583Z" fill="white"/>
<path d="M129.395 199.125C129.395 199.125 124.219 206.821 117.924 208.466C120.148 217.334 121.063 230.458 121.345 235.422C126.692 233.424 131.234 232.02 134.347 231.611C134.801 228.711 135.075 226.861 135.075 226.861L129.395 199.125Z" fill="#7DC16D"/>
<path opacity="0.2" d="M65.6842 253.408C68.0622 253.668 69.6447 254.784 74.4778 253.473C83.0319 251.159 76.8815 233.219 91.0728 225.895C93.8276 224.385 96.8254 223.47 99.9006 223.199C100.028 219.917 100.314 216.643 100.756 213.393C101.133 210.201 102 207.099 103.322 204.219C99.4472 202.927 98.7458 201.691 92.142 205.102C77.9422 212.426 80.0722 231.323 71.5609 233.638C64.7689 235.497 64.3925 232.532 59.2344 233.907C61.6466 237.625 63.5114 244.866 65.3933 252.497C65.5388 252.841 65.6072 253.092 65.6842 253.408Z" fill="#7DC16D"/>
<g style="mix-blend-mode:multiply">
<g style="mix-blend-mode:multiply" opacity="0.2">
<path d="M51.7158 237.523C47.7381 240.498 45.3686 244.959 44.0171 248.724C44.3837 250.209 44.8351 251.668 45.3686 253.093C48.3882 260.882 51.6046 263.224 55.7362 263.187C55.1041 261.954 54.5469 260.678 54.0682 259.367C51.4592 252.33 50.7577 243.379 51.7158 237.523Z" fill="#7DC16D"/>
</g>
</g>
<g style="mix-blend-mode:multiply" opacity="0.2">
<path d="M230.796 79.2749L229.247 79.1726C166.862 96.5171 141.482 178.22 132.749 217.594C133.219 221.507 133.732 225.346 134.288 229.082C135.349 228.859 134.613 231.573 135.426 231.527C135.426 231.527 186.477 218.997 224.106 217.993C261.736 216.99 280.564 216.014 280.564 216.014C280.564 216.014 258.716 121.762 249.7 101.583C240.684 81.4034 236.792 79.5723 230.796 79.2749Z" fill="#7DC16D"/>
</g>
<path d="M249.7 101.583C240.684 81.3664 236.792 79.6096 230.795 79.275C224.799 78.9404 210.642 77.0256 194.868 79.7676C194.868 79.7676 150.866 78.9311 116.82 101.341C81.2781 124.737 63.9816 145.288 61.5608 155.94C59.14 166.592 50.8767 194.347 46.959 210.26C43.0412 226.173 40.3723 240.19 45.3679 253.073C48.3875 260.862 51.6038 263.205 55.7355 263.167C55.1034 261.935 54.5461 260.659 54.0674 259.347C49.9615 248.295 50.4576 232.485 55.1452 231.462C59.8329 230.44 62.6301 241.027 65.4615 252.571C66.0235 255.116 66.7848 257.603 67.7369 260.007C74.7427 257.135 85.9657 250.712 100.884 244.038C99.4678 233.899 99.4361 223.588 100.79 213.439C102.997 197.573 112.329 194.068 116.393 203.726C119.754 211.682 121.003 229.492 121.337 235.496C127.325 233.256 132.338 231.778 135.426 231.574C135.426 231.574 186.477 219.044 224.106 218.04C261.736 217.036 280.563 216.06 280.563 216.06C280.563 216.06 258.716 121.762 249.7 101.583Z" stroke="#263238" stroke-linecap="round" stroke-linejoin="round"/>
<path opacity="0.2" d="M62.9641 203.607C63.5513 204.138 64.2661 204.475 65.0239 204.579C65.7818 204.682 66.5511 204.548 67.2412 204.192C69.9357 203.021 70.2095 198.615 70.2095 198.615L74.247 198.327L75.0596 184.561L66.1633 188.363C66.1633 188.363 63.7768 201.85 62.9641 203.607Z" fill="#7DC16D"/>
<path d="M51.2966 243.863C48.7423 245.338 46.327 247.081 44.0854 249.068C44.4401 250.429 44.8686 251.767 45.3686 253.074C48.3882 260.863 51.6045 263.205 55.7362 263.168C55.104 261.936 54.5468 260.66 54.0681 259.348C52.3145 254.403 51.3763 249.161 51.2966 243.863V243.863Z" fill="#263238" stroke="#263238" stroke-width="0.75" stroke-linecap="round" stroke-linejoin="round"/>
<path d="M64.9235 236.185C64.692 236.184 64.4651 236.115 64.2665 235.986C64.0678 235.857 63.9048 235.672 63.7944 235.451C63.6387 235.13 63.6052 234.755 63.7012 234.407C63.7972 234.06 64.015 233.767 64.3076 233.592C64.5129 233.471 81.1593 222.261 94.9485 214.295C95.0973 214.209 95.2603 214.156 95.4281 214.138C95.5959 214.121 95.7653 214.139 95.9266 214.193C96.0878 214.246 96.2378 214.334 96.3679 214.45C96.498 214.567 96.6058 214.71 96.685 214.872C96.7642 215.033 96.8133 215.21 96.8295 215.393C96.8457 215.575 96.8287 215.759 96.7794 215.934C96.7302 216.11 96.6497 216.273 96.5424 216.414C96.4352 216.555 96.3035 216.672 96.1546 216.759C82.3739 224.715 65.7362 235.915 65.5309 236.036C65.3436 236.142 65.1344 236.193 64.9235 236.185V236.185Z" fill="#263238" stroke="#263238" stroke-miterlimit="10"/>
<path d="M86.6844 143.01L86.0941 158.969C85.9658 161.144 87.1292 162.195 88.6604 161.256L112.313 144.525C113.182 143.866 113.883 142.978 114.35 141.944C114.817 140.91 115.034 139.764 114.981 138.613L114.836 120.813C114.665 119.196 113.656 118.536 112.415 119.233C107.967 121.733 99.3787 130.192 89.1137 138.065C88.4182 138.664 87.8436 139.412 87.4257 140.263C87.0077 141.113 86.7554 142.048 86.6844 143.01V143.01Z" fill="#7DC16D" stroke="#263238" stroke-linecap="round" stroke-linejoin="round"/>
<path d="M102.663 138.511L114.22 141.579" stroke="#263238" stroke-linecap="round" stroke-linejoin="round"/>
<path d="M86.8556 161.332L93.9897 144.21" stroke="#263238" stroke-linecap="round" stroke-linejoin="round"/>
<path d="M86.8218 142.481L97.3091 143.904C98.3955 144.08 99.747 143.104 100.731 141.413L114.417 120.118" stroke="#263238" stroke-linecap="round" stroke-linejoin="round"/>
<path d="M145.374 113.361L147.804 153.329C147.867 154.483 148.145 155.611 148.623 156.643C149.1 157.676 149.766 158.592 150.58 159.336C151.394 160.08 152.34 160.636 153.358 160.969C154.376 161.303 155.447 161.407 156.503 161.276L238.212 149.751C239.338 149.61 240.422 149.205 241.39 148.564C242.357 147.923 243.185 147.062 243.817 146.039C244.448 145.016 244.867 143.857 245.046 142.641C245.224 141.425 245.157 140.181 244.85 138.996L234.534 99.3624C234.046 97.4789 232.974 95.8366 231.499 94.7136C230.024 93.5906 228.238 93.0558 226.442 93.1998C213.2 94.2594 181.439 97.3546 151.456 104.614C149.656 105.058 148.058 106.18 146.945 107.781C145.833 109.381 145.276 111.357 145.374 113.361V113.361Z" fill="#7DC16D" stroke="#263238" stroke-linecap="round" stroke-linejoin="round"/>
<path d="M206.109 125.75L243.413 144.954" stroke="#263238" stroke-linecap="round" stroke-linejoin="round"/>
<path d="M150.901 159.518L182.406 128.882" stroke="#263238" stroke-linecap="round" stroke-linejoin="round"/>
<path d="M145.648 112.31L190.856 132.508C192.554 133.261 194.416 133.463 196.217 133.088C198.018 132.714 199.68 131.779 201.002 130.398L233.225 97.3354" stroke="#263238" stroke-linecap="round" stroke-linejoin="round"/>
<path d="M235.935 155.407C243.614 155.202 249.689 148.388 249.503 140.187C249.317 131.986 242.941 125.504 235.262 125.71C227.582 125.915 221.508 132.73 221.693 140.93C221.879 149.131 228.255 155.613 235.935 155.407Z" fill="#263238" stroke="#263238" stroke-width="0.75" stroke-linecap="round" stroke-linejoin="round"/>
<path d="M234.097 147.648H234.055C233.785 147.649 233.518 147.581 233.278 147.448C233.037 147.316 232.828 147.123 232.669 146.886L227.203 138.688C226.936 138.289 226.827 137.791 226.898 137.303C226.969 136.816 227.216 136.38 227.584 136.09C227.951 135.8 228.409 135.681 228.858 135.759C229.306 135.836 229.708 136.104 229.974 136.504L234.055 142.62L243.806 127.98C244.073 127.581 244.475 127.313 244.923 127.235C245.371 127.158 245.83 127.277 246.197 127.567C246.565 127.856 246.811 128.293 246.883 128.78C246.954 129.267 246.844 129.765 246.578 130.164L235.458 146.896C235.3 147.127 235.095 147.315 234.859 147.446C234.623 147.577 234.362 147.646 234.097 147.648Z" fill="white" stroke="#263238" stroke-linecap="round" stroke-linejoin="round"/>
<path d="M182.431 187.711C182.431 187.711 211.515 181.651 231.446 182.078L232.644 187.283C232.644 187.283 190.797 189.44 182.824 193.79L182.431 187.711Z" fill="#263238" stroke="#263238" stroke-width="0.75" stroke-linecap="round" stroke-linejoin="round"/>
<path d="M182.824 193.772L183.68 198.977C183.768 199.557 184.062 200.076 184.499 200.424C184.935 200.771 185.48 200.919 186.015 200.836C193.312 199.702 218.923 195.882 232.207 196.235C232.535 196.246 232.86 196.173 233.156 196.021C233.452 195.87 233.711 195.645 233.912 195.364C234.113 195.083 234.25 194.754 234.312 194.405C234.374 194.056 234.359 193.695 234.269 193.354L232.678 187.302" stroke="#263238" stroke-linecap="round" stroke-linejoin="round"/>
<path d="M76.6937 184.578L76.5312 163.106L77.5149 141.031C77.5223 140.82 77.4708 140.611 77.3673 140.432C77.2638 140.253 77.1131 140.112 76.9348 140.028C76.7564 139.944 76.5588 139.92 76.3678 139.959C76.1768 139.999 76.0012 140.1 75.864 140.25C72.1857 144.34 65.8899 150.53 64.0251 155.605C61.6043 162.177 58.7386 194.523 58.7386 194.523L76.6937 184.578Z" fill="#263238" stroke="#263238" stroke-width="0.75" stroke-linecap="round" stroke-linejoin="round"/>
<path d="M53.9141 180.265H51.0485C49.5887 180.265 48.4053 181.551 48.4053 183.138V199.181C48.4053 200.767 49.5887 202.053 51.0485 202.053H53.9141C55.3739 202.053 56.5573 200.767 56.5573 199.181V183.138C56.5573 181.551 55.3739 180.265 53.9141 180.265Z" fill="#263238" stroke="#263238" stroke-width="0.75" stroke-linecap="round" stroke-linejoin="round"/>
<path d="M55.7183 165.282C57.0748 165.565 58.3996 166.004 59.6703 166.593C60.7239 167.156 61.6814 167.911 62.5017 168.824L66.7787 162.68C66.7787 162.68 60.5086 159.826 59.3195 158.088L58.1391 156.34L55.7183 165.282Z" fill="white"/>
<g style="mix-blend-mode:multiply" opacity="0.5">
<path d="M59.311 158.088L58.2075 156.424L58.0792 156.517L55.7183 165.254C55.7183 165.254 56.1716 165.347 56.8132 165.514L62.9294 160.7C61.5927 160.064 60.3682 159.18 59.311 158.088V158.088Z" fill="#7DC16D"/>
</g>
<path d="M55.7183 165.282C57.0748 165.565 58.3996 166.004 59.6703 166.593C60.7239 167.156 61.6814 167.911 62.5017 168.824L66.7787 162.68C66.7787 162.68 60.5086 159.826 59.3195 158.088L58.1391 156.34L55.7183 165.282Z" stroke="#263238" stroke-width="0.75" stroke-linecap="round" stroke-linejoin="round"/>
<path d="M64.7517 160.068L59.5251 167.309L60.2351 169.772L68.199 160.784L64.7517 160.068Z" fill="#7DC16D" stroke="#263238" stroke-linecap="round" stroke-linejoin="round"/>
<path d="M56.386 139.609C52.8531 136.635 43.6489 138.531 41.844 145.577C40.7319 149.917 41.3478 156.424 41.3478 156.424L51.8352 154.007L52.6906 155.411C54.4014 158.199 58.1053 156.34 59.0634 155.411C59.5852 154.918 59.551 153.468 59.4141 152.269L59.8333 152.167C59.8333 152.167 59.9103 142.593 56.386 139.609Z" fill="#263238" stroke="#263238" stroke-width="0.75" stroke-linecap="round" stroke-linejoin="round"/>
<path d="M52.4678 153.152C47.8648 152.595 43.2054 153.076 38.7812 154.565C31.9379 157.056 30.8858 159.212 35.7873 159.082C40.6888 158.952 52.4678 153.152 52.4678 153.152Z" fill="#263238" stroke="#263238" stroke-width="0.75" stroke-linecap="round" stroke-linejoin="round"/>
<path d="M44.0172 150.447C44.8156 150.447 45.4628 149.486 45.4628 148.3C45.4628 147.114 44.8156 146.153 44.0172 146.153C43.2188 146.153 42.5715 147.114 42.5715 148.3C42.5715 149.486 43.2188 150.447 44.0172 150.447Z" fill="#7DC16D"/>
<path d="M76.5312 163.107C76.5312 163.107 67.1644 160.523 64.2817 162.902C61.3989 165.282 60.6633 169.213 61.5871 173.982C62.511 178.75 64.7607 191.289 64.7607 191.289L76.6937 184.578L76.5312 163.107Z" fill="#263238" stroke="#263238" stroke-width="0.75" stroke-linecap="round" stroke-linejoin="round"/>
<path d="M61.6635 189.291C61.6635 189.291 61.1588 194.106 60.5686 194.785C59.9784 195.463 44.4099 181.251 43.4604 179.913C42.5109 178.574 43.161 173.797 43.4604 172.3C43.7598 170.804 43.2551 169.986 41.7495 171.017C40.244 172.049 40.6461 176.343 40.6461 176.343C40.6461 176.343 36.0525 175.144 35.1372 175.005C34.2219 174.865 33.4264 176.102 33.5633 177.087C33.7001 178.072 34.9063 178.156 34.9063 178.156C34.5977 179.583 34.684 181.077 35.1543 182.45C35.9584 184.253 36.8651 185.387 38.576 185.834C40.3411 186.133 42.1282 186.251 43.9137 186.187C43.9137 186.187 51.8691 194.422 54.1787 197.499C56.4883 200.575 61.3556 204.758 63.7764 204.005C66.1972 203.252 68.5068 190.119 68.5068 190.119L61.6635 189.291Z" fill="white"/>
<g style="mix-blend-mode:multiply" opacity="0.5">
<path d="M60.5693 194.784L65.1201 196.43C65.2644 197.467 65.0627 198.526 64.5513 199.416C64.0399 200.306 63.2525 200.967 62.3314 201.282C60.3212 202.007 56.7114 199.525 54.1451 197.434L54.2221 197.536C56.5745 200.622 61.399 204.795 63.8198 204.042C66.2407 203.289 68.5503 190.156 68.5503 190.156L61.6642 189.226C61.6642 189.226 61.1595 194.106 60.5693 194.784Z" fill="#7DC16D"/>
</g>
<path d="M61.6635 189.291C61.6635 189.291 61.1588 194.106 60.5686 194.785C59.9784 195.463 44.4099 181.251 43.4604 179.913C42.5109 178.574 43.161 173.797 43.4604 172.3C43.7598 170.804 43.2551 169.986 41.7495 171.017C40.244 172.049 40.6461 176.343 40.6461 176.343C40.6461 176.343 36.0525 175.144 35.1372 175.005C34.2219 174.865 33.4264 176.102 33.5633 177.087C33.7001 178.072 34.9063 178.156 34.9063 178.156C34.5977 179.583 34.684 181.077 35.1543 182.45C35.9584 184.253 36.8651 185.387 38.576 185.834C40.3411 186.133 42.1282 186.251 43.9137 186.187C43.9137 186.187 51.8691 194.422 54.1787 197.499C56.4883 200.575 61.3556 204.758 63.7764 204.005C66.1972 203.252 68.5068 190.119 68.5068 190.119L61.6635 189.291Z" stroke="#263238" stroke-width="0.75" stroke-linecap="round" stroke-linejoin="round"/>
<path d="M46.1035 182.524L43.9137 186.224L45.0343 187.051L47.2755 183.565L46.1035 182.524Z" fill="#263238" stroke="#263238" stroke-miterlimit="10"/>
<path d="M45.3508 186.009C45.8232 186.009 46.2062 185.593 46.2062 185.079C46.2062 184.566 45.8232 184.15 45.3508 184.15C44.8783 184.15 44.4954 184.566 44.4954 185.079C44.4954 185.593 44.8783 186.009 45.3508 186.009Z" fill="white" stroke="#263238" stroke-width="0.75" stroke-linecap="round" stroke-linejoin="round"/>
<path d="M43.256 157.613C43.256 157.613 43.7778 159.016 44.6503 161.479C45.5228 163.943 50.2105 169.138 52.503 169.436C54.7955 169.733 57.5413 160.68 57.9776 158.812C58.123 158.198 58.2684 157.213 58.2684 157.213C58.2684 157.213 61.1512 155.735 60.484 153.95C59.8167 152.166 58.4652 151.348 57.8236 151.896C57.1821 152.445 57.0709 154.759 56.1128 154.778C55.1547 154.796 54.6329 154.471 53.7861 153.244C52.9392 152.017 44.1627 154.564 43.256 157.613Z" fill="white"/>
<path opacity="0.5" d="M53.769 153.246C52.9136 152.028 44.1627 154.575 43.256 157.614L43.7521 158.99C47.0972 156.798 50.7323 155.177 54.5303 154.184C54.2465 153.902 53.9913 153.587 53.769 153.246V153.246Z" fill="#7DC16D"/>
<g style="mix-blend-mode:multiply">
<g style="mix-blend-mode:multiply" opacity="0.5">
<path d="M60.3722 153.7C59.6708 152.101 58.4304 151.376 57.806 151.897C57.4146 152.452 57.1242 153.083 56.9506 153.756C58.0868 153.618 59.2327 153.599 60.3722 153.7V153.7Z" fill="#7DC16D"/>
</g>
</g>
<path d="M43.256 157.613C43.256 157.613 43.7778 159.016 44.6503 161.479C45.5228 163.943 50.2105 169.138 52.503 169.436C54.7955 169.733 57.5413 160.68 57.9776 158.812C58.123 158.198 58.2684 157.213 58.2684 157.213C58.2684 157.213 61.1512 155.735 60.484 153.95C59.8167 152.166 58.4652 151.348 57.8236 151.896C57.1821 152.445 57.0709 154.759 56.1128 154.778C55.1547 154.796 54.6329 154.471 53.7861 153.244C52.9392 152.017 44.1627 154.564 43.256 157.613Z" stroke="#263238" stroke-width="0.75" stroke-linecap="round" stroke-linejoin="round"/>
<path d="M46.3605 158.283C46.5145 158.85 46.4631 159.371 46.2578 159.436C46.0525 159.501 45.7531 159.092 45.5992 158.506C45.4452 157.92 45.4965 157.419 45.7018 157.353C45.9071 157.288 46.2065 157.735 46.3605 158.283Z" fill="#263238" stroke="#263238" stroke-miterlimit="10"/>
<path d="M44.7692 156.703C45.9667 156.331 46.48 157.307 46.6254 158.209L46.8478 159.278L47.592 163.414L48.7212 162.893" stroke="#263238" stroke-width="0.5" stroke-linecap="round" stroke-linejoin="round"/>
<path d="M49.6456 157.02C49.9058 156.709 50.2296 156.47 50.5908 156.322C50.952 156.173 51.3403 156.119 51.7243 156.164" stroke="#263238" stroke-width="0.5" stroke-linecap="round" stroke-linejoin="round"/>
<path d="M50.6375 154.445C50.1509 154.555 49.7042 154.817 49.3519 155.198C48.9996 155.579 48.7568 156.063 48.653 156.592" stroke="#263238" stroke-width="0.5" stroke-linecap="round" stroke-linejoin="round"/>
<path d="M49.7396 164.233C49.7396 164.233 52.2203 163.694 52.4171 161.761" stroke="#263238" stroke-width="0.5" stroke-linecap="round" stroke-linejoin="round"/>
<path d="M70.7998 196.263L58.2766 192.47C58.2766 192.47 59.3801 169.233 61.3133 165.301C64.3244 159.194 71.2275 161.945 72.5278 169.623C73.7424 176.873 70.7998 196.263 70.7998 196.263Z" fill="#7DC16D" stroke="#263238" stroke-linecap="round" stroke-linejoin="round"/>
<path d="M58.5754 189.886C58.5754 189.886 65.4187 191.596 69.5846 193.083" stroke="#263238" stroke-width="0.5" stroke-linecap="round" stroke-linejoin="round"/>
<path d="M69.4143 161.238C69.4143 161.238 73.4861 161.582 76.1464 163.961" stroke="#7DC16D" stroke-width="0.5" stroke-linecap="round" stroke-linejoin="round"/>
<path d="M141.166 220.68C141.166 220.68 122.929 227.67 121.261 229.575C119.593 231.481 119.764 238.917 123.699 242.532C127.634 246.148 155.683 237.95 175.733 235.561C195.784 233.172 239.804 229.659 257.767 228.711C275.731 227.763 283.9 230.337 285.474 224.249C287.048 218.161 286.851 211.654 283.43 210.335C280.008 209.015 217.666 198.167 141.166 220.68Z" fill="#263238" stroke="#263238" stroke-width="0.75" stroke-linecap="round" stroke-linejoin="round"/>
<path d="M119.96 233.638C119.96 233.638 120.815 241.697 125.375 242.933C129.934 244.17 184.116 233.016 216.048 231.779C247.981 230.543 275.927 229.614 275.927 229.614" stroke="white" stroke-width="0.5" stroke-linecap="round" stroke-linejoin="round"/>
<path d="M146.427 237.727C167.607 232.15 211.173 224.268 284.482 226.508" stroke="white" stroke-width="0.5" stroke-linecap="round" stroke-linejoin="round"/>
<path d="M129.062 242.636C129.062 242.636 133.929 241.353 141.328 239.159" stroke="white" stroke-width="0.5" stroke-linecap="round" stroke-linejoin="round"/>
<path d="M133.527 243.556C133.757 247.011 133.671 250.483 133.27 253.92" stroke="white" stroke-width="0.5" stroke-linecap="round" stroke-linejoin="round"/>
<path d="M132.748 94.9185C132.748 94.9185 128.668 100.114 128.352 104.771" stroke="#263238" stroke-width="0.75" stroke-linecap="round" stroke-linejoin="round"/>
<path d="M127.924 108.526C127.924 108.526 124.853 161.61 132.98 218.105" stroke="#263238" stroke-width="0.75" stroke-linecap="round" stroke-linejoin="round"/>
<path d="M128.891 169.865C128.891 169.865 122.261 172.375 122.176 175.628C121.953 184.375 122.8 203.039 124.554 204.852C126.308 206.664 131.756 201.868 131.756 201.868C131.756 201.868 139.455 202.593 140.311 200.715C141.166 198.838 137.958 172.412 137.479 170.107C137 167.802 128.891 169.865 128.891 169.865Z" fill="#7DC16D" stroke="#263238" stroke-linecap="round" stroke-linejoin="round"/>
<path d="M267.365 182.449C269.09 183.365 270.965 183.902 272.882 184.029C270.761 175.366 268.357 165.718 265.876 156.088C263.635 155.921 260.744 155.921 260.804 157.018C260.846 158.895 265.2 181.092 267.365 182.449Z" fill="#7DC16D" stroke="#263238" stroke-linecap="round" stroke-linejoin="round"/>
<path d="M127.94 172.596C127.94 172.596 128.231 189.327 129.369 195.834" stroke="#263238" stroke-width="0.75" stroke-linecap="round" stroke-linejoin="round"/>
<path d="M207.905 176.464C207.905 176.464 246.073 169.781 290.546 178.323" stroke="#263238" stroke-linecap="round" stroke-linejoin="round"/>
<path d="M324.104 202.667C326.73 203.522 329.314 204.424 331.803 205.391" stroke="#263238" stroke-linecap="round" stroke-linejoin="round"/>
<path d="M255.577 190.044C255.577 190.044 285.842 192.043 314.823 199.915" stroke="#263238" stroke-linecap="round" stroke-linejoin="round"/>
<path d="M163.466 266.626C188.386 262.488 213.703 261.997 238.743 265.166" stroke="#263238" stroke-linecap="round" stroke-linejoin="round"/>
<path d="M160.336 262.247C160.336 262.247 178.248 259.811 184.074 259.328" stroke="#263238" stroke-linecap="round" stroke-linejoin="round"/>
<path d="M280.298 81.7202C282.864 82.1199 285.43 82.6497 287.757 83.2539" stroke="#263238" stroke-linecap="round" stroke-linejoin="round"/>
<path d="M243.421 80.7997C253.961 79.9907 264.543 80.0684 275.072 81.0321" stroke="#263238" stroke-linecap="round" stroke-linejoin="round"/>
<path d="M105.41 193.399C105.41 193.399 130.969 180.247 167.949 176.594" stroke="#263238" stroke-linecap="round" stroke-linejoin="round"/>
<path d="M148.454 169.279C148.454 169.279 163.928 164.901 187.469 163.433" stroke="#263238" stroke-linecap="round" stroke-linejoin="round"/>
<path d="M104.99 262.145C108.097 268.191 113.109 272.812 119.105 275.158" stroke="#263238" stroke-linecap="round" stroke-linejoin="round"/>
<path d="M104.135 266.328C104.135 266.328 107.984 272.835 113.117 275.623" stroke="#263238" stroke-linecap="round" stroke-linejoin="round"/>
<path d="M230.308 243.09C230.308 243.09 232.874 256.103 243.139 261.68" stroke="#263238" stroke-linecap="round" stroke-linejoin="round"/>
<path d="M231.591 254.709C233.625 257.946 236.435 260.518 239.717 262.145" stroke="#263238" stroke-linecap="round" stroke-linejoin="round"/>
<path d="M62.3566 279.768C62.3566 279.768 64.9228 284.416 73.9046 284.416" stroke="#263238" stroke-linecap="round" stroke-linejoin="round"/>
<path d="M60.6455 282.558C63.9178 285.515 67.9512 287.3 72.1936 287.67" stroke="#263238" stroke-linecap="round" stroke-linejoin="round"/>
<path d="M176.28 271.087C153.562 272.43 131.011 276.096 108.925 282.037L109.456 282.901C109.456 282.901 128.275 278.56 163.056 287.855C197.837 297.15 200.129 304.586 238.332 304.586C276.534 304.586 313.608 294.678 313.608 294.678L308.972 291.889C274.67 276.116 227.656 267.964 176.28 271.087Z" fill="#7DC16D"/>
<path opacity="0.5" d="M176.28 271.087C153.562 272.43 131.011 276.096 108.925 282.037L109.456 282.901C109.456 282.901 128.275 278.56 163.056 287.855C197.837 297.15 200.129 304.586 238.332 304.586C276.534 304.586 313.608 294.678 313.608 294.678L308.972 291.889C274.67 276.116 227.656 267.964 176.28 271.087Z" fill="white"/>
<path d="M92.5864 292.354C92.5864 292.354 137.496 284.918 176.417 313.268" stroke="#263238" stroke-linecap="round" stroke-linejoin="round"/>
<path d="M139.634 303.043C139.634 303.043 158.025 309.085 169.146 322.098" stroke="#263238" stroke-linecap="round" stroke-linejoin="round"/>
<path d="M248.272 279.341C248.272 279.341 274.362 282.129 297.885 297.466" stroke="#263238" stroke-linecap="round" stroke-linejoin="round"/>
<path d="M329.621 303.36C334.319 306.484 338.792 309.993 343 313.854" stroke="#263238" stroke-linecap="round" stroke-linejoin="round"/>
<path d="M23.564 325.285C54.7437 296.471 111.081 275.092 176.281 271.086C235.791 267.415 289.469 278.996 324.267 299.901" stroke="#263238" stroke-linecap="round" stroke-linejoin="round"/>
<path d="M213.627 278.876C213.627 278.876 240.573 280.271 258.536 286.777" stroke="#263238" stroke-linecap="round" stroke-linejoin="round"/>
<path d="M91.458 58.2129C91.458 58.2129 90.6025 45.358 73.2805 44.8932C55.9584 44.4285 60.5947 57.7575 55.9498 60.9736C51.3049 64.1896 50.0304 59.1146 45.3769 62.3492C40.7235 65.5839 42.8107 71.9974 39.0383 72.9176C35.266 73.8378 30.1592 68.7814 25.5143 71.9881C20.8694 75.1949 20.8609 77.9555 18.748 77.9555C16.6351 77.9555 12.4094 76.0965 9.87737 77.9555C7.34535 79.8145 4.37708 82.0639 4.37708 82.0639H111.304C111.304 82.0639 112.57 77.9276 107.882 75.1763C103.194 72.425 101.116 74.7116 99.4304 72.3878C97.7452 70.0641 104.135 64.1896 91.458 58.2129Z" fill="#7DC16D"/>
<path d="M154.989 9.01451C154.989 9.01451 154.476 1.28106 144.057 1.00221C133.638 0.723363 136.426 8.74495 133.629 10.6783C130.832 12.6117 130.071 9.5722 127.274 11.5056C124.476 13.4389 125.751 17.3056 123.458 17.854C121.166 18.4025 118.121 15.3723 115.323 17.3056C112.526 19.239 112.526 20.8935 111.252 20.8935C109.977 20.8935 107.437 19.7967 105.914 20.8935C104.391 21.9903 102.612 23.3846 102.612 23.3846H166.939C166.939 23.3846 167.7 20.8935 164.903 19.239C162.106 17.5845 160.84 18.9602 159.822 17.5845C158.804 16.2088 162.619 12.6117 154.989 9.01451Z" fill="#7DC16D"/>
<path opacity="0.7" d="M91.458 58.2129C91.458 58.2129 90.6025 45.358 73.2805 44.8932C55.9584 44.4285 60.5947 57.7575 55.9498 60.9736C51.3049 64.1896 50.0304 59.1146 45.3769 62.3492C40.7235 65.5839 42.8107 71.9974 39.0383 72.9176C35.266 73.8378 30.1592 68.7814 25.5143 71.9881C20.8694 75.1949 20.8609 77.9555 18.748 77.9555C16.6351 77.9555 12.4094 76.0965 9.87737 77.9555C7.34535 79.8145 4.37708 82.0639 4.37708 82.0639H111.304C111.304 82.0639 112.57 77.9276 107.882 75.1763C103.194 72.425 101.116 74.7116 99.4304 72.3878C97.7452 70.0641 104.135 64.1896 91.458 58.2129Z" fill="white"/>
<path opacity="0.8" d="M154.989 9.01451C154.989 9.01451 154.476 1.28106 144.057 1.00221C133.638 0.723363 136.426 8.74495 133.629 10.6783C130.832 12.6117 130.071 9.5722 127.274 11.5056C124.476 13.4389 125.751 17.3056 123.458 17.854C121.166 18.4025 118.121 15.3723 115.323 17.3056C112.526 19.239 112.526 20.8935 111.252 20.8935C109.977 20.8935 107.437 19.7967 105.914 20.8935C104.391 21.9903 102.612 23.3846 102.612 23.3846H166.939C166.939 23.3846 167.7 20.8935 164.903 19.239C162.106 17.5845 160.84 18.9602 159.822 17.5845C158.804 16.2088 162.619 12.6117 154.989 9.01451Z" fill="white"/>
<path d="M30.4033 375.285H35.0767C37.625 375.285 39.1357 374.032 39.1357 371.932V371.915C39.1357 370.338 38.0981 369.218 36.4629 369.01V368.877C37.6167 368.67 38.5298 367.541 38.5298 366.304V366.287C38.5298 364.461 37.1851 363.307 34.9854 363.307H30.4033V375.285ZM34.6699 364.627C36.1558 364.627 37.019 365.333 37.019 366.545V366.561C37.019 367.823 36.0977 368.47 34.2881 368.47H31.8975V364.627H34.6699ZM34.7114 369.757C36.6206 369.757 37.6001 370.463 37.6001 371.841V371.857C37.6001 373.235 36.6538 373.966 34.8525 373.966H31.8975V369.757H34.7114ZM52.2095 375.285H53.6538V366.337H52.2095V370.039H47.7769V366.337H46.3325V375.285H47.7769V371.235H52.2095V375.285ZM58.958 375.443C60.1616 375.443 61.0996 374.92 61.6641 373.966H61.7969V375.285H63.2412V369.159C63.2412 367.3 62.021 366.179 59.8379 366.179C57.9287 366.179 56.5674 367.126 56.335 368.529L56.3267 368.578H57.771L57.7793 368.553C58.0117 367.856 58.7173 367.458 59.7881 367.458C61.1245 367.458 61.7969 368.055 61.7969 369.159V369.973L59.2319 370.131C57.1484 370.255 55.9697 371.177 55.9697 372.77V372.787C55.9697 374.414 57.2563 375.443 58.958 375.443ZM57.4473 372.754V372.737C57.4473 371.849 58.0449 371.367 59.4062 371.284L61.7969 371.135V371.948C61.7969 373.227 60.7261 374.19 59.2568 374.19C58.2192 374.19 57.4473 373.658 57.4473 372.754ZM66.0386 375.285H77.0952V366.337H75.6509V374.09H72.2891V366.337H70.8447V374.09H67.4829V366.337H66.0386V375.285ZM83.5947 375.443C85.7031 375.443 86.9814 374.248 87.2886 373.036L87.3052 372.969H85.8608L85.8276 373.044C85.5869 373.584 84.8398 374.156 83.6279 374.156C82.0342 374.156 81.0132 373.077 80.9717 371.226H87.4131V370.662C87.4131 367.989 85.9355 366.179 83.5034 366.179C81.0713 366.179 79.4941 368.072 79.4941 370.836V370.844C79.4941 373.65 81.0381 375.443 83.5947 375.443ZM83.4951 367.466C84.8149 367.466 85.7944 368.304 85.9438 370.073H80.9966C81.1543 368.371 82.167 367.466 83.4951 367.466ZM91.2563 375.285V368.919H91.4141L94.228 375.036H95.3403L98.1626 368.919H98.3203V375.285H99.7646V366.337H98.0879L94.8838 373.277H94.751L91.5635 366.337H89.812V375.285H91.2563ZM107.393 375.285H108.837V367.532H113.187V375.285H114.631V366.337H107.393V375.285ZM117.479 378.274H118.923V373.874H119.056C119.545 374.829 120.616 375.443 121.845 375.443C124.119 375.443 125.597 373.625 125.597 370.82V370.803C125.597 368.014 124.111 366.179 121.845 366.179C120.6 366.179 119.604 366.769 119.056 367.765H118.923V366.337H117.479V378.274ZM121.513 374.165C119.886 374.165 118.89 372.886 118.89 370.82V370.803C118.89 368.736 119.886 367.458 121.513 367.458C123.148 367.458 124.119 368.719 124.119 370.803V370.82C124.119 372.903 123.148 374.165 121.513 374.165ZM128.012 375.285H129.457L133.881 368.612H134.014V375.285H135.458V366.337H134.014L129.589 373.011H129.457V366.337H128.012V375.285ZM140.405 371.782L140.737 367.532H143.85V375.285H145.294V366.337H139.442L139.061 371.666C138.969 372.994 138.637 374.032 137.815 374.032C137.6 374.032 137.375 373.999 137.301 373.974V375.277C137.417 375.319 137.649 375.368 137.957 375.368C139.451 375.368 140.214 374.248 140.405 371.782ZM151.819 375.443C154.367 375.443 155.944 373.683 155.944 370.82V370.803C155.944 367.931 154.367 366.179 151.819 366.179C149.271 366.179 147.693 367.931 147.693 370.803V370.82C147.693 373.683 149.271 375.443 151.819 375.443ZM151.819 374.165C150.125 374.165 149.171 372.928 149.171 370.82V370.803C149.171 368.686 150.125 367.458 151.819 367.458C153.512 367.458 154.467 368.686 154.467 370.803V370.82C154.467 372.928 153.512 374.165 151.819 374.165ZM158.725 375.285L161.938 371.185H162.469V375.285H163.863V371.185H164.395L167.607 375.285H169.417L165.532 370.537L169.234 366.337H167.524L164.395 370.106H163.863V366.337H162.469V370.106H161.938L158.808 366.337H157.073L160.8 370.571L156.94 375.285H158.725ZM174.688 375.443C176.796 375.443 178.074 374.248 178.381 373.036L178.398 372.969H176.954L176.92 373.044C176.68 373.584 175.933 374.156 174.721 374.156C173.127 374.156 172.106 373.077 172.064 371.226H178.506V370.662C178.506 367.989 177.028 366.179 174.596 366.179C172.164 366.179 170.587 368.072 170.587 370.836V370.844C170.587 373.65 172.131 375.443 174.688 375.443ZM174.588 367.466C175.908 367.466 176.887 368.304 177.037 370.073H172.089C172.247 368.371 173.26 367.466 174.588 367.466ZM186.782 375.285H188.226V366.337H186.782V370.039H182.349V366.337H180.905V375.285H182.349V371.235H186.782V375.285ZM191.065 375.285H192.509L196.934 368.612H197.066V375.285H198.511V366.337H197.066L192.642 373.011H192.509V366.337H191.065V375.285ZM201.358 375.285H202.802L207.227 368.612H207.359V375.285H208.804V366.337H207.359L202.935 373.011H202.802V366.337H201.358V375.285ZM216.432 375.285H220.242C222.168 375.285 223.305 374.273 223.305 372.72V372.704C223.305 371.666 222.583 370.869 221.446 370.712V370.579C222.284 370.405 222.907 369.566 222.907 368.678V368.661C222.907 367.259 221.919 366.337 220.226 366.337H216.432V375.285ZM217.876 370.122V367.532H220.018C221.022 367.532 221.471 368.047 221.471 368.811V368.827C221.471 369.674 220.948 370.122 219.786 370.122H217.876ZM217.876 374.09V371.318H219.91C221.197 371.318 221.836 371.733 221.836 372.679V372.696C221.836 373.592 221.28 374.09 220.184 374.09H217.876ZM225.746 375.285H228.941C230.992 375.285 232.303 374.107 232.303 372.256V372.239C232.303 370.388 230.992 369.209 228.941 369.209H227.19V366.337H225.746V375.285ZM233.864 375.285H235.308V366.337H233.864V375.285ZM228.941 370.405C230.112 370.405 230.859 371.127 230.859 372.239V372.256C230.859 373.36 230.12 374.09 228.941 374.09H227.19V370.405H228.941ZM246.597 375.443C248.747 375.443 249.951 374.289 250.316 372.671L250.333 372.579L248.905 372.588L248.888 372.637C248.556 373.634 247.792 374.165 246.589 374.165C244.995 374.165 243.966 372.845 243.966 370.786V370.77C243.966 368.753 244.979 367.458 246.589 367.458C247.875 367.458 248.672 368.172 248.896 369.052L248.905 369.076H250.341L250.333 369.027C250.067 367.433 248.764 366.179 246.589 366.179C244.082 366.179 242.488 367.989 242.488 370.77V370.786C242.488 373.625 244.09 375.443 246.597 375.443ZM254.051 375.285V368.919H254.209L257.023 375.036H258.135L260.958 368.919H261.115V375.285H262.56V366.337H260.883L257.679 373.277H257.546L254.358 366.337H252.607V375.285H254.051ZM269.092 375.443C271.641 375.443 273.218 373.683 273.218 370.82V370.803C273.218 367.931 271.641 366.179 269.092 366.179C266.544 366.179 264.967 367.931 264.967 370.803V370.82C264.967 373.683 266.544 375.443 269.092 375.443ZM269.092 374.165C267.399 374.165 266.444 372.928 266.444 370.82V370.803C266.444 368.686 267.399 367.458 269.092 367.458C270.786 367.458 271.74 368.686 271.74 370.803V370.82C271.74 372.928 270.786 374.165 269.092 374.165ZM275.999 375.285L279.211 371.185H279.742V375.285H281.137V371.185H281.668L284.88 375.285H286.69L282.805 370.537L286.507 366.337H284.797L281.668 370.106H281.137V366.337H279.742V370.106H279.211L276.082 366.337H274.347L278.074 370.571L274.214 375.285H275.999ZM291.961 375.443C294.069 375.443 295.348 374.248 295.655 373.036L295.671 372.969H294.227L294.194 373.044C293.953 373.584 293.206 374.156 291.994 374.156C290.4 374.156 289.379 373.077 289.338 371.226H295.779V370.662C295.779 367.989 294.302 366.179 291.87 366.179C289.438 366.179 287.86 368.072 287.86 370.836V370.844C287.86 373.65 289.404 375.443 291.961 375.443ZM291.861 367.466C293.181 367.466 294.161 368.304 294.31 370.073H289.363C289.521 368.371 290.533 367.466 291.861 367.466ZM303.997 366.337H296.759V367.532H299.656V375.285H301.1V367.532H303.997V366.337ZM309.409 375.443C311.518 375.443 312.796 374.248 313.103 373.036L313.12 372.969H311.675L311.642 373.044C311.401 373.584 310.654 374.156 309.442 374.156C307.849 374.156 306.828 373.077 306.786 371.226H313.228V370.662C313.228 367.989 311.75 366.179 309.318 366.179C306.886 366.179 305.309 368.072 305.309 370.836V370.844C305.309 373.65 306.853 375.443 309.409 375.443ZM309.31 367.466C310.629 367.466 311.609 368.304 311.758 370.073H306.811C306.969 368.371 307.981 367.466 309.31 367.466ZM14.5156 399.285H15.96V390.337H14.5156V394.039H10.083V390.337H8.63867V399.285H10.083V395.235H14.5156V399.285ZM21.2642 399.443C22.4678 399.443 23.4058 398.92 23.9702 397.966H24.103V399.285H25.5474V393.159C25.5474 391.3 24.3271 390.179 22.144 390.179C20.2349 390.179 18.8735 391.126 18.6411 392.529L18.6328 392.578H20.0771L20.0854 392.553C20.3179 391.856 21.0234 391.458 22.0942 391.458C23.4307 391.458 24.103 392.055 24.103 393.159V393.973L21.5381 394.131C19.4546 394.255 18.2759 395.177 18.2759 396.77V396.787C18.2759 398.414 19.5625 399.443 21.2642 399.443ZM19.7534 396.754V396.737C19.7534 395.849 20.3511 395.367 21.7124 395.284L24.103 395.135V395.948C24.103 397.227 23.0322 398.19 21.563 398.19C20.5254 398.19 19.7534 397.658 19.7534 396.754ZM32.0718 389.092C33.7817 389.092 34.9189 387.913 34.9189 386.369H33.624C33.624 387.274 33.0513 388.113 32.0718 388.113C31.1089 388.113 30.5195 387.274 30.5195 386.369H29.2246C29.2246 387.913 30.3618 389.092 32.0718 389.092ZM28.3447 399.285H29.7891L34.2134 392.612H34.3462V399.285H35.7905V390.337H34.3462L29.9219 397.011H29.7891V390.337H28.3447V399.285ZM45.1206 390.337H37.8823V391.532H40.7793V399.285H42.2236V391.532H45.1206V390.337ZM47.2041 399.285H48.6484L53.0728 392.612H53.2056V399.285H54.6499V390.337H53.2056L48.7812 397.011H48.6484V390.337H47.2041V399.285ZM57.0571 402.332H58.1279L59.4312 397.609H57.7793L57.0571 402.332ZM69.2261 395.21L72.729 399.285H74.5801L70.3965 394.554L74.4224 390.337H72.6875L69.2261 394.081H68.7695V390.337H67.3252V399.285H68.7695V395.21H69.2261ZM77.0122 402.423C78.5977 402.423 79.3364 401.842 80.0752 399.833L83.5698 390.337H82.0508L79.6021 397.7H79.4692L77.0122 390.337H75.4683L78.7803 399.294L78.6143 399.825C78.2905 400.854 77.7925 401.228 76.9707 401.228C76.7715 401.228 76.5474 401.219 76.373 401.186V402.373C76.5723 402.406 76.8213 402.423 77.0122 402.423ZM85.6367 399.285H87.0811V391.532H91.4307V399.285H92.875V390.337H85.6367V399.285ZM95.7139 399.285H97.1582L101.583 392.612H101.715V399.285H103.16V390.337H101.715L97.291 397.011H97.1582V390.337H95.7139V399.285ZM112.49 390.337H105.251V391.532H108.148V399.285H109.593V391.532H112.49V390.337ZM114.573 399.285H117.769C119.819 399.285 121.131 398.107 121.131 396.256V396.239C121.131 394.388 119.819 393.209 117.769 393.209H116.018V390.337H114.573V399.285ZM117.769 394.405C118.939 394.405 119.687 395.127 119.687 396.239V396.256C119.687 397.36 118.948 398.09 117.769 398.09H116.018V394.405H117.769ZM128.137 399.285H129.581L134.005 392.612H134.138V399.285H135.583V390.337H134.138L129.714 397.011H129.581V390.337H128.137V399.285ZM146.896 399.443C149.445 399.443 151.022 397.683 151.022 394.82V394.803C151.022 391.931 149.445 390.179 146.896 390.179C144.348 390.179 142.771 391.931 142.771 394.803V394.82C142.771 397.683 144.348 399.443 146.896 399.443ZM146.896 398.165C145.203 398.165 144.249 396.928 144.249 394.82V394.803C144.249 392.686 145.203 391.458 146.896 391.458C148.59 391.458 149.544 392.686 149.544 394.803V394.82C149.544 396.928 148.59 398.165 146.896 398.165ZM153.429 402.274H154.874V397.874H155.006C155.496 398.829 156.567 399.443 157.795 399.443C160.07 399.443 161.547 397.625 161.547 394.82V394.803C161.547 392.014 160.062 390.179 157.795 390.179C156.55 390.179 155.554 390.769 155.006 391.765H154.874V390.337H153.429V402.274ZM157.463 398.165C155.836 398.165 154.84 396.886 154.84 394.82V394.803C154.84 392.736 155.836 391.458 157.463 391.458C159.099 391.458 160.07 392.719 160.07 394.803V394.82C160.07 396.903 159.099 398.165 157.463 398.165ZM169.69 391.532V390.337H163.963V399.285H165.407V391.532H169.69ZM174.082 399.443C175.285 399.443 176.223 398.92 176.788 397.966H176.92V399.285H178.365V393.159C178.365 391.3 177.145 390.179 174.961 390.179C173.052 390.179 171.691 391.126 171.458 392.529L171.45 392.578H172.895L172.903 392.553C173.135 391.856 173.841 391.458 174.912 391.458C176.248 391.458 176.92 392.055 176.92 393.159V393.973L174.355 394.131C172.272 394.255 171.093 395.177 171.093 396.77V396.787C171.093 398.414 172.38 399.443 174.082 399.443ZM172.571 396.754V396.737C172.571 395.849 173.168 395.367 174.53 395.284L176.92 395.135V395.948C176.92 397.227 175.85 398.19 174.38 398.19C173.343 398.19 172.571 397.658 172.571 396.754ZM187.039 399.285H188.483V390.337H187.039V394.039H182.606V390.337H181.162V399.285H182.606V395.235H187.039V399.285ZM191.322 399.285H192.767L197.191 392.612H197.324V399.285H198.768V390.337H197.324L192.899 397.011H192.767V390.337H191.322V399.285ZM204.662 399.451C206.745 399.451 208.181 398.314 208.181 396.654V396.637C208.181 395.641 207.559 394.927 206.38 394.67V394.537C207.268 394.33 207.857 393.508 207.857 392.603V392.587C207.857 391.159 206.712 390.171 204.711 390.171C202.885 390.171 201.574 391.084 201.366 392.52L201.358 392.578H202.769L202.777 392.537C202.918 391.823 203.69 391.366 204.711 391.366C205.857 391.366 206.446 391.931 206.446 392.695V392.711C206.446 393.641 205.807 394.097 204.662 394.097H203.267V395.293H204.662C206.031 395.293 206.762 395.741 206.762 396.712V396.729C206.762 397.617 205.981 398.256 204.662 398.256C203.574 398.256 202.777 397.791 202.595 397.061L202.578 396.994H201.109L201.117 397.061C201.3 398.505 202.752 399.451 204.662 399.451ZM214.183 399.443C216.731 399.443 218.308 397.683 218.308 394.82V394.803C218.308 391.931 216.731 390.179 214.183 390.179C211.634 390.179 210.057 391.931 210.057 394.803V394.82C210.057 397.683 211.634 399.443 214.183 399.443ZM214.183 398.165C212.489 398.165 211.535 396.928 211.535 394.82V394.803C211.535 392.686 212.489 391.458 214.183 391.458C215.876 391.458 216.831 392.686 216.831 394.803V394.82C216.831 396.928 215.876 398.165 214.183 398.165ZM220.707 399.285H224.517C226.443 399.285 227.58 398.273 227.58 396.72V396.704C227.58 395.666 226.858 394.869 225.721 394.712V394.579C226.559 394.405 227.182 393.566 227.182 392.678V392.661C227.182 391.259 226.194 390.337 224.5 390.337H220.707V399.285ZM222.151 394.122V391.532H224.293C225.297 391.532 225.746 392.047 225.746 392.811V392.827C225.746 393.674 225.223 394.122 224.061 394.122H222.151ZM222.151 398.09V395.318H224.185C225.472 395.318 226.111 395.733 226.111 396.679V396.696C226.111 397.592 225.555 398.09 224.459 398.09H222.151ZM232.486 399.443C233.689 399.443 234.627 398.92 235.192 397.966H235.325V399.285H236.769V393.159C236.769 391.3 235.549 390.179 233.366 390.179C231.457 390.179 230.095 391.126 229.863 392.529L229.854 392.578H231.299L231.307 392.553C231.54 391.856 232.245 391.458 233.316 391.458C234.652 391.458 235.325 392.055 235.325 393.159V393.973L232.76 394.131C230.676 394.255 229.498 395.177 229.498 396.77V396.787C229.498 398.414 230.784 399.443 232.486 399.443ZM230.975 396.754V396.737C230.975 395.849 231.573 395.367 232.934 395.284L235.325 395.135V395.948C235.325 397.227 234.254 398.19 232.785 398.19C231.747 398.19 230.975 397.658 230.975 396.754ZM246.049 390.337H238.811V391.532H241.708V399.285H243.152V391.532H246.049V390.337ZM248.133 399.285H251.329C253.379 399.285 254.69 398.107 254.69 396.256V396.239C254.69 394.388 253.379 393.209 251.329 393.209H249.577V390.337H248.133V399.285ZM251.329 394.405C252.499 394.405 253.246 395.127 253.246 396.239V396.256C253.246 397.36 252.507 398.09 251.329 398.09H249.577V394.405H251.329ZM261.904 401.651V399.285H268.901V401.651H270.246V398.09H268.818V390.337H262.717L262.369 395.326C262.286 396.53 261.962 397.658 261.306 398.09H260.559V401.651H261.904ZM267.374 398.09H262.975V397.957C263.398 397.401 263.63 396.447 263.713 395.359L263.996 391.532H267.374V398.09ZM275.808 399.443C278.356 399.443 279.933 397.683 279.933 394.82V394.803C279.933 391.931 278.356 390.179 275.808 390.179C273.259 390.179 271.682 391.931 271.682 394.803V394.82C271.682 397.683 273.259 399.443 275.808 399.443ZM275.808 398.165C274.114 398.165 273.16 396.928 273.16 394.82V394.803C273.16 392.686 274.114 391.458 275.808 391.458C277.501 391.458 278.456 392.686 278.456 394.803V394.82C278.456 396.928 277.501 398.165 275.808 398.165ZM286.001 399.443C288.151 399.443 289.354 398.289 289.72 396.671L289.736 396.579L288.309 396.588L288.292 396.637C287.96 397.634 287.196 398.165 285.993 398.165C284.399 398.165 283.37 396.845 283.37 394.786V394.77C283.37 392.753 284.382 391.458 285.993 391.458C287.279 391.458 288.076 392.172 288.3 393.052L288.309 393.076H289.745L289.736 393.027C289.471 391.433 288.167 390.179 285.993 390.179C283.486 390.179 281.892 391.989 281.892 394.77V394.786C281.892 397.625 283.494 399.443 286.001 399.443ZM298.079 390.337H290.84V391.532H293.737V399.285H295.182V391.532H298.079V390.337ZM302.495 399.443C303.698 399.443 304.636 398.92 305.201 397.966H305.333V399.285H306.778V393.159C306.778 391.3 305.558 390.179 303.375 390.179C301.465 390.179 300.104 391.126 299.872 392.529L299.863 392.578H301.308L301.316 392.553C301.548 391.856 302.254 391.458 303.325 391.458C304.661 391.458 305.333 392.055 305.333 393.159V393.973L302.769 394.131C300.685 394.255 299.506 395.177 299.506 396.77V396.787C299.506 398.414 300.793 399.443 302.495 399.443ZM300.984 396.754V396.737C300.984 395.849 301.582 395.367 302.943 395.284L305.333 395.135V395.948C305.333 397.227 304.263 398.19 302.793 398.19C301.756 398.19 300.984 397.658 300.984 396.754ZM309.575 399.285H313.385C315.311 399.285 316.448 398.273 316.448 396.72V396.704C316.448 395.666 315.726 394.869 314.589 394.712V394.579C315.427 394.405 316.05 393.566 316.05 392.678V392.661C316.05 391.259 315.062 390.337 313.369 390.337H309.575V399.285ZM311.02 394.122V391.532H313.161C314.166 391.532 314.614 392.047 314.614 392.811V392.827C314.614 393.674 314.091 394.122 312.929 394.122H311.02ZM311.02 398.09V395.318H313.053C314.34 395.318 314.979 395.733 314.979 396.679V396.696C314.979 397.592 314.423 398.09 313.327 398.09H311.02ZM320.79 395.21L324.292 399.285H326.144L321.96 394.554L325.986 390.337H324.251L320.79 394.081H320.333V390.337H318.889V399.285H320.333V395.21H320.79ZM328.576 402.423C330.161 402.423 330.9 401.842 331.639 399.833L335.133 390.337H333.614L331.166 397.7H331.033L328.576 390.337H327.032L330.344 399.294L330.178 399.825C329.854 400.854 329.356 401.228 328.534 401.228C328.335 401.228 328.111 401.219 327.937 401.186V402.373C328.136 402.406 328.385 402.423 328.576 402.423ZM113.071 419.782L113.403 415.532H116.516V423.285H117.96V414.337H112.108L111.726 419.666C111.635 420.994 111.303 422.032 110.481 422.032C110.265 422.032 110.041 421.999 109.966 421.974V423.277C110.083 423.319 110.315 423.368 110.622 423.368C112.116 423.368 112.88 422.248 113.071 419.782ZM120.799 423.285H122.243V419.235H123.854C124.003 421.866 125.514 423.451 127.888 423.451C130.386 423.451 131.93 421.692 131.93 418.82V418.803C131.93 415.923 130.386 414.171 127.888 414.171C125.622 414.171 124.144 415.615 123.887 418.039H122.243V414.337H120.799V423.285ZM127.888 422.173C126.244 422.173 125.323 420.936 125.323 418.82V418.803C125.323 416.678 126.244 415.449 127.888 415.449C129.531 415.449 130.453 416.678 130.453 418.803V418.82C130.453 420.936 129.531 422.173 127.888 422.173ZM138.056 423.451C140.638 423.451 142.223 421.692 142.223 418.853V418.836C142.223 416.138 140.679 414.42 138.272 414.42C136.919 414.42 135.848 415.001 135.242 416.072H135.109L135.134 415.889C135.466 413.449 136.371 412.478 138.455 412.386L139.368 412.345C140.405 412.295 141.352 412.079 141.634 411.814V410.535C140.862 410.851 140.015 410.984 139.301 411.017L138.405 411.058C135.209 411.208 133.889 413.233 133.889 417.981V417.998C133.889 421.584 135.317 423.451 138.056 423.451ZM138.056 422.173C136.346 422.173 135.367 420.953 135.367 418.853V418.836C135.367 416.836 136.346 415.698 138.056 415.698C139.766 415.698 140.746 416.836 140.746 418.836V418.853C140.746 420.953 139.766 422.173 138.056 422.173ZM148.308 423.443C150.856 423.443 152.433 421.683 152.433 418.82V418.803C152.433 415.931 150.856 414.179 148.308 414.179C145.759 414.179 144.182 415.931 144.182 418.803V418.82C144.182 421.683 145.759 423.443 148.308 423.443ZM148.308 422.165C146.614 422.165 145.66 420.928 145.66 418.82V418.803C145.66 416.686 146.614 415.458 148.308 415.458C150.001 415.458 150.956 416.686 150.956 418.803V418.82C150.956 420.928 150.001 422.165 148.308 422.165ZM160.56 415.532V414.337H154.832V423.285H156.276V415.532H160.56ZM166.171 423.443C168.719 423.443 170.296 421.683 170.296 418.82V418.803C170.296 415.931 168.719 414.179 166.171 414.179C163.623 414.179 162.045 415.931 162.045 418.803V418.82C162.045 421.683 163.623 423.443 166.171 423.443ZM166.171 422.165C164.478 422.165 163.523 420.928 163.523 418.82V418.803C163.523 416.686 164.478 415.458 166.171 415.458C167.864 415.458 168.819 416.686 168.819 418.803V418.82C168.819 420.928 167.864 422.165 166.171 422.165ZM183.959 414.337H176.721V415.532H179.618V423.285H181.062V415.532H183.959V414.337ZM189.396 423.443C191.945 423.443 193.522 421.683 193.522 418.82V418.803C193.522 415.931 191.945 414.179 189.396 414.179C186.848 414.179 185.271 415.931 185.271 418.803V418.82C185.271 421.683 186.848 423.443 189.396 423.443ZM189.396 422.165C187.703 422.165 186.749 420.928 186.749 418.82V418.803C186.749 416.686 187.703 415.458 189.396 415.458C191.09 415.458 192.044 416.686 192.044 418.803V418.82C192.044 420.928 191.09 422.165 189.396 422.165ZM195.921 423.285H199.731C201.657 423.285 202.794 422.273 202.794 420.72V420.704C202.794 419.666 202.072 418.869 200.935 418.712V418.579C201.773 418.405 202.396 417.566 202.396 416.678V416.661C202.396 415.259 201.408 414.337 199.714 414.337H195.921V423.285ZM197.365 418.122V415.532H199.507C200.511 415.532 200.959 416.047 200.959 416.811V416.827C200.959 417.674 200.437 418.122 199.274 418.122H197.365ZM197.365 422.09V419.318H199.399C200.686 419.318 201.325 419.733 201.325 420.679V420.696C201.325 421.592 200.769 422.09 199.673 422.09H197.365ZM207.7 423.443C208.903 423.443 209.841 422.92 210.406 421.966H210.539V423.285H211.983V417.159C211.983 415.3 210.763 414.179 208.58 414.179C206.67 414.179 205.309 415.126 205.077 416.529L205.068 416.578H206.513L206.521 416.553C206.753 415.856 207.459 415.458 208.53 415.458C209.866 415.458 210.539 416.055 210.539 417.159V417.973L207.974 418.131C205.89 418.255 204.711 419.177 204.711 420.77V420.787C204.711 422.414 205.998 423.443 207.7 423.443ZM206.189 420.754V420.737C206.189 419.849 206.787 419.367 208.148 419.284L210.539 419.135V419.948C210.539 421.227 209.468 422.19 207.999 422.19C206.961 422.19 206.189 421.658 206.189 420.754ZM214.789 426.274H216.233V421.874H216.366C216.855 422.829 217.926 423.443 219.155 423.443C221.429 423.443 222.907 421.625 222.907 418.82V418.803C222.907 416.014 221.421 414.179 219.155 414.179C217.91 414.179 216.914 414.769 216.366 415.765H216.233V414.337H214.789V426.274ZM218.823 422.165C217.196 422.165 216.2 420.886 216.2 418.82V418.803C216.2 416.736 217.196 415.458 218.823 415.458C220.458 415.458 221.429 416.719 221.429 418.803V418.82C221.429 420.903 220.458 422.165 218.823 422.165ZM227.788 423.443C228.991 423.443 229.929 422.92 230.494 421.966H230.626V423.285H232.071V417.159C232.071 415.3 230.851 414.179 228.667 414.179C226.758 414.179 225.397 415.126 225.165 416.529L225.156 416.578H226.601L226.609 416.553C226.841 415.856 227.547 415.458 228.618 415.458C229.954 415.458 230.626 416.055 230.626 417.159V417.973L228.062 418.131C225.978 418.255 224.799 419.177 224.799 420.77V420.787C224.799 422.414 226.086 423.443 227.788 423.443ZM226.277 420.754V420.737C226.277 419.849 226.875 419.367 228.236 419.284L230.626 419.135V419.948C230.626 421.227 229.556 422.19 228.086 422.19C227.049 422.19 226.277 421.658 226.277 420.754Z" fill="#2B2D33"/>
<path d="M139.5 477.285C141.709 477.285 143.5 475.495 143.5 473.285C143.5 471.076 141.709 469.285 139.5 469.285C137.291 469.285 135.5 471.076 135.5 473.285C135.5 475.495 137.291 477.285 139.5 477.285Z" fill="#E9EAEA"/>
<path d="M171.5 477.285C173.709 477.285 175.5 475.495 175.5 473.285C175.5 471.076 173.709 469.285 171.5 469.285C169.291 469.285 167.5 471.076 167.5 473.285C167.5 475.495 169.291 477.285 171.5 477.285Z" fill="#5DB248"/>
<path d="M203.5 477.285C205.709 477.285 207.5 475.495 207.5 473.285C207.5 471.076 205.709 469.285 203.5 469.285C201.291 469.285 199.5 471.076 199.5 473.285C199.5 475.495 201.291 477.285 203.5 477.285Z" fill="#E9EAEA"/>
</svg>
