<svg width="56" height="56" viewBox="0 0 56 56" fill="none" xmlns="http://www.w3.org/2000/svg">
<rect width="56" height="56" rx="28" fill="#E7F8F4"/>
<g clip-path="url(#clip0_569_919)">
<path d="M40.0693 35.6407C40.0693 36.0752 39.9726 36.5218 39.7671 36.9564C39.5617 37.3909 39.2957 37.8013 38.9452 38.1876C38.3529 38.8394 37.7002 39.3101 36.9629 39.6119C36.2376 39.9137 35.4519 40.0706 34.6058 40.0706C33.3729 40.0706 32.0554 39.7809 30.6653 39.1894C29.2753 38.598 27.8852 37.8013 26.5073 36.7995C25.1172 35.7855 23.7997 34.663 22.5426 33.4197C21.2976 32.1644 20.1735 30.8487 19.1702 29.4726C18.179 28.0966 17.3813 26.7205 16.8011 25.3566C16.2209 23.9805 15.9308 22.6648 15.9308 21.4095C15.9308 20.5887 16.0758 19.8041 16.3659 19.0799C16.656 18.3436 17.1154 17.6676 17.756 17.0641C18.5296 16.3036 19.3757 15.9294 20.2702 15.9294C20.6086 15.9294 20.9471 16.0019 21.2492 16.1467C21.5635 16.2916 21.8415 16.5088 22.0591 16.8227L24.8634 20.7697C25.0809 21.0715 25.2381 21.3491 25.3469 21.6147C25.4557 21.8682 25.5161 22.1216 25.5161 22.351C25.5161 22.6407 25.4315 22.9304 25.2623 23.208C25.1051 23.4856 24.8755 23.7753 24.5854 24.065L23.6667 25.0186C23.5338 25.1514 23.4733 25.3083 23.4733 25.5014C23.4733 25.598 23.4854 25.6825 23.5096 25.779C23.5458 25.8756 23.5821 25.948 23.6063 26.0204C23.8239 26.4188 24.1986 26.9378 24.7304 27.5655C25.2743 28.1931 25.8545 28.8329 26.4831 29.4726C27.1358 30.1124 27.7644 30.7038 28.405 31.247C29.0335 31.7781 29.5533 32.1402 29.9643 32.3575C30.0247 32.3816 30.0972 32.4178 30.1818 32.454C30.2785 32.4903 30.3752 32.5023 30.484 32.5023C30.6895 32.5023 30.8466 32.4299 30.9796 32.2971L31.8982 31.3918C32.2004 31.0901 32.4905 30.8607 32.7685 30.7159C33.0465 30.5469 33.3246 30.4624 33.6267 30.4624C33.8564 30.4624 34.0981 30.5107 34.3641 30.6193C34.63 30.728 34.908 30.8849 35.2102 31.0901L39.2111 33.9267C39.5254 34.1439 39.743 34.3974 39.8759 34.6992C39.9968 35.0009 40.0693 35.3027 40.0693 35.6407Z" stroke="#80DBC5" stroke-width="2" stroke-miterlimit="10"/>
</g>
<defs>
<clipPath id="clip0_569_919">
<rect width="26" height="26" fill="white" transform="translate(15 15)"/>
</clipPath>
</defs>
</svg>
