<svg width="24" height="21" viewBox="0 0 24 21" fill="none" xmlns="http://www.w3.org/2000/svg">
<path d="M6.31109 6.86662H17.6889H22.6666L19.8222 15.4H8.44442L4.88887 1.17773H1.33331" stroke="#5DB248" stroke-width="2" stroke-miterlimit="10" stroke-linecap="round" stroke-linejoin="round"/>
<path d="M9.15599 19.6667C9.94146 19.6667 10.5782 19.03 10.5782 18.2445C10.5782 17.459 9.94146 16.8223 9.15599 16.8223C8.37052 16.8223 7.73376 17.459 7.73376 18.2445C7.73376 19.03 8.37052 19.6667 9.15599 19.6667Z" stroke="#5DB248" stroke-width="2" stroke-miterlimit="10" stroke-linecap="round" stroke-linejoin="round"/>
<path d="M18.3996 19.6667C19.1851 19.6667 19.8219 19.03 19.8219 18.2445C19.8219 17.459 19.1851 16.8223 18.3996 16.8223C17.6142 16.8223 16.9774 17.459 16.9774 18.2445C16.9774 19.03 17.6142 19.6667 18.3996 19.6667Z" stroke="#5DB248" stroke-width="2" stroke-miterlimit="10" stroke-linecap="round" stroke-linejoin="round"/>
</svg>
