<svg width="185" height="185" viewBox="0 0 185 185" fill="none" xmlns="http://www.w3.org/2000/svg">
<path d="M92.2168 183.434C142.594 183.434 183.434 142.594 183.434 92.2168C183.434 41.8391 142.594 1 92.2168 1C41.8391 1 1 41.8391 1 92.2168C1 142.594 41.8391 183.434 92.2168 183.434Z" stroke="#5DB248" stroke-width="2" stroke-linecap="round" stroke-linejoin="round"/>
<path d="M155.314 155.314C190.162 120.466 190.162 63.9664 155.314 29.1186C120.466 -5.7293 63.9663 -5.72931 29.1184 29.1186C-5.72942 63.9664 -5.72942 120.466 29.1184 155.314C63.9663 190.162 120.466 190.162 155.314 155.314Z" fill="white"/>
<path fill-rule="evenodd" clip-rule="evenodd" d="M46.9793 75.0439C46.9793 70.0065 48.3831 66.084 51.1907 63.2764C53.9983 60.4688 57.9102 59.0726 62.9264 59.0877C68.0696 59.0877 72.0299 60.4658 74.8072 63.222C77.5846 65.9782 78.9748 69.8416 78.9778 74.8124C78.9902 77.8632 78.3721 80.8837 77.1625 83.6845L63.303 116.268L49.1032 84.0475C47.9823 81.5062 46.9748 78.6517 46.9748 75.0439H46.9793ZM56.5094 73.8231C56.5094 76.4976 57.0888 78.4187 58.2476 79.5865C59.4063 80.7544 60.9886 81.3337 62.9944 81.3247C65.0412 81.3247 66.625 80.7528 67.7595 79.6092C68.894 78.4656 69.4477 76.4325 69.4477 73.4419C69.4477 70.9489 68.8608 69.1337 67.6869 67.9961C66.507 66.8389 64.9186 66.2671 62.9082 66.2671C62.0554 66.2292 61.2037 66.3649 60.4049 66.666C59.6061 66.9671 58.8768 67.4274 58.2612 68.0188C57.0933 69.1897 56.5094 71.1244 56.5094 73.8231Z" fill="#5DB248"/>
<path d="M83.7822 64.4349H99.6369C103.09 64.4349 105.673 65.2561 107.385 66.8984C109.112 68.5407 109.975 70.8779 109.975 73.9099C109.975 77.0261 109.035 79.4615 107.154 81.2161C105.287 82.9707 102.43 83.848 98.5841 83.848H93.3624V95.3021H83.7822V64.4349ZM93.3624 77.5946H95.6995C97.5384 77.5946 98.8298 77.2787 99.5737 76.6471C100.318 76.0014 100.69 75.1802 100.69 74.1836C100.69 73.215 100.367 72.3939 99.7211 71.7201C99.0754 71.0463 97.8612 70.7094 96.0785 70.7094H93.3624V77.5946Z" fill="#2B2D33"/>
<path d="M112.638 64.5756H141.631V72.1977H131.903V95.4428H122.365V72.1977H112.638V64.5756Z" fill="#2B2D33"/>
<path d="M44.3236 110.725H53.1882V132.349H67.0231V139.413H44.3236V110.725Z" fill="#2B2D33"/>
<path d="M88.7051 134.677H78.6077L77.2183 139.413H68.1581L78.9404 110.725H88.6072L99.3895 139.413H90.114L88.7051 134.677ZM86.846 128.474L83.6759 118.161L80.5254 128.474H86.846Z" fill="#2B2D33"/>
<path d="M97.1782 110.725H106.454L112.911 131.37L119.271 110.725H128.273L117.627 139.413H108.019L97.1782 110.725Z" fill="#2B2D33"/>
<path d="M29.4728 100.106H31.8872C32.4806 100.106 32.9208 100.156 33.2078 100.257C33.4987 100.354 33.7469 100.535 33.9525 100.798C34.1619 101.062 34.2666 101.378 34.2666 101.747C34.2666 102.041 34.2046 102.299 34.0805 102.52C33.9602 102.738 33.7779 102.92 33.5336 103.067C33.8245 103.164 34.065 103.346 34.255 103.614C34.4489 103.878 34.5459 104.192 34.5459 104.557C34.5071 105.142 34.2977 105.577 33.9176 105.86C33.5375 106.143 32.9848 106.284 32.2595 106.284H29.4728V100.106ZM30.52 102.707H31.637C32.083 102.707 32.3894 102.683 32.5562 102.637C32.723 102.59 32.8723 102.497 33.0042 102.357C33.136 102.214 33.202 102.043 33.202 101.845C33.202 101.52 33.0856 101.293 32.8529 101.165C32.6241 101.037 32.2304 100.973 31.6719 100.973H30.52V102.707ZM30.52 105.423H31.8988C32.4922 105.423 32.8995 105.356 33.1205 105.22C33.3416 105.08 33.458 104.842 33.4696 104.504C33.4696 104.306 33.4056 104.124 33.2776 103.957C33.1496 103.787 32.9828 103.68 32.7773 103.637C32.5717 103.591 32.242 103.568 31.7882 103.568H30.52V105.423Z" fill="#5DB248"/>
<path d="M39.8866 104.295L40.9688 104.429C40.7981 105.061 40.482 105.551 40.0204 105.9C39.5589 106.25 38.9694 106.424 38.2518 106.424C37.3481 106.424 36.6306 106.147 36.0992 105.592C35.5718 105.034 35.308 104.252 35.308 103.248C35.308 102.208 35.5756 101.401 36.1109 100.827C36.6461 100.253 37.3404 99.9663 38.1937 99.9663C39.0198 99.9663 39.6947 100.248 40.2183 100.81C40.7419 101.372 41.0037 102.164 41.0037 103.184C41.0037 103.246 41.0017 103.339 40.9978 103.463H36.3901C36.4289 104.142 36.6209 104.661 36.9661 105.022C37.3113 105.383 37.7418 105.563 38.2577 105.563C38.6416 105.563 38.9694 105.462 39.2409 105.261C39.5124 105.059 39.7276 104.737 39.8866 104.295ZM36.4483 102.602H39.8983C39.8517 102.082 39.7199 101.692 39.5027 101.432C39.1691 101.029 38.7367 100.827 38.2053 100.827C37.7244 100.827 37.319 100.988 36.9894 101.31C36.6636 101.632 36.4832 102.063 36.4483 102.602Z" fill="#5DB248"/>
<path d="M46.3211 104.021L47.3509 104.155C47.2384 104.865 46.9495 105.421 46.484 105.825C46.0225 106.224 45.4543 106.424 44.7794 106.424C43.9339 106.424 43.2532 106.149 42.7374 105.598C42.2254 105.043 41.9694 104.25 41.9694 103.218C41.9694 102.551 42.08 101.968 42.301 101.467C42.5221 100.967 42.8576 100.593 43.3075 100.344C43.7613 100.092 44.2539 99.9663 44.7852 99.9663C45.4562 99.9663 46.005 100.137 46.4317 100.478C46.8583 100.816 47.1317 101.297 47.252 101.921L46.2339 102.078C46.1369 101.663 45.9643 101.351 45.7161 101.142C45.4717 100.932 45.175 100.827 44.826 100.827C44.2985 100.827 43.8699 101.017 43.5402 101.398C43.2105 101.774 43.0457 102.371 43.0457 103.189C43.0457 104.019 43.2047 104.623 43.5228 104.999C43.8408 105.375 44.2558 105.563 44.7678 105.563C45.1789 105.563 45.5222 105.437 45.7975 105.185C46.0729 104.933 46.2474 104.545 46.3211 104.021Z" fill="#5DB248"/>
<path d="M48.2294 100.106H49.2766V102.52H50.603C51.468 102.52 52.1331 102.689 52.5985 103.026C53.0678 103.36 53.3025 103.822 53.3025 104.411C53.3025 104.927 53.1066 105.369 52.7149 105.738C52.327 106.102 51.7045 106.284 50.8474 106.284H48.2294V100.106ZM49.2766 105.423H50.3761C51.0394 105.423 51.5126 105.342 51.7957 105.179C52.0788 105.016 52.2204 104.762 52.2204 104.417C52.2204 104.149 52.1157 103.911 51.9062 103.701C51.6968 103.492 51.2333 103.387 50.5158 103.387H49.2766V105.423Z" fill="#5DB248"/>
<path d="M77.2835 103.195C77.2835 102.051 77.6015 101.204 78.2376 100.653C78.769 100.195 79.4167 99.9663 80.1808 99.9663C81.0302 99.9663 81.7244 100.246 82.2635 100.804C82.8027 101.359 83.0722 102.127 83.0722 103.108C83.0722 103.903 82.952 104.529 82.7115 104.987C82.4749 105.441 82.1278 105.794 81.6701 106.046C81.2163 106.298 80.7199 106.424 80.1808 106.424C79.3159 106.424 78.6158 106.147 78.0805 105.592C77.5492 105.038 77.2835 104.239 77.2835 103.195ZM78.3598 103.195C78.3598 103.986 78.5324 104.58 78.8776 104.975C79.2228 105.367 79.6572 105.563 80.1808 105.563C80.7005 105.563 81.1329 105.365 81.4781 104.97C81.8233 104.574 81.9959 103.971 81.9959 103.16C81.9959 102.396 81.8214 101.818 81.4723 101.427C81.1271 101.031 80.6966 100.833 80.1808 100.833C79.6572 100.833 79.2228 101.029 78.8776 101.421C78.5324 101.812 78.3598 102.404 78.3598 103.195Z" fill="#5DB248"/>
<path d="M84.3114 100.106H89.1867V106.284H88.1395V100.973H85.3586V106.284H84.3114V100.106Z" fill="#5DB248"/>
<path d="M90.199 100.106H95.2198V100.973H93.2301V106.284H92.1887V100.973H90.199V100.106Z" fill="#5DB248"/>
<path d="M99.5424 100.106H101.957C102.55 100.106 102.99 100.156 103.277 100.257C103.568 100.354 103.817 100.535 104.022 100.798C104.232 101.062 104.336 101.378 104.336 101.747C104.336 102.041 104.274 102.299 104.15 102.52C104.03 102.738 103.848 102.92 103.603 103.067C103.894 103.164 104.135 103.346 104.325 103.614C104.519 103.878 104.616 104.192 104.616 104.557C104.577 105.142 104.367 105.577 103.987 105.86C103.607 106.143 103.054 106.284 102.329 106.284H99.5424V100.106ZM100.59 102.707H101.707C102.153 102.707 102.459 102.683 102.626 102.637C102.793 102.59 102.942 102.497 103.074 102.357C103.206 102.214 103.272 102.043 103.272 101.845C103.272 101.52 103.155 101.293 102.923 101.165C102.694 101.037 102.3 100.973 101.742 100.973H100.59V102.707ZM100.59 105.423H101.968C102.562 105.423 102.969 105.356 103.19 105.22C103.411 105.08 103.528 104.842 103.539 104.504C103.539 104.306 103.475 104.124 103.347 103.957C103.219 103.787 103.053 103.68 102.847 103.637C102.641 103.591 102.312 103.568 101.858 103.568H100.59V105.423Z" fill="#5DB248"/>
<path d="M109.177 100.106H110.224V102.776C110.557 102.776 110.79 102.712 110.922 102.584C111.058 102.456 111.256 102.084 111.515 101.467C111.721 100.979 111.888 100.657 112.016 100.502C112.144 100.346 112.291 100.242 112.458 100.187C112.625 100.133 112.892 100.106 113.261 100.106H113.47V100.973L113.179 100.967C112.904 100.967 112.728 101.008 112.65 101.089C112.569 101.174 112.444 101.429 112.278 101.851C112.119 102.255 111.973 102.534 111.841 102.689C111.709 102.844 111.506 102.986 111.23 103.114C111.68 103.234 112.122 103.653 112.557 104.37L113.703 106.284H112.551L111.434 104.37C111.205 103.986 111.005 103.734 110.835 103.614C110.664 103.49 110.461 103.428 110.224 103.428V106.284H109.177V100.106Z" fill="#5DB248"/>
<path d="M118.695 105.522C118.307 105.852 117.933 106.085 117.572 106.22C117.215 106.356 116.831 106.424 116.42 106.424C115.741 106.424 115.219 106.259 114.855 105.93C114.49 105.596 114.308 105.171 114.308 104.655C114.308 104.353 114.376 104.078 114.512 103.829C114.651 103.577 114.832 103.376 115.053 103.224C115.278 103.073 115.53 102.959 115.809 102.881C116.015 102.827 116.325 102.774 116.74 102.724C117.585 102.623 118.208 102.503 118.607 102.363C118.611 102.22 118.613 102.129 118.613 102.09C118.613 101.663 118.514 101.363 118.316 101.188C118.049 100.951 117.651 100.833 117.124 100.833C116.631 100.833 116.267 100.92 116.03 101.095C115.797 101.266 115.625 101.57 115.512 102.008L114.488 101.869C114.581 101.43 114.735 101.078 114.948 100.81C115.161 100.538 115.47 100.331 115.873 100.187C116.276 100.04 116.744 99.9663 117.275 99.9663C117.803 99.9663 118.231 100.028 118.561 100.152C118.891 100.277 119.133 100.434 119.288 100.624C119.443 100.81 119.552 101.046 119.614 101.334C119.649 101.512 119.666 101.834 119.666 102.299V103.696C119.666 104.669 119.688 105.286 119.73 105.546C119.777 105.802 119.866 106.048 119.998 106.284H118.904C118.795 106.067 118.726 105.813 118.695 105.522ZM118.607 103.184C118.227 103.339 117.657 103.471 116.897 103.579C116.466 103.641 116.162 103.711 115.984 103.789C115.805 103.866 115.667 103.981 115.57 104.132C115.474 104.279 115.425 104.444 115.425 104.626C115.425 104.906 115.53 105.138 115.739 105.325C115.953 105.511 116.263 105.604 116.67 105.604C117.073 105.604 117.432 105.517 117.746 105.342C118.061 105.164 118.291 104.921 118.439 104.615C118.551 104.378 118.607 104.029 118.607 103.568V103.184Z" fill="#5DB248"/>
<path d="M121.295 108.652V100.106H122.249V100.909C122.474 100.595 122.728 100.36 123.011 100.205C123.295 100.046 123.638 99.9663 124.041 99.9663C124.569 99.9663 125.034 100.102 125.437 100.374C125.841 100.645 126.145 101.029 126.351 101.525C126.556 102.018 126.659 102.559 126.659 103.149C126.659 103.781 126.545 104.351 126.316 104.859C126.091 105.363 125.761 105.751 125.327 106.023C124.896 106.29 124.443 106.424 123.966 106.424C123.617 106.424 123.302 106.35 123.023 106.203C122.748 106.056 122.521 105.869 122.342 105.645V108.652H121.295ZM122.244 103.23C122.244 104.025 122.404 104.613 122.726 104.993C123.048 105.373 123.438 105.563 123.896 105.563C124.361 105.563 124.759 105.367 125.088 104.975C125.422 104.58 125.589 103.969 125.589 103.143C125.589 102.355 125.426 101.766 125.1 101.374C124.778 100.982 124.392 100.787 123.942 100.787C123.496 100.787 123.101 100.996 122.755 101.415C122.414 101.83 122.244 102.435 122.244 103.23Z" fill="#5DB248"/>
<path d="M127.957 100.106H129.586L131.209 105.051L133.012 100.106H134.519V106.284H133.472V101.31L131.645 106.284H130.708L128.981 101.072V106.284H127.957V100.106Z" fill="#5DB248"/>
<path d="M140.151 105.522C139.763 105.852 139.389 106.085 139.028 106.22C138.671 106.356 138.287 106.424 137.876 106.424C137.197 106.424 136.676 106.259 136.311 105.93C135.946 105.596 135.764 105.171 135.764 104.655C135.764 104.353 135.832 104.078 135.968 103.829C136.107 103.577 136.288 103.376 136.509 103.224C136.734 103.073 136.986 102.959 137.265 102.881C137.471 102.827 137.781 102.774 138.196 102.724C139.041 102.623 139.664 102.503 140.063 102.363C140.067 102.22 140.069 102.129 140.069 102.09C140.069 101.663 139.97 101.363 139.773 101.188C139.505 100.951 139.107 100.833 138.58 100.833C138.087 100.833 137.723 100.92 137.486 101.095C137.253 101.266 137.081 101.57 136.968 102.008L135.944 101.869C136.038 101.43 136.191 101.078 136.404 100.81C136.617 100.538 136.926 100.331 137.329 100.187C137.732 100.04 138.2 99.9663 138.731 99.9663C139.259 99.9663 139.687 100.028 140.017 100.152C140.347 100.277 140.589 100.434 140.744 100.624C140.899 100.81 141.008 101.046 141.07 101.334C141.105 101.512 141.122 101.834 141.122 102.299V103.696C141.122 104.669 141.144 105.286 141.186 105.546C141.233 105.802 141.322 106.048 141.454 106.284H140.36C140.252 106.067 140.182 105.813 140.151 105.522ZM140.063 103.184C139.683 103.339 139.113 103.471 138.353 103.579C137.923 103.641 137.618 103.711 137.44 103.789C137.261 103.866 137.124 103.981 137.027 104.132C136.93 104.279 136.881 104.444 136.881 104.626C136.881 104.906 136.986 105.138 137.195 105.325C137.409 105.511 137.719 105.604 138.126 105.604C138.529 105.604 138.888 105.517 139.202 105.342C139.517 105.164 139.747 104.921 139.895 104.615C140.007 104.378 140.063 104.029 140.063 103.568V103.184Z" fill="#5DB248"/>
<path d="M142.757 100.106H143.804V102.677H146.707V100.106H147.755V106.284H146.707V103.544H143.804V106.284H142.757V100.106Z" fill="#5DB248"/>
<path d="M153.567 104.295L154.649 104.429C154.478 105.061 154.162 105.551 153.7 105.9C153.239 106.25 152.649 106.424 151.932 106.424C151.028 106.424 150.311 106.147 149.779 105.592C149.252 105.034 148.988 104.252 148.988 103.248C148.988 102.208 149.256 101.401 149.791 100.827C150.326 100.253 151.02 99.9663 151.874 99.9663C152.7 99.9663 153.375 100.248 153.898 100.81C154.422 101.372 154.684 102.164 154.684 103.184C154.684 103.246 154.682 103.339 154.678 103.463H150.07C150.109 104.142 150.301 104.661 150.646 105.022C150.991 105.383 151.422 105.563 151.938 105.563C152.322 105.563 152.649 105.462 152.921 105.261C153.192 105.059 153.408 104.737 153.567 104.295ZM150.128 102.602H153.578C153.532 102.082 153.4 101.692 153.183 101.432C152.849 101.029 152.417 100.827 151.885 100.827C151.404 100.827 150.999 100.988 150.669 101.31C150.344 101.632 150.163 102.063 150.128 102.602Z" fill="#5DB248"/>
</svg>
