<svg width="343" height="477" viewBox="0 0 343 477" fill="none" xmlns="http://www.w3.org/2000/svg">
<path opacity="0.2" d="M314.245 113.9H282.984C281.049 113.9 279.481 115.435 279.481 117.329V133.262C279.481 135.156 281.049 136.692 282.984 136.692H314.245C316.18 136.692 317.748 135.156 317.748 133.262V117.329C317.748 115.435 316.18 113.9 314.245 113.9Z" fill="#263238"/>
<path d="M280.134 116.407L296.772 124.77C297.295 125.027 297.873 125.162 298.458 125.162C299.043 125.162 299.62 125.027 300.143 124.77L317.211 116.342" stroke="white" stroke-width="0.75" stroke-linecap="round" stroke-linejoin="round"/>
<path opacity="0.2" d="M74.6878 112.298C74.563 112.14 74.4028 112.012 74.2195 111.923C74.0362 111.835 73.8346 111.789 73.6303 111.789H39.4775L38.1391 107.915C38.0461 107.666 37.8774 107.451 37.6558 107.299C37.4342 107.147 37.1704 107.066 36.8999 107.065H28.2254C27.8918 107.091 27.5804 107.239 27.3532 107.48C27.1261 107.72 27 108.036 27 108.364C27 108.691 27.1261 109.007 27.3532 109.247C27.5804 109.488 27.8918 109.636 28.2254 109.662H35.9168L44.2526 134.16C44.3396 134.419 44.5078 134.644 44.7333 134.804C44.9588 134.964 45.23 135.05 45.5083 135.05H45.9958C45.5501 135.725 45.2986 136.506 45.2678 137.309C45.237 138.113 45.4281 138.91 45.8209 139.616C46.2136 140.322 46.7936 140.911 47.4997 141.322C48.2058 141.733 49.0119 141.95 49.8332 141.95C50.6545 141.95 51.4607 141.733 52.1668 141.322C52.8729 140.911 53.4528 140.322 53.8456 139.616C54.2383 138.91 54.4294 138.113 54.3986 137.309C54.3678 136.506 54.1163 135.725 53.6707 135.05H60.0402C59.5946 135.725 59.3431 136.506 59.3123 137.309C59.2815 138.113 59.4726 138.91 59.8653 139.616C60.2581 140.322 60.838 140.911 61.5441 141.322C62.2502 141.733 63.0564 141.95 63.8777 141.95C64.699 141.95 65.5051 141.733 66.2112 141.322C66.9173 140.911 67.4973 140.322 67.8901 139.616C68.2828 138.91 68.4739 138.113 68.4431 137.309C68.4123 136.506 68.1608 135.725 67.7151 135.05H68.7396C69.0732 135.024 69.3846 134.876 69.6117 134.635C69.8388 134.395 69.9649 134.079 69.9649 133.752C69.9649 133.424 69.8388 133.109 69.6117 132.868C69.3846 132.627 69.0732 132.479 68.7396 132.454H46.4336L44.9796 128.175H69.764C70.0557 128.174 70.3391 128.08 70.5705 127.906C70.8018 127.732 70.9684 127.488 71.0445 127.213L74.82 113.463C74.8931 113.272 74.9192 113.068 74.8963 112.865C74.8733 112.663 74.8019 112.469 74.6878 112.298V112.298ZM49.9034 139.288C49.5243 139.288 49.1538 139.178 48.8386 138.972C48.5234 138.766 48.2777 138.472 48.1327 138.13C47.9876 137.787 47.9496 137.409 48.0236 137.045C48.0976 136.681 48.2801 136.347 48.5481 136.085C48.8162 135.822 49.1577 135.644 49.5295 135.571C49.9013 135.499 50.2867 135.536 50.6369 135.678C50.9871 135.82 51.2865 136.06 51.4971 136.369C51.7077 136.678 51.8201 137.04 51.8201 137.412C51.8201 137.661 51.7692 137.909 51.6703 138.139C51.5714 138.369 51.4266 138.578 51.2442 138.753C51.0618 138.928 50.8456 139.065 50.6083 139.157C50.371 139.249 50.1173 139.293 49.8621 139.288H49.9034ZM63.9479 139.288C63.5688 139.288 63.1983 139.178 62.8831 138.972C62.5679 138.766 62.3222 138.472 62.1772 138.13C62.0321 137.787 61.9941 137.409 62.0681 137.045C62.142 136.681 62.3246 136.347 62.5926 136.085C62.8607 135.822 63.2022 135.644 63.574 135.571C63.9458 135.499 64.3312 135.536 64.6814 135.678C65.0316 135.82 65.331 136.06 65.5416 136.369C65.7522 136.678 65.8646 137.04 65.8646 137.412C65.8646 137.661 65.8137 137.909 65.7148 138.139C65.6159 138.369 65.4711 138.578 65.2887 138.753C65.1063 138.928 64.8901 139.065 64.6528 139.157C64.4154 139.249 64.1618 139.293 63.9066 139.288H63.9479ZM67.4838 125.538H62.5765V114.385H67.4838V125.538ZM55.0173 114.385H59.9246V125.538H55.0173V114.385ZM52.3653 125.538H47.4085V114.385H52.3653V125.538ZM40.3614 114.385H44.7483V125.538H44.1535L40.3614 114.385ZM70.1027 120.952V114.385H71.912L70.1027 120.952Z" fill="#263238"/>
<path opacity="0.2" d="M284.331 50.4496L287.396 49.0827L286.743 45.4836L283.364 45.2248C282.936 44.1135 282.367 43.0592 281.67 42.0866L283.414 39.2073L280.778 36.6192L277.812 38.35C276.106 37.2145 274.175 36.4429 272.145 36.0854L271.319 32.7693H267.585L266.759 36.1015C265.599 36.318 264.47 36.6711 263.396 37.153L260.728 34.8883L257.671 36.9831L258.927 40.2183C258.108 41.043 257.39 41.9576 256.787 42.944L253.268 42.5881L251.987 46.0255L254.903 47.9585C254.761 48.7598 254.689 49.5716 254.689 50.3849C254.689 50.7327 254.689 51.0724 254.73 51.4121L251.673 53.0863L252.64 56.6207H256.101C256.614 57.6787 257.255 58.6726 258.01 59.5809L256.481 62.5816L259.34 64.9271L262.116 62.986C263.157 63.574 264.266 64.0383 265.42 64.369L265.974 67.6042L269.7 67.9277L270.815 64.8219C272.037 64.7183 273.242 64.4656 274.4 64.0697L276.747 66.3991L279.985 64.5712L279.093 61.425C280.028 60.6443 280.86 59.7533 281.571 58.7721L284.876 59.3625L286.479 56.1112L283.901 54.0245C284.193 52.8545 284.337 51.6539 284.331 50.4496V50.4496ZM278.804 50.3849C278.804 52.1909 278.257 53.9564 277.232 55.458C276.207 56.9596 274.75 58.13 273.046 58.8211C271.342 59.5123 269.466 59.6931 267.657 59.3408C265.848 58.9884 264.186 58.1188 262.881 56.8417C261.577 55.5647 260.688 53.9376 260.329 52.1663C259.969 50.395 260.153 48.559 260.859 46.8905C261.565 45.222 262.761 43.7958 264.295 42.7925C265.828 41.7891 267.632 41.2536 269.477 41.2536C270.71 41.2482 271.932 41.4826 273.073 41.9432C274.213 42.4039 275.249 43.0816 276.119 43.937C276.99 44.7924 277.678 45.8086 278.145 46.9265C278.611 48.0445 278.847 49.242 278.837 50.4496L278.804 50.3849Z" fill="#263238"/>
<path opacity="0.2" d="M272.69 210.769C272.506 211.106 272.461 211.499 272.566 211.867C272.671 212.234 272.917 212.548 273.252 212.743C273.658 212.984 274.144 213.06 274.607 212.956C275.07 212.852 275.473 212.575 275.73 212.185L280.084 205.609L280.167 205.464L285.768 204.881L285.198 205.973C285.111 206.133 285.085 206.318 285.126 206.495C285.167 206.672 285.272 206.829 285.421 206.936C285.506 206.994 285.602 207.034 285.703 207.053C285.804 207.072 285.909 207.07 286.009 207.047C286.11 207.024 286.204 206.981 286.287 206.92C286.369 206.859 286.437 206.782 286.487 206.693L287.619 204.695L291.832 204.259L291.006 205.779C290.92 205.943 290.9 206.132 290.951 206.309C291.001 206.486 291.118 206.638 291.279 206.734C291.299 206.82 291.345 206.898 291.412 206.958C291.478 207.018 291.562 207.057 291.652 207.069C291.741 207.081 291.833 207.067 291.914 207.027C291.995 206.987 292.061 206.924 292.105 206.847L293.683 204.064L296.475 203.773C296.989 203.722 297.484 203.56 297.926 203.299C298.367 203.037 298.744 202.683 299.028 202.261L299.49 201.581L290.94 200.708C290.94 200.708 285.396 200.215 284.529 197.546L288.8 189.733L288.841 189.627L294.765 188.997L296.062 187.314L290.386 185.947L290.775 185.033C290.783 185.014 290.784 184.993 290.778 184.973C290.772 184.953 290.759 184.936 290.742 184.924C290.724 184.913 290.703 184.908 290.681 184.91C290.66 184.912 290.641 184.922 290.626 184.936L289.8 185.745L285.867 181.305L284.744 183.351L287.115 188.374L286.966 188.519L282.348 195.224C281.48 195.936 279.869 196.842 278.531 195.354C276.499 193.194 271.154 184.775 271.154 184.775L270.625 186.061C270.286 186.903 270.286 187.839 270.625 188.681L271.567 191.108L270.286 193.445C270.199 193.605 270.173 193.79 270.214 193.967C270.255 194.144 270.36 194.3 270.509 194.407C270.595 194.464 270.693 194.502 270.795 194.52C270.897 194.538 271.001 194.536 271.102 194.512C271.203 194.488 271.298 194.445 271.381 194.384C271.463 194.322 271.532 194.245 271.583 194.157L272.244 192.992L273.632 196.543L272.409 198.872C272.32 199.034 272.295 199.221 272.337 199.4C272.38 199.579 272.488 199.736 272.641 199.843C272.726 199.899 272.823 199.937 272.924 199.955C273.026 199.973 273.13 199.97 273.23 199.947C273.33 199.923 273.424 199.879 273.506 199.818C273.588 199.757 273.656 199.68 273.706 199.592L274.417 198.46L276.532 203.854L272.69 210.769Z" fill="#263238"/>
<path opacity="0.2" d="M118.333 30.0112H79.1572V53.0781H118.333V30.0112Z" fill="#263238"/>
<path d="M98.1504 47.9828C101.997 47.9828 105.115 44.9302 105.115 41.1646C105.115 37.399 101.997 34.3464 98.1504 34.3464C94.304 34.3464 91.186 37.399 91.186 41.1646C91.186 44.9302 94.304 47.9828 98.1504 47.9828Z" fill="white"/>
<path opacity="0.2" d="M103.206 41.1647L95.548 36.8376V45.4918L103.206 41.1647Z" fill="#263238"/>
<path opacity="0.2" d="M70.871 184.419V202.503C70.1077 202.108 69.256 201.905 68.3926 201.913C65.9968 201.913 64.0636 203.377 64.0636 205.148C64.0636 206.919 65.9968 208.424 68.3926 208.424C72.4242 208.424 72.7216 205.722 72.7216 205.722V189.838L84.2216 188.22V200.352C83.4562 199.963 82.6054 199.763 81.7431 199.77C79.3473 199.77 77.4141 201.234 77.4141 203.045C77.4141 204.857 79.3473 206.28 81.7431 206.28C83.8663 206.28 85.6343 205.108 85.9895 203.579L86.0556 187.945V182.283L70.871 184.419Z" fill="#263238"/>
<path opacity="0.2" d="M195.974 19.7153V17.6205C195.974 17.2752 195.834 16.944 195.585 16.6998C195.335 16.4556 194.997 16.3184 194.644 16.3184H192.389C192.036 16.3184 191.698 16.4556 191.448 16.6998C191.199 16.944 191.059 17.2752 191.059 17.6205V25.199H168.753V17.6205C168.753 17.2752 168.613 16.944 168.363 16.6998C168.114 16.4556 167.776 16.3184 167.423 16.3184H165.019C164.67 16.3247 164.338 16.4647 164.094 16.7082C163.85 16.9517 163.713 17.2793 163.713 17.6205V19.7153H160.169C159.768 19.7153 159.384 19.8712 159.1 20.1488C158.817 20.4264 158.657 20.8029 158.657 21.1954V31.0385C158.657 31.4318 158.816 31.8091 159.1 32.0879C159.383 32.3668 159.767 32.5245 160.169 32.5267H163.713V34.5972C163.715 34.9356 163.852 35.2599 164.094 35.5015C164.336 35.7431 164.665 35.8829 165.01 35.8913H167.414C167.767 35.8913 168.106 35.7541 168.355 35.5099C168.604 35.2657 168.745 34.9344 168.745 34.5891V28.6121H191.051V34.5486C191.045 34.7237 191.076 34.8981 191.14 35.0613C191.205 35.2245 191.303 35.3732 191.428 35.4986C191.553 35.6239 191.703 35.7233 191.868 35.7908C192.033 35.8583 192.21 35.8924 192.389 35.8913H194.644C194.997 35.8913 195.335 35.7541 195.585 35.5099C195.834 35.2657 195.974 34.9344 195.974 34.5891V32.4943H199.378C199.774 32.4923 200.154 32.339 200.436 32.0671C200.719 31.7952 200.881 31.4261 200.89 31.0385V21.1792C200.886 20.7895 200.724 20.4172 200.441 20.1431C200.158 19.869 199.776 19.7153 199.378 19.7153H195.974Z" fill="#263238"/>
<path opacity="0.2" d="M179.898 223.929C230.598 223.929 271.699 183.691 271.699 134.055C271.699 84.4194 230.598 44.1816 179.898 44.1816C129.197 44.1816 88.0962 84.4194 88.0962 134.055C88.0962 183.691 129.197 223.929 179.898 223.929Z" fill="#263238"/>
<path d="M179.898 216.876C226.619 216.876 264.495 179.796 264.495 134.055C264.495 88.3145 226.619 51.2344 179.898 51.2344C133.176 51.2344 95.3002 88.3145 95.3002 134.055C95.3002 179.796 133.176 216.876 179.898 216.876Z" fill="#5DB248" stroke="#263238" stroke-miterlimit="10"/>
<g opacity="0.2">
<path d="M179.898 136.765C179.529 136.767 179.163 136.696 178.822 136.557C178.482 136.418 178.173 136.214 177.915 135.956L124.703 82.4538C124.217 81.9343 123.957 81.25 123.977 80.5458C123.998 79.8417 124.298 79.1732 124.814 78.682C125.33 78.1908 126.02 77.9155 126.74 77.9146C127.459 77.9136 128.151 78.1869 128.668 78.6767L181.889 132.138C182.269 132.52 182.526 133.003 182.627 133.527C182.729 134.051 182.67 134.592 182.458 135.084C182.246 135.575 181.891 135.994 181.437 136.289C180.983 136.584 180.451 136.741 179.906 136.74L179.898 136.765Z" fill="#263238"/>
</g>
<path opacity="0.2" d="M156.03 152.399C155.435 152.401 154.854 152.216 154.375 151.87C153.896 151.524 153.543 151.036 153.37 150.478C153.196 149.921 153.211 149.323 153.412 148.775C153.613 148.226 153.989 147.755 154.485 147.433L178.361 131.798C178.971 131.42 179.708 131.29 180.415 131.437C181.122 131.584 181.742 131.995 182.143 132.583C182.544 133.171 182.695 133.889 182.562 134.584C182.43 135.28 182.025 135.896 181.434 136.303L157.567 151.938C157.112 152.236 156.578 152.397 156.03 152.399V152.399Z" fill="#263238"/>
<path d="M183.326 134.055C183.328 133.391 183.128 132.741 182.752 132.188C182.377 131.635 181.842 131.204 181.215 130.948C180.589 130.693 179.899 130.625 179.234 130.754C178.568 130.883 177.956 131.202 177.476 131.671C176.996 132.14 176.669 132.738 176.536 133.389C176.403 134.04 176.47 134.716 176.729 135.33C176.988 135.943 177.428 136.468 177.992 136.837C178.556 137.206 179.219 137.403 179.898 137.403C180.805 137.403 181.676 137.051 182.319 136.423C182.962 135.795 183.324 134.944 183.326 134.055V134.055Z" fill="#263238" stroke="#263238" stroke-miterlimit="10" stroke-linecap="round"/>
<path d="M179.964 58.6428V69.8366" stroke="#263238" stroke-width="2" stroke-miterlimit="10" stroke-linecap="round"/>
<path d="M179.964 197.4V208.594" stroke="#263238" stroke-width="2" stroke-miterlimit="10" stroke-linecap="round"/>
<path d="M256.547 133.618H245.105" stroke="#263238" stroke-width="2" stroke-miterlimit="10" stroke-linecap="round"/>
<path d="M114.814 133.618H103.38" stroke="#263238" stroke-width="2" stroke-miterlimit="10" stroke-linecap="round"/>
<path d="M220.123 69.7798L214.125 79.3155" stroke="#263238" stroke-width="2" stroke-miterlimit="10" stroke-linecap="round"/>
<path d="M145.794 187.921L139.796 197.457" stroke="#263238" stroke-width="2" stroke-miterlimit="10" stroke-linecap="round"/>
<path d="M247.336 97.9746L237.273 103.296" stroke="#263238" stroke-width="2" stroke-miterlimit="10" stroke-linecap="round"/>
<path d="M122.646 163.94L112.583 169.262" stroke="#263238" stroke-width="2" stroke-miterlimit="10" stroke-linecap="round"/>
<path d="M245.171 172.942L235.431 167.062" stroke="#263238" stroke-width="2" stroke-miterlimit="10" stroke-linecap="round"/>
<path d="M124.496 100.175L114.756 94.3027" stroke="#263238" stroke-width="2" stroke-miterlimit="10" stroke-linecap="round"/>
<path d="M216.372 199.584L210.936 189.725" stroke="#263238" stroke-width="2" stroke-miterlimit="10" stroke-linecap="round"/>
<path d="M148.991 77.512L143.555 67.6609" stroke="#263238" stroke-width="2" stroke-miterlimit="10" stroke-linecap="round"/>
<path d="M178.163 324.575C214.532 324.575 244.015 321.164 244.015 316.957C244.015 312.749 214.532 309.338 178.163 309.338C141.793 309.338 112.31 312.749 112.31 316.957C112.31 321.164 141.793 324.575 178.163 324.575Z" fill="#5DB248"/>
<path opacity="0.5" d="M178.163 324.575C214.532 324.575 244.015 321.164 244.015 316.957C244.015 312.749 214.532 309.338 178.163 309.338C141.793 309.338 112.31 312.749 112.31 316.957C112.31 321.164 141.793 324.575 178.163 324.575Z" fill="white"/>
<path d="M195.834 203.595C195.743 201.8 195.834 199.034 195.908 197.44C196.128 196.152 196.238 194.848 196.239 193.542C196.239 176.201 189.406 174.746 180.963 174.746C172.52 174.746 165.688 177.528 165.688 193.542C165.688 193.963 165.688 194.351 165.729 194.796C165.803 195.491 166.497 202.14 165.861 204.647C165.184 207.292 159.773 207.825 156.666 214.174C153.56 220.524 160.318 229.792 182.351 230.981C204.385 232.17 206.673 217.757 206.673 212.864C206.673 207.971 195.974 206.24 195.834 203.595Z" fill="#263238"/>
<path d="M165.151 194.86L165.696 194.804V194.731L165.151 194.86Z" fill="#263238"/>
<path d="M168.257 218.679C168.257 218.679 159.343 219.157 156.179 220.896C153.015 222.634 152.42 232.898 152.42 232.898L142.936 252.827C142.936 252.827 117.433 235.413 115.26 233.675C113.087 231.936 112.492 230.577 110.303 229.218C108.114 227.859 107.337 227.867 104.57 227.867C101.802 227.867 101.405 228.256 101.604 229.024C101.802 229.792 102.793 229.995 103.578 229.995C104.446 230.062 105.307 230.192 106.156 230.383L98.2412 233.48C96.2667 234.249 96.6633 231.151 94.8871 231.151C93.1109 231.151 93.3009 235.608 96.2667 237.735C99.2326 239.862 101.224 239.28 103.578 239.085C105.933 238.891 111.493 238.123 111.493 238.123C111.493 238.123 126.71 251.282 132.245 256.119C137.781 260.955 145.29 265.598 148.058 263.665C150.825 261.732 161.276 242.765 161.276 242.765L167.993 225.352C167.993 225.352 169.868 221.696 168.257 218.679Z" fill="white"/>
<path opacity="0.1" d="M168.257 218.679C168.257 218.679 159.343 219.157 156.179 220.896C153.015 222.634 152.42 232.898 152.42 232.898L142.936 252.827C142.936 252.827 117.433 235.413 115.26 233.675C113.087 231.936 112.492 230.577 110.303 229.218C108.114 227.859 107.337 227.867 104.57 227.867C101.802 227.867 101.405 228.256 101.604 229.024C101.802 229.792 102.793 229.995 103.578 229.995C104.446 230.062 105.307 230.192 106.156 230.383L98.2412 233.48C96.2667 234.249 96.6633 231.151 94.8871 231.151C93.1109 231.151 93.3009 235.608 96.2667 237.735C99.2326 239.862 101.224 239.28 103.578 239.085C105.933 238.891 111.493 238.123 111.493 238.123C111.493 238.123 126.71 251.282 132.245 256.119C137.781 260.955 145.29 265.598 148.058 263.665C150.825 261.732 161.276 242.765 161.276 242.765L167.993 225.352C167.993 225.352 169.868 221.696 168.257 218.679Z" fill="black"/>
<path d="M168.257 218.679C168.257 218.679 159.343 219.157 156.179 220.896C153.015 222.634 152.42 232.898 152.42 232.898L142.936 252.827C142.936 252.827 117.433 235.413 115.26 233.675C113.087 231.936 112.492 230.577 110.303 229.218C108.114 227.859 107.337 227.867 104.57 227.867C101.802 227.867 101.405 228.256 101.604 229.024C101.802 229.792 102.793 229.995 103.578 229.995C104.446 230.062 105.307 230.192 106.156 230.383L98.2412 233.48C96.2667 234.249 96.6633 231.151 94.8871 231.151C93.1109 231.151 93.3009 235.608 96.2667 237.735C99.2326 239.862 101.224 239.28 103.578 239.085C105.933 238.891 111.493 238.123 111.493 238.123C111.493 238.123 126.71 251.282 132.245 256.119C137.781 260.955 145.29 265.598 148.058 263.665C150.825 261.732 161.276 242.765 161.276 242.765L167.993 225.352C167.993 225.352 169.868 221.696 168.257 218.679Z" stroke="#263238" stroke-miterlimit="10" stroke-linecap="round"/>
<path d="M96.8368 238.163C96.8368 238.163 92.9869 235.106 95.0605 232.113C95.5728 231.369 96.7128 232.494 97.0433 234.54C97.3738 236.586 98.4147 237.379 98.9517 237.524" fill="white"/>
<path opacity="0.1" d="M96.8368 238.163C96.8368 238.163 92.9869 235.106 95.0605 232.113C95.5728 231.369 96.7128 232.494 97.0433 234.54C97.3738 236.586 98.4147 237.379 98.9517 237.524" fill="black"/>
<path d="M96.8368 238.163C96.8368 238.163 92.9869 235.106 95.0605 232.113C95.5728 231.369 96.7128 232.494 97.0433 234.54C97.3738 236.586 98.4147 237.379 98.9517 237.524" stroke="#263238" stroke-miterlimit="10" stroke-linecap="round"/>
<path d="M99.7118 237.492C98.7948 237.492 98.8443 235.066 97.1177 233.909C95.7463 232.963 95.9198 234.823 96.242 236.335C96.3681 236.956 96.6822 237.525 97.1435 237.967C97.6048 238.41 98.1918 238.707 98.8278 238.818V238.818C99.4195 238.963 100.035 238.988 100.637 238.891" fill="white"/>
<path opacity="0.1" d="M99.7118 237.492C98.7948 237.492 98.8443 235.066 97.1177 233.909C95.7463 232.963 95.9198 234.823 96.242 236.335C96.3681 236.956 96.6822 237.525 97.1435 237.967C97.6048 238.41 98.1918 238.707 98.8278 238.818V238.818C99.4195 238.963 100.035 238.988 100.637 238.891" fill="black"/>
<path d="M99.7118 237.492C98.7948 237.492 98.8443 235.066 97.1177 233.909C95.7463 232.963 95.9198 234.823 96.242 236.335C96.3681 236.956 96.6822 237.525 97.1435 237.967C97.6048 238.41 98.1918 238.707 98.8278 238.818V238.818C99.4195 238.963 100.035 238.988 100.637 238.891" stroke="#263238" stroke-miterlimit="10" stroke-linecap="round"/>
<path d="M111.311 233.537C111.311 233.537 110.014 232.639 107.494 233.464C104.974 234.289 102 237.872 101.314 237.573C100.673 237.213 100.186 236.639 99.9431 235.955C99.5548 235.211 98.803 234.135 98.2908 235.001C97.1507 236.893 100.257 239.045 100.257 239.045C100.257 239.045 100.687 239.401 103.091 239.118C105.495 238.835 110.923 238.09 110.923 238.09" fill="white"/>
<path opacity="0.1" d="M111.311 233.537C111.311 233.537 110.014 232.639 107.494 233.464C104.974 234.289 102 237.872 101.314 237.573C100.673 237.213 100.186 236.639 99.9431 235.955C99.5548 235.211 98.803 234.135 98.2908 235.001C97.1507 236.893 100.257 239.045 100.257 239.045C100.257 239.045 100.687 239.401 103.091 239.118C105.495 238.835 110.923 238.09 110.923 238.09" fill="black"/>
<path d="M111.311 233.537C111.311 233.537 110.014 232.639 107.494 233.464C104.974 234.289 102 237.872 101.314 237.573C100.673 237.213 100.186 236.639 99.9431 235.955C99.5548 235.211 98.803 234.135 98.2908 235.001C97.1507 236.893 100.257 239.045 100.257 239.045C100.257 239.045 100.687 239.401 103.091 239.118C105.495 238.835 110.923 238.09 110.923 238.09" stroke="#263238" stroke-miterlimit="10" stroke-linecap="round"/>
<path d="M161.425 238.617L158.542 230.537" stroke="#263238" stroke-miterlimit="10" stroke-linecap="round"/>
<path d="M191.397 218.502C191.397 218.502 200.791 219.157 203.955 220.928C207.119 222.699 207.714 232.931 207.714 232.931L217.198 252.859C217.198 252.859 242.701 235.446 244.874 233.707C247.047 231.968 247.641 230.609 249.831 229.251C252.02 227.892 252.797 227.9 255.564 227.9C258.332 227.9 258.728 228.288 258.53 229.057C258.332 229.825 257.34 230.027 256.547 230.027C255.682 230.095 254.824 230.225 253.978 230.415L261.884 233.513C263.867 234.281 263.47 231.184 265.247 231.184C267.023 231.184 266.833 235.64 263.867 237.767C260.901 239.894 258.91 239.312 256.547 239.118C254.185 238.924 248.641 238.155 248.641 238.155C248.641 238.155 233.424 251.315 227.888 256.151C222.353 260.988 214.843 265.63 212.076 263.697C209.308 261.764 198.858 242.798 198.858 242.798L192.141 225.385C192.141 225.385 189.795 221.519 191.397 218.502Z" fill="white"/>
<path opacity="0.1" d="M191.397 218.502C191.397 218.502 200.791 219.157 203.955 220.928C207.119 222.699 207.714 232.931 207.714 232.931L217.198 252.859C217.198 252.859 242.701 235.446 244.874 233.707C247.047 231.968 247.641 230.609 249.831 229.251C252.02 227.892 252.797 227.9 255.564 227.9C258.332 227.9 258.728 228.288 258.53 229.057C258.332 229.825 257.34 230.027 256.547 230.027C255.682 230.095 254.824 230.225 253.978 230.415L261.884 233.513C263.867 234.281 263.47 231.184 265.247 231.184C267.023 231.184 266.833 235.64 263.867 237.767C260.901 239.894 258.91 239.312 256.547 239.118C254.185 238.924 248.641 238.155 248.641 238.155C248.641 238.155 233.424 251.315 227.888 256.151C222.353 260.988 214.843 265.63 212.076 263.697C209.308 261.764 198.858 242.798 198.858 242.798L192.141 225.385C192.141 225.385 189.795 221.519 191.397 218.502Z" fill="black"/>
<path d="M191.397 218.502C191.397 218.502 200.791 219.157 203.955 220.928C207.119 222.699 207.714 232.931 207.714 232.931L217.198 252.859C217.198 252.859 242.701 235.446 244.874 233.707C247.047 231.968 247.641 230.609 249.831 229.251C252.02 227.892 252.797 227.9 255.564 227.9C258.332 227.9 258.728 228.288 258.53 229.057C258.332 229.825 257.34 230.027 256.547 230.027C255.682 230.095 254.824 230.225 253.978 230.415L261.884 233.513C263.867 234.281 263.47 231.184 265.247 231.184C267.023 231.184 266.833 235.64 263.867 237.767C260.901 239.894 258.91 239.312 256.547 239.118C254.185 238.924 248.641 238.155 248.641 238.155C248.641 238.155 233.424 251.315 227.888 256.151C222.353 260.988 214.843 265.63 212.076 263.697C209.308 261.764 198.858 242.798 198.858 242.798L192.141 225.385C192.141 225.385 189.795 221.519 191.397 218.502Z" stroke="#263238" stroke-miterlimit="10" stroke-linecap="round"/>
<path d="M198.858 236.926L201.154 230.351" stroke="#263238" stroke-miterlimit="10" stroke-linecap="round"/>
<path d="M264.247 237.064C264.247 237.064 265.899 232.494 265.073 232.114C264.247 231.734 263.421 232.494 263.09 234.54C262.76 236.586 261.719 237.379 261.182 237.525" fill="white"/>
<path opacity="0.1" d="M265.379 236.077C265.379 236.077 265.916 232.494 265.073 232.114C264.231 231.734 263.421 232.494 263.09 234.54C262.76 236.586 261.719 237.379 261.182 237.525" fill="black"/>
<path d="M264.247 237.064C264.247 237.064 265.899 232.494 265.073 232.114C264.247 231.734 263.421 232.494 263.09 234.54C262.76 236.586 261.719 237.379 261.182 237.525" stroke="#263238" stroke-miterlimit="10" stroke-linecap="round"/>
<path d="M262.991 237.88C262.991 237.88 265.073 232.114 262.661 233.642C260.885 234.766 261.339 237.492 260.422 237.492" fill="white"/>
<path opacity="0.1" d="M263.47 237.945C263.47 237.945 265.073 232.114 262.644 233.642C260.868 234.767 261.322 237.492 260.405 237.492" fill="black"/>
<path d="M262.991 237.88C262.991 237.88 265.073 232.114 262.661 233.642C260.885 234.766 261.339 237.492 260.422 237.492" stroke="#263238" stroke-miterlimit="10" stroke-linecap="round"/>
<path d="M248.806 233.537C248.806 233.537 250.103 232.639 252.623 233.464C255.143 234.289 258.117 237.872 258.803 237.573C259.444 237.213 259.931 236.639 260.174 235.955C260.554 235.211 261.248 234.766 261.703 235.656C262.157 236.546 260.786 239.174 260.786 239.174C260.786 239.174 259.959 239.749 257.935 239.288C255.65 238.749 253.328 238.374 250.987 238.163" fill="white"/>
<path opacity="0.1" d="M248.806 233.537C248.806 233.537 250.103 232.639 252.623 233.464C255.143 234.289 258.117 237.872 258.803 237.573C259.444 237.213 259.931 236.639 260.174 235.955C260.554 235.211 261.248 234.766 261.703 235.656C262.157 236.546 260.786 239.174 260.786 239.174C260.786 239.174 259.959 239.749 257.935 239.288C255.911 238.827 250.442 237.403 249.195 237.403" fill="black"/>
<path d="M248.806 233.537C248.806 233.537 250.103 232.639 252.623 233.464C255.143 234.289 258.117 237.872 258.803 237.573C259.444 237.213 259.931 236.639 260.174 235.955C260.554 235.211 261.248 234.766 261.703 235.656C262.157 236.546 260.786 239.174 260.786 239.174C260.786 239.174 259.959 239.749 257.935 239.288C255.65 238.749 253.328 238.374 250.987 238.163" stroke="#263238" stroke-miterlimit="10" stroke-linecap="round"/>
<path d="M176.37 206.903C176.37 206.903 175.965 211.408 174.073 214.449C172.181 217.49 168.29 218.679 168.29 218.679L160.59 241.843L164.614 257.502C164.614 257.502 157.443 268.178 154.626 274.664C151.809 281.151 155.196 288.487 158.17 291.528C161.144 294.569 165.093 298.694 175.172 298.306C189.216 297.764 199.13 299.017 203.633 293.857C208.135 288.697 208.59 278.951 203.236 271.599C199.998 267.126 195.578 257.461 195.578 257.461L199.956 241.326L193.248 218.679C193.248 218.679 189.208 218.453 186.779 215.541C184.35 212.63 184.887 207.332 184.887 207.332L176.37 206.903Z" fill="white"/>
<path opacity="0.1" d="M176.37 206.903C176.37 206.903 175.965 211.408 174.073 214.449C172.181 217.49 168.29 218.679 168.29 218.679L160.59 241.843L164.614 257.502C164.614 257.502 157.443 268.178 154.626 274.664C151.809 281.151 155.196 288.487 158.17 291.528C161.144 294.569 165.093 298.694 175.172 298.306C189.216 297.764 199.13 299.017 203.633 293.857C208.135 288.697 208.59 278.951 203.236 271.599C199.998 267.126 195.578 257.461 195.578 257.461L199.956 241.326L193.248 218.679C193.248 218.679 189.208 218.453 186.779 215.541C184.35 212.63 184.887 207.332 184.887 207.332L176.37 206.903Z" fill="black"/>
<path d="M176.37 206.903C176.37 206.903 175.965 211.408 174.073 214.449C172.181 217.49 168.29 218.679 168.29 218.679L160.59 241.843L164.614 257.502C164.614 257.502 157.443 268.178 154.626 274.664C151.809 281.151 155.196 288.487 158.17 291.528C161.144 294.569 165.093 298.694 175.172 298.306C189.216 297.764 199.13 299.017 203.633 293.857C208.135 288.697 208.59 278.951 203.236 271.599C199.998 267.126 195.578 257.461 195.578 257.461L199.956 241.326L193.248 218.679C193.248 218.679 189.208 218.453 186.779 215.541C184.35 212.63 184.887 207.332 184.887 207.332L176.37 206.903Z" stroke="#263238" stroke-miterlimit="10" stroke-linecap="round"/>
<path d="M199.956 241.326L193.248 218.679C192.575 218.633 191.909 218.525 191.257 218.356C192.034 223.621 191.108 226.258 191.108 226.258C190.975 227.413 190.562 228.521 189.902 229.487C189.242 230.454 188.356 231.252 187.316 231.814C183.673 233.933 176.775 234.33 172.446 230.892C169.141 228.296 169.761 221.187 170.248 217.846C169.611 218.181 168.944 218.46 168.257 218.679L160.557 241.843L164.614 257.502H195.561L199.956 241.326Z" fill="#263238" stroke="#263238" stroke-miterlimit="10" stroke-linecap="round"/>
<path d="M169.819 196.397C169.819 196.397 167.34 193.227 166.464 195.588C165.589 197.95 169.942 200.045 169.942 200.045L169.819 196.397Z" fill="white"/>
<path opacity="0.1" d="M169.819 196.397C169.819 196.397 167.34 193.227 166.464 195.588C165.589 197.95 169.942 200.045 169.942 200.045L169.819 196.397Z" fill="black"/>
<path d="M169.819 196.397C169.819 196.397 167.34 193.227 166.464 195.588C165.589 197.95 169.942 200.045 169.942 200.045L169.819 196.397Z" stroke="#263238" stroke-miterlimit="10" stroke-linecap="round"/>
<path d="M191.736 196.397C191.736 196.397 194.256 193.227 195.09 195.588C195.925 197.95 191.621 200.045 191.621 200.045L191.736 196.397Z" fill="white"/>
<path opacity="0.1" d="M191.736 196.397C191.736 196.397 194.256 193.227 195.09 195.588C195.925 197.95 191.621 200.045 191.621 200.045L191.736 196.397Z" fill="black"/>
<path d="M191.736 196.397C191.736 196.397 194.256 193.227 195.09 195.588C195.925 197.95 191.621 200.045 191.621 200.045L191.736 196.397Z" stroke="#263238" stroke-miterlimit="10" stroke-linecap="round"/>
<path d="M180.889 210.066C178.005 210.066 175.24 208.944 173.201 206.948C171.162 204.952 170.017 202.245 170.017 199.422V183.092C170.016 182.571 170.12 182.055 170.323 181.573C170.526 181.092 170.824 180.654 171.2 180.285C171.576 179.916 172.022 179.623 172.514 179.424C173.006 179.224 173.533 179.121 174.065 179.121H187.672C188.21 179.112 188.746 179.207 189.247 179.402C189.747 179.598 190.203 179.889 190.588 180.258C190.973 180.628 191.278 181.069 191.487 181.556C191.695 182.042 191.802 182.565 191.802 183.092V199.446C191.798 200.845 191.512 202.229 190.961 203.52C190.411 204.811 189.606 205.983 188.592 206.969C187.579 207.955 186.377 208.736 185.055 209.267C183.733 209.799 182.318 210.07 180.889 210.066V210.066Z" fill="white"/>
<path opacity="0.1" d="M180.889 210.066C178.005 210.066 175.24 208.944 173.201 206.948C171.162 204.952 170.017 202.245 170.017 199.422V183.092C170.016 182.571 170.12 182.055 170.323 181.573C170.526 181.092 170.824 180.654 171.2 180.285C171.576 179.916 172.022 179.623 172.514 179.424C173.006 179.224 173.533 179.121 174.065 179.121H187.672C188.21 179.112 188.746 179.207 189.247 179.402C189.747 179.598 190.203 179.889 190.588 180.258C190.973 180.628 191.278 181.069 191.487 181.556C191.695 182.042 191.802 182.565 191.802 183.092V199.446C191.798 200.845 191.512 202.229 190.961 203.52C190.411 204.811 189.606 205.983 188.592 206.969C187.579 207.955 186.377 208.736 185.055 209.267C183.733 209.799 182.318 210.07 180.889 210.066V210.066Z" fill="black"/>
<path d="M180.889 210.066C178.005 210.066 175.24 208.944 173.201 206.948C171.162 204.952 170.017 202.245 170.017 199.422V183.092C170.016 182.571 170.12 182.055 170.323 181.573C170.526 181.092 170.824 180.654 171.2 180.285C171.576 179.916 172.022 179.623 172.514 179.424C173.006 179.224 173.533 179.121 174.065 179.121H187.672C188.21 179.112 188.746 179.207 189.247 179.402C189.747 179.598 190.203 179.889 190.588 180.258C190.973 180.628 191.278 181.069 191.487 181.556C191.695 182.042 191.802 182.565 191.802 183.092V199.446C191.798 200.845 191.512 202.229 190.961 203.52C190.411 204.811 189.606 205.983 188.592 206.969C187.579 207.955 186.377 208.736 185.055 209.267C183.733 209.799 182.318 210.07 180.889 210.066V210.066Z" stroke="#263238" stroke-miterlimit="10" stroke-linecap="round"/>
<path d="M172.801 192.175C173.547 192.659 174.422 192.918 175.317 192.918C176.211 192.918 177.086 192.659 177.832 192.175" stroke="#263238" stroke-miterlimit="10" stroke-linecap="round"/>
<path d="M184.07 192.175C184.814 192.66 185.687 192.918 186.581 192.918C187.475 192.918 188.348 192.66 189.093 192.175" stroke="#263238" stroke-miterlimit="10" stroke-linecap="round"/>
<path d="M181.913 190.42L182.632 197.214H179.757" stroke="#263238" stroke-miterlimit="10" stroke-linecap="round"/>
<path d="M179.873 201.08H182.748" stroke="#263238" stroke-miterlimit="10" stroke-linecap="round"/>
<path d="M180.996 179.097H174.065C173.533 179.097 173.006 179.2 172.514 179.399C172.022 179.599 171.576 179.892 171.2 180.261C170.824 180.629 170.526 181.067 170.323 181.549C170.12 182.031 170.016 182.547 170.017 183.068V191.156C174.453 187.379 179.617 180.884 180.996 179.097Z" fill="#263238" stroke="#263238" stroke-miterlimit="10"/>
<path d="M191.802 191.463V183.092C191.802 182.039 191.375 181.029 190.614 180.284C189.853 179.539 188.822 179.121 187.746 179.121H181.542C182.971 183.553 188.498 188.754 191.802 191.463Z" fill="#263238" stroke="#263238" stroke-miterlimit="10"/>
<path d="M172.33 189.013C172.33 189.013 173.627 186.78 177.758 187.136" stroke="#263238" stroke-width="2" stroke-miterlimit="10" stroke-linecap="round"/>
<path d="M183.227 187.136C184.326 186.688 185.55 186.63 186.688 186.973C187.826 187.315 188.805 188.037 189.456 189.013" stroke="#263238" stroke-width="2" stroke-miterlimit="10" stroke-linecap="round"/>
<path d="M154.626 274.664C151.784 281.135 155.196 288.487 158.17 291.528C161.144 294.569 165.093 298.694 175.172 298.306C189.216 297.764 199.13 299.017 203.633 293.857C208.135 288.697 208.59 278.951 203.236 271.599C202.026 269.859 200.922 268.049 199.932 266.18H159.128C157.464 268.923 155.961 271.755 154.626 274.664V274.664Z" fill="#263238" stroke="#263238" stroke-miterlimit="10" stroke-linecap="round"/>
<path d="M176.733 287.791C169.62 280.569 156.708 276.954 150.379 275.918C144.051 274.883 132.46 268.639 132.46 268.639C132.46 268.639 125.603 268.413 126.132 276.412C126.661 284.411 146.422 293.704 154.072 297.829C157.509 299.727 161.359 300.79 165.302 300.931C169.245 301.072 173.165 300.285 176.733 298.637" fill="#263238"/>
<path d="M176.733 287.791C169.62 280.569 156.708 276.954 150.379 275.918C144.051 274.883 132.46 268.639 132.46 268.639C132.46 268.639 125.603 268.413 126.132 276.412C126.661 284.411 146.422 293.704 154.072 297.829C157.509 299.727 161.359 300.79 165.302 300.931C169.245 301.072 173.165 300.285 176.733 298.637" stroke="#263238" stroke-miterlimit="10" stroke-linecap="round"/>
<path d="M181.186 288.05C188.299 280.828 201.212 277.212 207.54 276.177C213.869 275.142 223.708 269.868 223.708 269.868C223.708 269.868 232.316 268.696 231.788 276.695C231.259 284.694 211.498 293.979 203.847 298.112C200.41 300.008 196.56 301.07 192.617 301.211C188.675 301.352 184.755 300.566 181.186 298.92" fill="#263238"/>
<path d="M181.186 288.05C188.299 280.828 201.212 277.212 207.54 276.177C213.869 275.142 223.708 269.868 223.708 269.868C223.708 269.868 232.316 268.696 231.788 276.695C231.259 284.694 211.498 293.979 203.847 298.112C200.41 300.008 196.56 301.07 192.617 301.211C188.675 301.352 184.755 300.566 181.186 298.92" stroke="#263238" stroke-miterlimit="10" stroke-linecap="round"/>
<path d="M210.878 300.676C210.878 300.676 211.853 300.045 211.365 298.451C210.878 296.858 208.276 298.128 206.483 298.128C204.69 298.128 197.858 297.489 194.611 297.173C191.827 296.898 187.275 296.979 186.011 297.004C186.195 298.963 185.784 300.933 184.83 302.665L185.466 302.73C191.001 303.264 193.405 303.369 195.099 303.717C198.188 304.356 201.6 306.903 205.012 306.75C208.424 306.596 211.522 304.323 211.522 302.924C211.556 302.127 211.331 301.339 210.878 300.676V300.676Z" fill="white"/>
<path opacity="0.1" d="M210.878 300.676C210.878 300.676 211.853 300.045 211.365 298.451C210.878 296.858 208.276 298.128 206.483 298.128C204.69 298.128 197.858 297.489 194.611 297.173C191.827 296.898 187.275 296.979 186.011 297.004C186.195 298.963 185.784 300.933 184.83 302.665L185.466 302.73C191.001 303.264 193.405 303.369 195.099 303.717C198.188 304.356 201.6 306.903 205.012 306.75C208.424 306.596 211.522 304.323 211.522 302.924C211.556 302.127 211.331 301.339 210.878 300.676V300.676Z" fill="black"/>
<path d="M210.878 300.676C210.878 300.676 211.853 300.045 211.365 298.451C210.878 296.858 208.276 298.128 206.483 298.128C204.69 298.128 197.858 297.489 194.611 297.173C191.827 296.898 187.275 296.979 186.011 297.004C186.195 298.963 185.784 300.933 184.83 302.665L185.466 302.73C191.001 303.264 193.405 303.369 195.099 303.717C198.188 304.356 201.6 306.903 205.012 306.75C208.424 306.596 211.522 304.323 211.522 302.924C211.556 302.127 211.331 301.339 210.878 300.676V300.676Z" stroke="#263238" stroke-miterlimit="10" stroke-linecap="round"/>
<path d="M210.878 300.676C209.929 300.833 208.96 300.833 208.011 300.676" stroke="#263238" stroke-miterlimit="10" stroke-linecap="round"/>
<path d="M211.531 302.908C210.269 303.003 209.001 303.003 207.739 302.908" stroke="#263238" stroke-miterlimit="10" stroke-linecap="round"/>
<path d="M207.103 304.331C207.991 304.818 209.026 304.984 210.027 304.8" stroke="#263238" stroke-miterlimit="10" stroke-linecap="round"/>
<path d="M205.847 305.375C206.689 305.771 207.632 305.914 208.557 305.787" stroke="#263238" stroke-miterlimit="10" stroke-linecap="round"/>
<path d="M184.83 302.649C185.784 300.916 186.195 298.947 186.011 296.987H185.656C185.656 296.987 173.131 294.464 162.722 288.236C152.312 282.008 139.127 272.473 132.46 268.647C125.793 264.821 119.44 270.556 120.068 276.614C120.696 282.672 125.76 285.85 134.873 289.554C143.985 293.259 160.582 298.953 169.364 300.7C173.916 301.581 179.782 302.188 184.83 302.649Z" fill="#263238" stroke="#263238" stroke-miterlimit="10" stroke-linecap="round"/>
<path d="M170.199 304.331C169.247 302.598 168.839 300.629 169.025 298.67H169.372C169.372 298.67 181.897 296.122 192.314 289.91C202.732 283.699 215.901 274.139 222.576 270.313C229.251 266.488 235.588 272.23 234.968 278.28C234.349 284.33 229.276 287.516 220.164 291.18C211.051 294.844 194.462 300.578 185.672 302.334C181.112 303.256 175.279 303.862 170.199 304.331Z" fill="#263238" stroke="#263238" stroke-miterlimit="10" stroke-linecap="round"/>
<path d="M169.025 298.686C169.025 298.686 156.972 299.147 153.147 298.888C149.322 298.629 146.422 296.817 145.373 297.723C144.324 298.629 145.637 300.045 145.637 300.045C145.637 300.045 145.241 302.236 146.298 303.401C147.356 304.566 148.777 305.593 153.279 306.887C157.782 308.181 162.367 306.353 164.845 305.706L170.174 304.331C170.174 304.331 168.951 302.479 169.025 298.686Z" fill="white"/>
<path opacity="0.1" d="M169.025 298.686C169.025 298.686 156.972 299.147 153.147 298.888C149.322 298.629 146.422 296.817 145.373 297.723C144.324 298.629 145.637 300.045 145.637 300.045C145.637 300.045 145.241 302.236 146.298 303.401C147.356 304.566 148.777 305.593 153.279 306.887C157.782 308.181 162.367 306.353 164.845 305.706L170.174 304.331C170.174 304.331 168.951 302.479 169.025 298.686Z" fill="black"/>
<path d="M169.025 298.686C169.025 298.686 156.972 299.147 153.147 298.888C149.322 298.629 146.422 296.817 145.373 297.723C144.324 298.629 145.637 300.045 145.637 300.045C145.637 300.045 145.241 302.236 146.298 303.401C147.356 304.566 148.777 305.593 153.279 306.887C157.782 308.181 162.367 306.353 164.845 305.706L170.174 304.331C170.174 304.331 168.951 302.479 169.025 298.686Z" stroke="#263238" stroke-miterlimit="10" stroke-linecap="round"/>
<path d="M145.637 300.044C145.91 299.865 146.23 299.77 146.558 299.77C146.886 299.77 147.207 299.865 147.48 300.044C148.111 300.466 148.831 300.742 149.586 300.853" stroke="#263238" stroke-miterlimit="10" stroke-linecap="round"/>
<path d="M145.786 302.552C145.997 302.366 146.25 302.233 146.526 302.165C146.801 302.098 147.088 302.097 147.364 302.164C147.993 302.339 148.643 302.432 149.297 302.439" stroke="#263238" stroke-miterlimit="10" stroke-linecap="round"/>
<path d="M147.802 304.598C147.802 304.598 148.033 303.943 148.471 303.943C148.909 303.943 150.718 304.177 151.189 304.137" stroke="#263238" stroke-miterlimit="10" stroke-linecap="round"/>
<path d="M150.363 305.876C150.363 305.876 150.801 305.294 151.189 305.261C151.687 305.193 152.189 305.152 152.693 305.14" stroke="#263238" stroke-miterlimit="10" stroke-linecap="round"/>
<path d="M175.155 298.306C175.155 298.306 200.369 286.174 210.556 279.275" stroke="white" stroke-miterlimit="10" stroke-linecap="round"/>
<path d="M146.695 277.722C146.695 277.722 168.241 294.213 180.385 295.362" stroke="white" stroke-miterlimit="10" stroke-linecap="round"/>
<path d="M156.782 277.277C156.782 277.277 173.173 282.251 177.436 288.673" stroke="white" stroke-miterlimit="10" stroke-linecap="round"/>
<path d="M183.177 286.424C183.177 286.424 193.339 279.364 203.831 277.277" stroke="white" stroke-miterlimit="10" stroke-linecap="round"/>
<path d="M10.166 374.568C13.4697 374.568 15.5366 372.152 15.5366 368.309V368.292C15.5366 364.441 13.4697 362.025 10.1743 362.025C7.62598 362.025 5.63379 363.586 5.25195 365.868L5.24365 365.918H6.7627L6.7876 365.827C7.18604 364.366 8.51416 363.403 10.1743 363.403C12.2993 363.403 13.7188 364.964 13.9595 367.487H8.64697V368.832H13.9844C13.8184 371.521 12.374 373.19 10.166 373.19C8.47266 373.19 7.15283 372.326 6.7793 371.007L6.7627 370.948H5.24365L5.25195 370.998C5.60059 373.082 7.60938 374.568 10.166 374.568ZM20.0024 370.21L23.5054 374.285H25.3564L21.1729 369.554L25.1987 365.337H23.4639L20.0024 369.081H19.5459V365.337H18.1016V374.285H19.5459V370.21H20.0024ZM30.6191 374.443C33.1675 374.443 34.7446 372.683 34.7446 369.82V369.803C34.7446 366.931 33.1675 365.179 30.6191 365.179C28.0708 365.179 26.4937 366.931 26.4937 369.803V369.82C26.4937 372.683 28.0708 374.443 30.6191 374.443ZM30.6191 373.165C28.9258 373.165 27.9712 371.928 27.9712 369.82V369.803C27.9712 367.686 28.9258 366.458 30.6191 366.458C32.3125 366.458 33.2671 367.686 33.2671 369.803V369.82C33.2671 371.928 32.3125 373.165 30.6191 373.165ZM43.0205 374.285H44.4648V365.337H43.0205V369.039H38.5879V365.337H37.1436V374.285H38.5879V370.235H43.0205V374.285ZM50.9893 374.443C53.5376 374.443 55.1147 372.683 55.1147 369.82V369.803C55.1147 366.931 53.5376 365.179 50.9893 365.179C48.4409 365.179 46.8638 366.931 46.8638 369.803V369.82C46.8638 372.683 48.4409 374.443 50.9893 374.443ZM50.9893 373.165C49.2959 373.165 48.3413 371.928 48.3413 369.82V369.803C48.3413 367.686 49.2959 366.458 50.9893 366.458C52.6826 366.458 53.6372 367.686 53.6372 369.803V369.82C53.6372 371.928 52.6826 373.165 50.9893 373.165ZM58.958 374.285V367.919H59.1157L61.9297 374.036H63.042L65.8643 367.919H66.022V374.285H67.4663V365.337H65.7896L62.5854 372.277H62.4526L59.2651 365.337H57.5137V374.285H58.958ZM70.3135 374.285H73.5093C75.5596 374.285 76.8711 373.107 76.8711 371.256V371.239C76.8711 369.388 75.5596 368.209 73.5093 368.209H71.7578V365.337H70.3135V374.285ZM73.5093 369.405C74.6797 369.405 75.4268 370.127 75.4268 371.239V371.256C75.4268 372.36 74.688 373.09 73.5093 373.09H71.7578V369.405H73.5093ZM84.7485 365.337H77.5103V366.532H80.4072V374.285H81.8516V366.532H84.7485V365.337ZM90.1606 374.443C92.269 374.443 93.5474 373.248 93.8545 372.036L93.8711 371.969H92.4268L92.3936 372.044C92.1528 372.584 91.4058 373.156 90.1938 373.156C88.6001 373.156 87.5791 372.077 87.5376 370.226H93.979V369.662C93.979 366.989 92.5015 365.179 90.0693 365.179C87.6372 365.179 86.0601 367.072 86.0601 369.836V369.844C86.0601 372.65 87.604 374.443 90.1606 374.443ZM90.061 366.466C91.3809 366.466 92.3604 367.304 92.5098 369.073H87.5625C87.7202 367.371 88.7329 366.466 90.061 366.466ZM104.828 374.443C106.978 374.443 108.182 373.289 108.547 371.671L108.563 371.579L107.136 371.588L107.119 371.637C106.787 372.634 106.023 373.165 104.82 373.165C103.226 373.165 102.197 371.845 102.197 369.786V369.77C102.197 367.753 103.209 366.458 104.82 366.458C106.106 366.458 106.903 367.172 107.127 368.052L107.136 368.076H108.572L108.563 368.027C108.298 366.433 106.995 365.179 104.82 365.179C102.313 365.179 100.719 366.989 100.719 369.77V369.786C100.719 372.625 102.321 374.443 104.828 374.443ZM110.838 374.285H114.648C116.574 374.285 117.711 373.273 117.711 371.72V371.704C117.711 370.666 116.989 369.869 115.852 369.712V369.579C116.69 369.405 117.312 368.566 117.312 367.678V367.661C117.312 366.259 116.325 365.337 114.631 365.337H110.838V374.285ZM112.282 369.122V366.532H114.424C115.428 366.532 115.876 367.047 115.876 367.811V367.827C115.876 368.674 115.354 369.122 114.191 369.122H112.282ZM112.282 373.09V370.318H114.316C115.603 370.318 116.242 370.733 116.242 371.679V371.696C116.242 372.592 115.686 373.09 114.59 373.09H112.282ZM123.754 374.443C126.302 374.443 127.879 372.683 127.879 369.82V369.803C127.879 366.931 126.302 365.179 123.754 365.179C121.206 365.179 119.628 366.931 119.628 369.803V369.82C119.628 372.683 121.206 374.443 123.754 374.443ZM123.754 373.165C122.061 373.165 121.106 371.928 121.106 369.82V369.803C121.106 367.686 122.061 366.458 123.754 366.458C125.447 366.458 126.402 367.686 126.402 369.803V369.82C126.402 371.928 125.447 373.165 123.754 373.165ZM133.939 374.443C136.047 374.443 137.326 373.248 137.633 372.036L137.649 371.969H136.205L136.172 372.044C135.931 372.584 135.184 373.156 133.972 373.156C132.378 373.156 131.357 372.077 131.316 370.226H137.757V369.662C137.757 366.989 136.28 365.179 133.848 365.179C131.416 365.179 129.838 367.072 129.838 369.836V369.844C129.838 372.65 131.382 374.443 133.939 374.443ZM133.839 366.466C135.159 366.466 136.139 367.304 136.288 369.073H131.341C131.499 367.371 132.511 366.466 133.839 366.466ZM144.938 374.285H148.748C150.673 374.285 151.811 373.273 151.811 371.72V371.704C151.811 370.666 151.088 369.869 149.951 369.712V369.579C150.79 369.405 151.412 368.566 151.412 367.678V367.661C151.412 366.259 150.424 365.337 148.731 365.337H144.938V374.285ZM146.382 369.122V366.532H148.523C149.528 366.532 149.976 367.047 149.976 367.811V367.827C149.976 368.674 149.453 369.122 148.291 369.122H146.382ZM146.382 373.09V370.318H148.416C149.702 370.318 150.341 370.733 150.341 371.679V371.696C150.341 372.592 149.785 373.09 148.689 373.09H146.382ZM154.259 377.274H155.704V372.874H155.836C156.326 373.829 157.397 374.443 158.625 374.443C160.9 374.443 162.377 372.625 162.377 369.82V369.803C162.377 367.014 160.892 365.179 158.625 365.179C157.38 365.179 156.384 365.769 155.836 366.765H155.704V365.337H154.259V377.274ZM158.293 373.165C156.667 373.165 155.67 371.886 155.67 369.82V369.803C155.67 367.736 156.667 366.458 158.293 366.458C159.929 366.458 160.9 367.719 160.9 369.803V369.82C160.9 371.903 159.929 373.165 158.293 373.165ZM168.454 374.443C170.562 374.443 171.84 373.248 172.147 372.036L172.164 371.969H170.72L170.687 372.044C170.446 372.584 169.699 373.156 168.487 373.156C166.893 373.156 165.872 372.077 165.831 370.226H172.272V369.662C172.272 366.989 170.794 365.179 168.362 365.179C165.93 365.179 164.353 367.072 164.353 369.836V369.844C164.353 372.65 165.897 374.443 168.454 374.443ZM168.354 366.466C169.674 366.466 170.653 367.304 170.803 369.073H165.855C166.013 367.371 167.026 366.466 168.354 366.466ZM176.115 374.285V367.919H176.273L179.087 374.036H180.199L183.021 367.919H183.179V374.285H184.624V365.337H182.947L179.743 372.277H179.61L176.422 365.337H174.671V374.285H176.115ZM192.219 374.285H193.663V365.337H190.55C188.5 365.337 187.188 366.458 187.188 368.292V368.309C187.188 369.529 187.952 370.459 189.214 370.816L186.715 374.285H188.417L190.7 371.081H192.219V374.285ZM190.55 369.886C189.38 369.886 188.666 369.214 188.666 368.276V368.259C188.666 367.18 189.372 366.532 190.55 366.532H192.219V369.886H190.55ZM201.283 374.285H202.728L207.152 367.612H207.285V374.285H208.729V365.337H207.285L202.86 372.011H202.728V365.337H201.283V374.285ZM220.026 374.443C222.176 374.443 223.38 373.289 223.745 371.671L223.762 371.579L222.334 371.588L222.317 371.637C221.985 372.634 221.222 373.165 220.018 373.165C218.424 373.165 217.395 371.845 217.395 369.786V369.77C217.395 367.753 218.408 366.458 220.018 366.458C221.305 366.458 222.102 367.172 222.326 368.052L222.334 368.076H223.77L223.762 368.027C223.496 366.433 222.193 365.179 220.018 365.179C217.511 365.179 215.917 366.989 215.917 369.77V369.786C215.917 372.625 217.52 374.443 220.026 374.443ZM226.036 374.285H227.48L231.905 367.612H232.038V374.285H233.482V365.337H232.038L227.613 372.011H227.48V365.337H226.036V374.285ZM238.429 370.782L238.761 366.532H241.874V374.285H243.318V365.337H237.466L237.084 370.666C236.993 371.994 236.661 373.032 235.839 373.032C235.624 373.032 235.399 372.999 235.325 372.974V374.277C235.441 374.319 235.673 374.368 235.98 374.368C237.475 374.368 238.238 373.248 238.429 370.782ZM246.157 374.285H249.353C251.403 374.285 252.715 373.107 252.715 371.256V371.239C252.715 369.388 251.403 368.209 249.353 368.209H247.602V365.337H246.157V374.285ZM254.275 374.285H255.72V365.337H254.275V374.285ZM249.353 369.405C250.523 369.405 251.271 370.127 251.271 371.239V371.256C251.271 372.36 250.532 373.09 249.353 373.09H247.602V369.405H249.353ZM258.119 377.332H259.189L260.493 372.609H258.841L258.119 377.332ZM274.87 365.337H267.631V366.532H270.528V374.285H271.973V366.532H274.87V365.337ZM280.282 374.443C282.39 374.443 283.668 373.248 283.976 372.036L283.992 371.969H282.548L282.515 372.044C282.274 372.584 281.527 373.156 280.315 373.156C278.721 373.156 277.7 372.077 277.659 370.226H284.1V369.662C284.1 366.989 282.623 365.179 280.19 365.179C277.758 365.179 276.181 367.072 276.181 369.836V369.844C276.181 372.65 277.725 374.443 280.282 374.443ZM280.182 366.466C281.502 366.466 282.481 367.304 282.631 369.073H277.684C277.841 367.371 278.854 366.466 280.182 366.466ZM286.499 374.285H287.943V366.532H292.293V374.285H293.737V365.337H286.499V374.285ZM300.237 374.443C302.345 374.443 303.624 373.248 303.931 372.036L303.947 371.969H302.503L302.47 372.044C302.229 372.584 301.482 373.156 300.27 373.156C298.676 373.156 297.655 372.077 297.614 370.226H304.055V369.662C304.055 366.989 302.578 365.179 300.146 365.179C297.713 365.179 296.136 367.072 296.136 369.836V369.844C296.136 372.65 297.68 374.443 300.237 374.443ZM300.137 366.466C301.457 366.466 302.437 367.304 302.586 369.073H297.639C297.796 367.371 298.809 366.466 300.137 366.466ZM306.462 377.274H307.907V372.874H308.04C308.529 373.829 309.6 374.443 310.829 374.443C313.103 374.443 314.581 372.625 314.581 369.82V369.803C314.581 367.014 313.095 365.179 310.829 365.179C309.583 365.179 308.587 365.769 308.04 366.765H307.907V365.337H306.462V377.274ZM310.497 373.165C308.87 373.165 307.874 371.886 307.874 369.82V369.803C307.874 367.736 308.87 366.458 310.497 366.458C312.132 366.458 313.103 367.719 313.103 369.803V369.82C313.103 371.903 312.132 373.165 310.497 373.165ZM316.996 374.285H320.192C322.242 374.285 323.554 373.107 323.554 371.256V371.239C323.554 369.388 322.242 368.209 320.192 368.209H318.44V365.337H316.996V374.285ZM320.192 369.405C321.362 369.405 322.109 370.127 322.109 371.239V371.256C322.109 372.36 321.371 373.09 320.192 373.09H318.44V369.405H320.192ZM334.229 374.443C336.378 374.443 337.582 373.289 337.947 371.671L337.964 371.579L336.536 371.588L336.52 371.637C336.188 372.634 335.424 373.165 334.22 373.165C332.626 373.165 331.597 371.845 331.597 369.786V369.77C331.597 367.753 332.61 366.458 334.22 366.458C335.507 366.458 336.304 367.172 336.528 368.052L336.536 368.076H337.972L337.964 368.027C337.698 366.433 336.395 365.179 334.22 365.179C331.713 365.179 330.12 366.989 330.12 369.77V369.786C330.12 372.625 331.722 374.443 334.229 374.443ZM24.0117 398.568C27.4316 398.568 29.5068 396.119 29.5068 392.301V392.284C29.5068 388.449 27.415 386.025 24.0117 386.025C20.625 386.025 18.5166 388.441 18.5166 392.284V392.301C18.5166 396.127 20.5752 398.568 24.0117 398.568ZM24.0117 397.19C21.5215 397.19 20.0439 395.264 20.0439 392.301V392.284C20.0439 389.296 21.5713 387.403 24.0117 387.403C26.4604 387.403 27.9795 389.296 27.9795 392.284V392.301C27.9795 395.264 26.4688 397.19 24.0117 397.19ZM32.0718 398.285H33.5161V390.532H37.8657V398.285H39.3101V389.337H32.0718V398.285ZM48.6318 389.337H41.3936V390.532H44.2905V398.285H45.7349V390.532H48.6318V389.337ZM50.209 398.368C52.3257 398.368 53.0811 396.683 53.2637 393.803L53.6455 387.652H58.186V398.285H59.6802V386.307H52.2842L51.8525 393.745C51.7446 395.621 51.4292 396.999 50.0762 396.999C49.9434 396.999 49.7192 396.974 49.6279 396.949V398.285C49.769 398.335 49.9849 398.368 50.209 398.368ZM65.1836 398.443C66.3872 398.443 67.3252 397.92 67.8896 396.966H68.0225V398.285H69.4668V392.159C69.4668 390.3 68.2466 389.179 66.0635 389.179C64.1543 389.179 62.793 390.126 62.5605 391.529L62.5522 391.578H63.9966L64.0049 391.553C64.2373 390.856 64.9429 390.458 66.0137 390.458C67.3501 390.458 68.0225 391.055 68.0225 392.159V392.973L65.4575 393.131C63.374 393.255 62.1953 394.177 62.1953 395.77V395.787C62.1953 397.414 63.4819 398.443 65.1836 398.443ZM63.6729 395.754V395.737C63.6729 394.849 64.2705 394.367 65.6318 394.284L68.0225 394.135V394.948C68.0225 396.227 66.9517 397.19 65.4824 397.19C64.4448 397.19 63.6729 396.658 63.6729 395.754ZM72.2642 398.285H76.0742C78 398.285 79.1372 397.273 79.1372 395.72V395.704C79.1372 394.666 78.415 393.869 77.2778 393.712V393.579C78.1162 393.405 78.7388 392.566 78.7388 391.678V391.661C78.7388 390.259 77.751 389.337 76.0576 389.337H72.2642V398.285ZM73.7085 393.122V390.532H75.8501C76.8545 390.532 77.3027 391.047 77.3027 391.811V391.827C77.3027 392.674 76.7798 393.122 75.6177 393.122H73.7085ZM73.7085 397.09V394.318H75.7422C77.0288 394.318 77.668 394.733 77.668 395.679V395.696C77.668 396.592 77.1118 397.09 76.0161 397.09H73.7085ZM86.3589 398.285H90.1689C92.0947 398.285 93.2319 397.273 93.2319 395.72V395.704C93.2319 394.666 92.5098 393.869 91.3726 393.712V393.579C92.2109 393.405 92.8335 392.566 92.8335 391.678V391.661C92.8335 390.259 91.8457 389.337 90.1523 389.337H86.3589V398.285ZM87.8032 393.122V390.532H89.9448C90.9492 390.532 91.3975 391.047 91.3975 391.811V391.827C91.3975 392.674 90.8745 393.122 89.7124 393.122H87.8032ZM87.8032 397.09V394.318H89.8369C91.1235 394.318 91.7627 394.733 91.7627 395.679V395.696C91.7627 396.592 91.2065 397.09 90.1108 397.09H87.8032ZM99.25 398.443C101.358 398.443 102.637 397.248 102.944 396.036L102.96 395.969H101.516L101.483 396.044C101.242 396.584 100.495 397.156 99.2832 397.156C97.6895 397.156 96.6685 396.077 96.627 394.226H103.068V393.662C103.068 390.989 101.591 389.179 99.1587 389.179C96.7266 389.179 95.1494 391.072 95.1494 393.836V393.844C95.1494 396.65 96.6934 398.443 99.25 398.443ZM99.1504 390.466C100.47 390.466 101.45 391.304 101.599 393.073H96.6519C96.8096 391.371 97.8223 390.466 99.1504 390.466ZM109.136 398.443C111.286 398.443 112.49 397.289 112.855 395.671L112.872 395.579L111.444 395.588L111.427 395.637C111.095 396.634 110.332 397.165 109.128 397.165C107.534 397.165 106.505 395.845 106.505 393.786V393.77C106.505 391.753 107.518 390.458 109.128 390.458C110.415 390.458 111.211 391.172 111.436 392.052L111.444 392.076H112.88L112.872 392.027C112.606 390.433 111.303 389.179 109.128 389.179C106.621 389.179 105.027 390.989 105.027 393.77V393.786C105.027 396.625 106.629 398.443 109.136 398.443ZM115.146 398.285H118.342C120.392 398.285 121.704 397.107 121.704 395.256V395.239C121.704 393.388 120.392 392.209 118.342 392.209H116.59V389.337H115.146V398.285ZM118.342 393.405C119.512 393.405 120.259 394.127 120.259 395.239V395.256C120.259 396.36 119.521 397.09 118.342 397.09H116.59V393.405H118.342ZM135.192 389.337H127.954V390.532H130.851V398.285H132.295V390.532H135.192V389.337ZM140.629 398.443C143.178 398.443 144.755 396.683 144.755 393.82V393.803C144.755 390.931 143.178 389.179 140.629 389.179C138.081 389.179 136.504 390.931 136.504 393.803V393.82C136.504 396.683 138.081 398.443 140.629 398.443ZM140.629 397.165C138.936 397.165 137.981 395.928 137.981 393.82V393.803C137.981 391.686 138.936 390.458 140.629 390.458C142.323 390.458 143.277 391.686 143.277 393.803V393.82C143.277 395.928 142.323 397.165 140.629 397.165ZM147.154 398.285H150.964C152.89 398.285 154.027 397.273 154.027 395.72V395.704C154.027 394.666 153.305 393.869 152.167 393.712V393.579C153.006 393.405 153.628 392.566 153.628 391.678V391.661C153.628 390.259 152.641 389.337 150.947 389.337H147.154V398.285ZM148.598 393.122V390.532H150.74C151.744 390.532 152.192 391.047 152.192 391.811V391.827C152.192 392.674 151.669 393.122 150.507 393.122H148.598ZM148.598 397.09V394.318H150.632C151.918 394.318 152.558 394.733 152.558 395.679V395.696C152.558 396.592 152.001 397.09 150.906 397.09H148.598ZM158.933 398.443C160.136 398.443 161.074 397.92 161.639 396.966H161.771V398.285H163.216V392.159C163.216 390.3 161.996 389.179 159.812 389.179C157.903 389.179 156.542 390.126 156.31 391.529L156.301 391.578H157.746L157.754 391.553C157.986 390.856 158.692 390.458 159.763 390.458C161.099 390.458 161.771 391.055 161.771 392.159V392.973L159.207 393.131C157.123 393.255 155.944 394.177 155.944 395.77V395.787C155.944 397.414 157.231 398.443 158.933 398.443ZM157.422 395.754V395.737C157.422 394.849 158.02 394.367 159.381 394.284L161.771 394.135V394.948C161.771 396.227 160.701 397.19 159.231 397.19C158.194 397.19 157.422 396.658 157.422 395.754ZM166.021 401.274H167.466V396.874H167.599C168.088 397.829 169.159 398.443 170.388 398.443C172.662 398.443 174.14 396.625 174.14 393.82V393.803C174.14 391.014 172.654 389.179 170.388 389.179C169.143 389.179 168.146 389.769 167.599 390.765H167.466V389.337H166.021V401.274ZM170.056 397.165C168.429 397.165 167.433 395.886 167.433 393.82V393.803C167.433 391.736 168.429 390.458 170.056 390.458C171.691 390.458 172.662 391.719 172.662 393.803V393.82C172.662 395.903 171.691 397.165 170.056 397.165ZM181.336 398.285H182.781L187.205 391.612H187.338V398.285H188.782V389.337H187.338L182.914 396.011H182.781V389.337H181.336V398.285ZM196.411 398.285H200.221C202.146 398.285 203.284 397.273 203.284 395.72V395.704C203.284 394.666 202.562 393.869 201.424 393.712V393.579C202.263 393.405 202.885 392.566 202.885 391.678V391.661C202.885 390.259 201.897 389.337 200.204 389.337H196.411V398.285ZM197.855 393.122V390.532H199.997C201.001 390.532 201.449 391.047 201.449 391.811V391.827C201.449 392.674 200.926 393.122 199.764 393.122H197.855ZM197.855 397.09V394.318H199.889C201.175 394.318 201.814 394.733 201.814 395.679V395.696C201.814 396.592 201.258 397.09 200.163 397.09H197.855ZM209.31 398.443C211.46 398.443 212.664 397.289 213.029 395.671L213.045 395.579L211.618 395.588L211.601 395.637C211.269 396.634 210.505 397.165 209.302 397.165C207.708 397.165 206.679 395.845 206.679 393.786V393.77C206.679 391.753 207.691 390.458 209.302 390.458C210.588 390.458 211.385 391.172 211.609 392.052L211.618 392.076H213.054L213.045 392.027C212.78 390.433 211.477 389.179 209.302 389.179C206.795 389.179 205.201 390.989 205.201 393.77V393.786C205.201 396.625 206.803 398.443 209.31 398.443ZM218.98 398.443C221.089 398.443 222.367 397.248 222.674 396.036L222.691 395.969H221.247L221.213 396.044C220.973 396.584 220.226 397.156 219.014 397.156C217.42 397.156 216.399 396.077 216.357 394.226H222.799V393.662C222.799 390.989 221.321 389.179 218.889 389.179C216.457 389.179 214.88 391.072 214.88 393.836V393.844C214.88 396.65 216.424 398.443 218.98 398.443ZM218.881 390.466C220.201 390.466 221.18 391.304 221.33 393.073H216.382C216.54 391.371 217.553 390.466 218.881 390.466ZM229.979 398.285H231.423V390.532H235.773V398.285H237.217V389.337H229.979V398.285ZM240.064 401.274H241.509V396.874H241.642C242.131 397.829 243.202 398.443 244.431 398.443C246.705 398.443 248.183 396.625 248.183 393.82V393.803C248.183 391.014 246.697 389.179 244.431 389.179C243.186 389.179 242.189 389.769 241.642 390.765H241.509V389.337H240.064V401.274ZM244.099 397.165C242.472 397.165 241.476 395.886 241.476 393.82V393.803C241.476 391.736 242.472 390.458 244.099 390.458C245.734 390.458 246.705 391.719 246.705 393.803V393.82C246.705 395.903 245.734 397.165 244.099 397.165ZM254.284 398.443C256.832 398.443 258.409 396.683 258.409 393.82V393.803C258.409 390.931 256.832 389.179 254.284 389.179C251.735 389.179 250.158 390.931 250.158 393.803V393.82C250.158 396.683 251.735 398.443 254.284 398.443ZM254.284 397.165C252.59 397.165 251.636 395.928 251.636 393.82V393.803C251.636 391.686 252.59 390.458 254.284 390.458C255.977 390.458 256.932 391.686 256.932 393.803V393.82C256.932 395.928 255.977 397.165 254.284 397.165ZM260.933 400.651V398.285H267.93V400.651H269.275V397.09H267.847V389.337H261.746L261.397 394.326C261.314 395.53 260.991 396.658 260.335 397.09H259.588V400.651H260.933ZM266.403 397.09H262.003V396.957C262.427 396.401 262.659 395.447 262.742 394.359L263.024 390.532H266.403V397.09ZM273.616 398.443C274.82 398.443 275.758 397.92 276.322 396.966H276.455V398.285H277.899V392.159C277.899 390.3 276.679 389.179 274.496 389.179C272.587 389.179 271.226 390.126 270.993 391.529L270.985 391.578H272.429L272.438 391.553C272.67 390.856 273.375 390.458 274.446 390.458C275.783 390.458 276.455 391.055 276.455 392.159V392.973L273.89 393.131C271.807 393.255 270.628 394.177 270.628 395.77V395.787C270.628 397.414 271.915 398.443 273.616 398.443ZM272.105 395.754V395.737C272.105 394.849 272.703 394.367 274.064 394.284L276.455 394.135V394.948C276.455 396.227 275.384 397.19 273.915 397.19C272.877 397.19 272.105 396.658 272.105 395.754ZM280.697 398.285H284.507C286.433 398.285 287.57 397.273 287.57 395.72V395.704C287.57 394.666 286.848 393.869 285.71 393.712V393.579C286.549 393.405 287.171 392.566 287.171 391.678V391.661C287.171 390.259 286.184 389.337 284.49 389.337H280.697V398.285ZM282.141 393.122V390.532H284.283C285.287 390.532 285.735 391.047 285.735 391.811V391.827C285.735 392.674 285.212 393.122 284.05 393.122H282.141ZM282.141 397.09V394.318H284.175C285.461 394.318 286.101 394.733 286.101 395.679V395.696C286.101 396.592 285.544 397.09 284.449 397.09H282.141ZM297.298 400.651H298.676V397.09H297.249V389.337H295.804V397.09H291.455V389.337H290.01V398.285H297.298V400.651ZM300.552 398.285H303.748C305.798 398.285 307.11 397.107 307.11 395.256V395.239C307.11 393.388 305.798 392.209 303.748 392.209H301.997V389.337H300.552V398.285ZM308.67 398.285H310.115V389.337H308.67V398.285ZM303.748 393.405C304.918 393.405 305.666 394.127 305.666 395.239V395.256C305.666 396.36 304.927 397.09 303.748 397.09H301.997V393.405H303.748ZM317.735 398.285H321.545C323.471 398.285 324.608 397.273 324.608 395.72V395.704C324.608 394.666 323.886 393.869 322.749 393.712V393.579C323.587 393.405 324.209 392.566 324.209 391.678V391.661C324.209 390.259 323.222 389.337 321.528 389.337H317.735V398.285ZM319.179 393.122V390.532H321.321C322.325 390.532 322.773 391.047 322.773 391.811V391.827C322.773 392.674 322.25 393.122 321.088 393.122H319.179ZM319.179 397.09V394.318H321.213C322.5 394.318 323.139 394.733 323.139 395.679V395.696C323.139 396.592 322.583 397.09 321.487 397.09H319.179ZM122.326 422.443C124.875 422.443 126.452 420.683 126.452 417.82V417.803C126.452 414.931 124.875 413.179 122.326 413.179C119.778 413.179 118.201 414.931 118.201 417.803V417.82C118.201 420.683 119.778 422.443 122.326 422.443ZM122.326 421.165C120.633 421.165 119.678 419.928 119.678 417.82V417.803C119.678 415.686 120.633 414.458 122.326 414.458C124.02 414.458 124.974 415.686 124.974 417.803V417.82C124.974 419.928 124.02 421.165 122.326 421.165ZM128.975 424.651V422.285H135.973V424.651H137.317V421.09H135.89V413.337H129.789L129.44 418.326C129.357 419.53 129.033 420.658 128.377 421.09H127.63V424.651H128.975ZM134.445 421.09H130.046V420.957C130.469 420.401 130.702 419.447 130.785 418.359L131.067 414.532H134.445V421.09ZM145.07 422.285H146.515V413.337H145.07V417.039H140.638V413.337H139.193V422.285H140.638V418.235H145.07V422.285ZM153.039 422.443C155.587 422.443 157.165 420.683 157.165 417.82V417.803C157.165 414.931 155.587 413.179 153.039 413.179C150.491 413.179 148.914 414.931 148.914 417.803V417.82C148.914 420.683 150.491 422.443 153.039 422.443ZM153.039 421.165C151.346 421.165 150.391 419.928 150.391 417.82V417.803C150.391 415.686 151.346 414.458 153.039 414.458C154.732 414.458 155.687 415.686 155.687 417.803V417.82C155.687 419.928 154.732 421.165 153.039 421.165ZM161.008 422.285V415.919H161.166L163.979 422.036H165.092L167.914 415.919H168.072V422.285H169.516V413.337H167.839L164.635 420.277H164.502L161.315 413.337H159.563V422.285H161.008ZM178.589 422.285V415.919H178.747L181.561 422.036H182.673L185.495 415.919H185.653V422.285H187.097V413.337H185.42L182.216 420.277H182.083L178.896 413.337H177.145V422.285H178.589ZM193.605 422.443C195.713 422.443 196.992 421.248 197.299 420.036L197.315 419.969H195.871L195.838 420.044C195.597 420.584 194.85 421.156 193.638 421.156C192.044 421.156 191.023 420.077 190.982 418.226H197.423V417.662C197.423 414.989 195.946 413.179 193.514 413.179C191.082 413.179 189.504 415.072 189.504 417.836V417.844C189.504 420.65 191.048 422.443 193.605 422.443ZM193.505 414.466C194.825 414.466 195.805 415.304 195.954 417.073H191.007C191.165 415.371 192.177 414.466 193.505 414.466ZM203.491 422.443C205.641 422.443 206.845 421.289 207.21 419.671L207.227 419.579L205.799 419.588L205.782 419.637C205.45 420.634 204.687 421.165 203.483 421.165C201.889 421.165 200.86 419.845 200.86 417.786V417.77C200.86 415.753 201.873 414.458 203.483 414.458C204.77 414.458 205.566 415.172 205.791 416.052L205.799 416.076H207.235L207.227 416.027C206.961 414.433 205.658 413.179 203.483 413.179C200.976 413.179 199.382 414.989 199.382 417.77V417.786C199.382 420.625 200.984 422.443 203.491 422.443ZM215.569 413.337H208.331V414.532H211.228V422.285H212.672V414.532H215.569V413.337ZM220.981 422.443C223.089 422.443 224.368 421.248 224.675 420.036L224.691 419.969H223.247L223.214 420.044C222.973 420.584 222.226 421.156 221.014 421.156C219.42 421.156 218.399 420.077 218.358 418.226H224.799V417.662C224.799 414.989 223.322 413.179 220.89 413.179C218.458 413.179 216.88 415.072 216.88 417.836V417.844C216.88 420.65 218.424 422.443 220.981 422.443ZM220.881 414.466C222.201 414.466 223.181 415.304 223.33 417.073H218.383C218.541 415.371 219.553 414.466 220.881 414.466Z" fill="#2B2D33"/>
<path d="M139.5 476.285C141.709 476.285 143.5 474.495 143.5 472.285C143.5 470.076 141.709 468.285 139.5 468.285C137.291 468.285 135.5 470.076 135.5 472.285C135.5 474.495 137.291 476.285 139.5 476.285Z" fill="#E9EAEA"/>
<path d="M171.5 476.285C173.709 476.285 175.5 474.495 175.5 472.285C175.5 470.076 173.709 468.285 171.5 468.285C169.291 468.285 167.5 470.076 167.5 472.285C167.5 474.495 169.291 476.285 171.5 476.285Z" fill="#E9EAEA"/>
<path d="M203.5 476.285C205.709 476.285 207.5 474.495 207.5 472.285C207.5 470.076 205.709 468.285 203.5 468.285C201.291 468.285 199.5 470.076 199.5 472.285C199.5 474.495 201.291 476.285 203.5 476.285Z" fill="#5DB248"/>
</svg>
