<svg width="16" height="18" viewBox="0 0 16 18" fill="none" xmlns="http://www.w3.org/2000/svg">
<path d="M1 3.13333H14.8667M5.26667 3.13333V2.04C5.26667 1.76417 5.37624 1.49965 5.57128 1.30461C5.76631 1.10957 6.03084 1 6.30667 1H9.56C9.69657 1 9.83181 1.0269 9.95799 1.07917C10.0842 1.13143 10.1988 1.20804 10.2954 1.30461C10.392 1.40118 10.4686 1.51583 10.5208 1.64201C10.5731 1.76819 10.6 1.90343 10.6 2.04V3.13333M13.4 3.13333L12.6267 15.6933C12.6198 16.0377 12.48 16.3662 12.2364 16.6097C11.9928 16.8533 11.6644 16.9932 11.32 17H4.54667C4.20225 16.9932 3.87385 16.8533 3.63026 16.6097C3.38668 16.3662 3.24682 16.0377 3.24 15.6933L2.46667 3.13333" stroke="#202020" stroke-miterlimit="10" stroke-linecap="round" stroke-linejoin="round"/>
<path d="M7.93327 5.26666V14.8667M5.2666 5.26666L5.79993 14.8667M10.5999 5.26666L10.0666 14.8667" stroke="#202020" stroke-miterlimit="10" stroke-linecap="round" stroke-linejoin="round"/>
</svg>
