<svg width="40" height="40" viewBox="0 0 40 40" fill="none" xmlns="http://www.w3.org/2000/svg">
<path d="M24.1471 0.589623C21.3451 -0.10932 18.3966 -0.209195 15.5276 0.410171C15.3058 0.458037 15.1649 0.676584 15.2128 0.898309C15.2606 1.12003 15.4792 1.26097 15.7009 1.21311C18.4485 0.619958 21.2788 0.71776 23.971 1.39251C30.4092 3.00614 35.7681 7.84674 37.8092 14.1699C38.5985 16.6152 38.9339 19.2191 39.001 21.9479C39.0066 22.1747 39.195 22.354 39.4217 22.3484C39.6485 22.3428 39.8278 22.1545 39.8222 21.9277C39.7542 19.1614 39.4149 16.4906 38.606 13.9645C36.4864 7.34468 30.8854 2.27041 24.1471 0.589623Z" fill="black"/>
<path d="M13.4433 1.83227C13.6619 1.77195 13.7903 1.54578 13.73 1.32712C13.6696 1.10845 13.4435 0.980091 13.2248 1.04041C10.2244 1.86814 6.00369 4.72824 3.39524 8.54911C3.39423 8.5506 3.39322 8.55209 3.39223 8.55359C1.10184 12.0052 -0.333902 16.3428 0.0669536 20.5518C0.0673353 20.5558 0.0677758 20.5598 0.0682751 20.5638C0.164344 21.3323 0.325621 22.0994 0.487087 22.8675C0.827165 24.4851 1.16808 26.1066 0.902355 27.754C0.866233 27.9779 1.01849 28.1887 1.24243 28.2249C1.46636 28.261 1.67718 28.1087 1.71331 27.8848C1.99108 26.1628 1.64617 24.4831 1.3012 22.8032C1.14166 22.0262 0.982104 21.2492 0.884117 20.4679C0.507103 16.4907 1.86508 12.3416 4.07519 9.01002C6.5844 5.33581 10.6476 2.60351 13.4433 1.83227Z" fill="black"/>
<path d="M18.8329 2.74991C23.9895 2.43502 29.145 4.53947 32.6073 8.57122C32.7551 8.7433 32.7354 9.00261 32.5633 9.15039C32.3912 9.29817 32.1319 9.27847 31.9841 9.10638C28.6916 5.27235 23.7857 3.26965 18.8805 3.56997C18.8788 3.57007 18.877 3.57017 18.8753 3.57025C12.6721 3.87041 6.86277 8.07856 4.72599 13.9752C4.64871 14.1885 4.41318 14.2987 4.19992 14.2214C3.98665 14.1441 3.87642 13.9086 3.9537 13.6954C6.20472 7.48345 12.3049 3.06689 18.8329 2.74991Z" fill="black"/>
<path d="M33.8586 10.3655C33.7321 10.1772 33.4769 10.1271 33.2886 10.2536C33.1003 10.38 33.0502 10.6352 33.1767 10.8235C35.0961 13.6815 35.8897 16.7916 36.2034 20.4823C36.2227 20.7083 36.4215 20.876 36.6475 20.8568C36.8735 20.8375 37.0411 20.6388 37.0219 20.4127C36.7013 16.6413 35.8829 13.3797 33.8586 10.3655Z" fill="black"/>
<path d="M36.7473 22.1565C36.9737 22.1423 37.1687 22.3144 37.1829 22.5408C37.3377 25.0174 37.3391 27.8195 37.0651 29.8902C37.0354 30.1151 36.829 30.2732 36.6041 30.2435C36.3792 30.2137 36.221 30.0073 36.2508 29.7824C36.5149 27.7866 36.5163 25.044 36.363 22.592C36.3489 22.3656 36.521 22.1706 36.7473 22.1565Z" fill="black"/>
<path d="M4.10577 15.9645C4.159 15.744 4.02341 15.5221 3.80292 15.4689C3.58242 15.4156 3.36051 15.5512 3.30728 15.7717C3.00582 17.0203 2.84932 18.3029 2.84312 19.5867C2.83673 20.9099 3.08346 22.2016 3.33028 23.4937C3.53219 24.5507 3.73417 25.608 3.7977 26.6833C3.88115 28.0957 3.58406 29.5102 3.07068 30.8564C2.98986 31.0684 3.09616 31.3057 3.3081 31.3865C3.52005 31.4673 3.75738 31.361 3.83821 31.1491C4.38085 29.7261 4.70978 28.1933 4.6177 26.6348C4.55461 25.5669 4.35265 24.5157 4.15077 23.465C3.90444 22.1828 3.65822 20.9012 3.66455 19.5907C3.67044 18.3708 3.81917 17.1515 4.10577 15.9645Z" fill="black"/>
<path d="M14.8828 6.83752C14.9674 7.04801 14.8653 7.28717 14.6548 7.37171C10.3968 9.08166 7.19927 12.9404 6.54697 17.4907C6.27445 19.3918 6.56888 21.2749 6.86322 23.1575C7.02899 24.2177 7.19473 25.2777 7.25916 26.3407C7.39889 28.6456 7.13635 31.1774 5.63627 33.481C5.51249 33.6711 5.25805 33.7248 5.06797 33.601C4.87789 33.4773 4.82414 33.2228 4.94792 33.0327C6.31464 30.934 6.57335 28.6028 6.43923 26.3904C6.37385 25.3118 6.20915 24.2395 6.04455 23.1679C5.74923 21.2452 5.45424 19.3247 5.73385 17.3742C6.43033 12.5156 9.83572 8.42178 14.3487 6.60944C14.5592 6.52491 14.7983 6.62702 14.8828 6.83752Z" fill="black"/>
<path d="M29.3014 9.17586C25.9423 6.02963 21.0736 4.93154 16.6488 5.90206C16.4273 5.95066 16.2871 6.16967 16.3357 6.39123C16.3843 6.6128 16.6033 6.75302 16.8248 6.70442C21.0148 5.78541 25.5992 6.83376 28.7399 9.77539C31.3871 12.2548 32.9243 15.8625 33.3267 19.7987C33.3498 20.0243 33.5514 20.1886 33.7771 20.1655C34.0027 20.1424 34.167 19.9408 34.1439 19.7151C33.7261 15.6279 32.124 11.8195 29.3014 9.17586Z" fill="black"/>
<path d="M34.0579 21.6711C34.2836 21.648 34.4853 21.8121 34.5085 22.0378C34.8985 25.8356 34.7304 29.9377 34.1416 33.906C34.1083 34.1304 33.8994 34.2853 33.675 34.252C33.4506 34.2187 33.2957 34.0098 33.329 33.7854C33.9097 29.8723 34.0732 25.8399 33.6913 22.1217C33.6682 21.896 33.8323 21.6943 34.0579 21.6711Z" fill="black"/>
<path d="M19.7388 8.34707C13.445 8.34707 8.3313 13.3682 8.3313 19.5762C8.3313 20.2393 8.39015 20.8891 8.50233 21.5209C8.54198 21.7442 8.75518 21.8931 8.97852 21.8534C9.20186 21.8138 9.35077 21.6006 9.31111 21.3773C9.20725 20.7923 9.15274 20.1906 9.15274 19.5762C9.15274 13.8345 13.886 9.1685 19.7388 9.1685C22.3837 9.1685 24.8002 10.1218 26.655 11.697C26.8279 11.8438 27.0871 11.8227 27.2339 11.6498C27.3808 11.4769 27.3596 11.2177 27.1867 11.0709C25.188 9.37343 22.5843 8.34707 19.7388 8.34707Z" fill="black"/>
<path d="M28.107 12.6022C28.2707 12.4452 28.5307 12.4506 28.6877 12.6144C30.5003 14.5045 31.0805 17.4753 31.4644 19.9684C31.8968 22.7766 31.9628 25.5163 31.9628 26.7865C31.9628 27.0134 31.779 27.1972 31.5521 27.1972C31.3253 27.1972 31.1414 27.0134 31.1414 26.7865C31.1414 25.5368 31.076 22.8435 30.6525 20.0934C30.2961 17.7789 29.7823 14.9426 28.0948 13.1829C27.9378 13.0192 27.9433 12.7592 28.107 12.6022Z" fill="black"/>
<path d="M31.8586 29.1387C31.8766 28.9126 31.7079 28.7147 31.4818 28.6966C31.2557 28.6786 31.0578 28.8473 31.0397 29.0734C30.838 31.6033 30.5745 34.1305 30.0397 36.465C29.989 36.6861 30.1272 36.9064 30.3483 36.957C30.5694 37.0077 30.7897 36.8695 30.8404 36.6484C31.3892 34.2524 31.6563 31.6754 31.8586 29.1387Z" fill="black"/>
<path d="M9.16343 23.0325C9.38599 22.9887 9.60194 23.1336 9.64576 23.3561C10.5142 27.7661 9.91426 31.7722 7.61456 35.2813C7.49022 35.4711 7.23563 35.5241 7.04591 35.3997C6.85619 35.2754 6.80318 35.0208 6.92751 34.8311C9.09128 31.5293 9.67361 27.7491 8.83981 23.5148C8.79598 23.2923 8.94087 23.0763 9.16343 23.0325Z" fill="black"/>
<path d="M19.7388 11.0194C15.6533 11.0194 11.6454 14.1819 11.2363 18.1565C11.0572 19.8965 11.3088 21.6105 11.5605 23.3252C11.7803 24.8225 12.0001 26.3202 11.9334 27.8363C11.7806 31.3061 10.7625 34.1703 9.0132 36.5294C8.87809 36.7116 8.91626 36.9689 9.09847 37.104C9.28067 37.2391 9.53791 37.2009 9.67302 37.0187C11.5284 34.5166 12.5947 31.4912 12.754 27.8725C12.8204 26.3632 12.5999 24.8702 12.3795 23.3782C12.1275 21.672 11.8757 19.9671 12.0534 18.2406C12.4128 14.749 16.0067 11.8408 19.7388 11.8408C21.4795 11.8408 25.9832 12.7834 27.4158 17.4503C28.3136 20.3749 28.5585 24.3328 28.341 28.178C28.1236 32.0228 27.4472 35.7 26.5377 38.058C26.4561 38.2696 26.5614 38.5074 26.7731 38.589C26.9847 38.6706 27.2225 38.5653 27.3041 38.3536C28.2556 35.8866 28.941 32.1163 29.1611 28.2244C29.3812 24.3331 29.1393 20.2655 28.2011 17.2092C26.6108 12.0288 21.6257 11.0194 19.7388 11.0194Z" fill="black"/>
<path d="M13.4182 35.282C13.6082 35.4059 13.6617 35.6604 13.5378 35.8504C13.2831 36.2409 13.0591 36.6494 12.835 37.058C12.6109 37.4666 12.3868 37.8752 12.1321 38.2658C12.0082 38.4558 11.7537 38.5093 11.5637 38.3854C11.3737 38.2615 11.3202 38.007 11.4441 37.817C11.6988 37.4266 11.9228 37.018 12.1469 36.6094C12.3709 36.2008 12.595 35.7922 12.8498 35.4016C12.9737 35.2116 13.2282 35.1581 13.4182 35.282Z" fill="black"/>
<path d="M16.935 15.2828C17.1235 15.1567 17.1742 14.9016 17.048 14.7131C16.9219 14.5246 16.6669 14.4739 16.4783 14.6001C14.8519 15.6879 13.8541 17.1837 13.8541 19.3751C13.8541 20.68 14.0853 21.7466 14.3224 22.8405C14.6772 24.4776 14.9178 26.1111 14.8746 27.7925C14.8221 29.8343 14.4226 31.7001 13.6546 33.4775C13.5647 33.6857 13.6605 33.9274 13.8687 34.0174C14.077 34.1074 14.3187 34.0115 14.4087 33.8033C15.2206 31.924 15.6407 29.9541 15.6957 27.8136C15.7407 26.0664 15.4933 24.3682 15.1254 22.6668C14.8877 21.5681 14.6756 20.5871 14.6756 19.3751C14.6756 17.4975 15.5015 16.2416 16.935 15.2828Z" fill="black"/>
<path d="M18.538 13.8398C20.2424 13.4923 22.0764 13.9216 23.4263 15.0143C25.8376 16.9659 26.1583 20.5252 26.4182 23.4093L26.4314 23.5563C26.7672 27.274 26.3828 30.8852 25.6085 34.5116C25.5612 34.7335 25.3429 34.8749 25.1211 34.8275C24.8993 34.7802 24.7578 34.5619 24.8052 34.3401C25.5679 30.768 25.9396 27.2428 25.6133 23.6302C25.6025 23.5105 25.5918 23.3892 25.5809 23.2665L25.5807 23.2647C25.3499 20.6583 25.0608 17.394 22.9096 15.6528C21.7554 14.7186 20.1725 14.3449 18.7021 14.6446C18.4799 14.6899 18.263 14.5465 18.2176 14.3242C18.1723 14.102 18.3158 13.8851 18.538 13.8398Z" fill="black"/>
<path d="M25.028 36.5553C25.084 36.3355 24.9512 36.1119 24.7313 36.056C24.5115 36 24.2879 36.1328 24.232 36.3527C23.9837 37.328 23.6011 38.2083 23.116 39.0188C22.9995 39.2134 23.0628 39.4656 23.2575 39.5821C23.4521 39.6986 23.7043 39.6353 23.8208 39.4407C24.3436 38.5672 24.7586 37.6135 25.028 36.5553Z" fill="black"/>
<path d="M23.0196 30.5951C23.2448 30.6217 23.4058 30.826 23.3792 31.0512C22.9913 34.3292 22.1156 37.2527 20.7104 39.7883C20.6004 39.9867 20.3505 40.0584 20.1521 39.9485C19.9537 39.8385 19.882 39.5885 19.9919 39.3901C21.3367 36.9635 22.1858 34.1462 22.5634 30.9547C22.5901 30.7294 22.7943 30.5684 23.0196 30.5951Z" fill="black"/>
<path d="M22.9349 19.1597C22.6502 17.6383 21.3444 16.4744 19.7591 16.4744C17.6124 16.4744 16.1063 18.6382 16.637 20.6514C17.5351 24.205 17.6825 27.6298 17.0746 30.9284L17.0741 30.9308C16.5466 33.8925 15.5335 36.5568 14.1515 38.8145C14.0331 39.0079 14.0939 39.2608 14.2874 39.3792C14.4809 39.4976 14.7337 39.4368 14.8521 39.2433C16.2906 36.8933 17.3382 34.1318 17.8826 31.0761C18.5138 27.6502 18.3575 24.1053 17.4329 20.448L17.4318 20.4437C17.0337 18.9378 18.1434 17.2959 19.7591 17.2959C20.9251 17.2959 21.9096 18.1537 22.127 19.3081C22.7248 22.7757 23.0362 25.9914 22.8145 28.76C22.7964 28.9861 22.965 29.1841 23.1911 29.2022C23.4172 29.2203 23.6152 29.0517 23.6333 28.8256C23.8631 25.9558 23.5388 22.661 22.936 19.1655C22.9357 19.1636 22.9353 19.1616 22.9349 19.1597Z" fill="black"/>
<path d="M18.5335 36.9482C18.7353 37.0519 18.8148 37.2995 18.7111 37.5012L17.6228 39.6191C17.5192 39.8209 17.2716 39.9004 17.0698 39.7967C16.8681 39.693 16.7885 39.4454 16.8922 39.2437L17.9805 37.1258C18.0842 36.924 18.3318 36.8445 18.5335 36.9482Z" fill="black"/>
<path d="M20.0646 19.5558C20.0127 19.335 19.7916 19.198 19.5708 19.2499C19.35 19.3017 19.213 19.5228 19.2649 19.7436C20.65 25.6395 20.4597 30.8166 18.7727 35.2269C18.6916 35.4387 18.7977 35.6762 19.0095 35.7572C19.2214 35.8383 19.4588 35.7322 19.5399 35.5203C21.2989 30.9219 21.4777 25.5713 20.0646 19.5558Z" fill="black"/>
</svg>
