<svg width="165" height="32" viewBox="0 0 165 32" fill="none" xmlns="http://www.w3.org/2000/svg">
<rect x="0.5" width="164" height="32" rx="8" fill="#E9EAEA"/>
<path d="M22.0039 16.2061H20.3271V15.019H21.7715C22.2861 15.019 22.7039 14.9443 23.0249 14.7949C23.3459 14.64 23.5783 14.4269 23.7222 14.1558C23.8716 13.8791 23.9463 13.5581 23.9463 13.1929C23.9463 12.8664 23.8633 12.5675 23.6973 12.2964C23.5368 12.0252 23.2878 11.8094 22.9502 11.6489C22.6126 11.4829 22.1782 11.3999 21.647 11.3999C21.2485 11.3999 20.8861 11.4718 20.5596 11.6157C20.2331 11.7596 19.973 11.9616 19.7793 12.2217C19.5911 12.4818 19.4971 12.7889 19.4971 13.1431H17.4136C17.4136 12.6174 17.5243 12.147 17.7456 11.7319C17.9725 11.3114 18.2796 10.9544 18.667 10.6611C19.0599 10.3678 19.5109 10.1437 20.02 9.98877C20.5347 9.82829 21.077 9.74805 21.647 9.74805C22.311 9.74805 22.9115 9.82275 23.4482 9.97217C23.985 10.116 24.4471 10.3319 24.8345 10.6196C25.2218 10.9074 25.5179 11.2671 25.7227 11.6987C25.9274 12.1248 26.0298 12.6201 26.0298 13.1846C26.0298 13.5996 25.9329 13.9897 25.7393 14.355C25.5511 14.7202 25.2799 15.0412 24.9258 15.3179C24.5716 15.5946 24.1455 15.8132 23.6475 15.9736C23.1549 16.1286 22.6071 16.2061 22.0039 16.2061ZM20.3271 15.4839H22.0039C22.6735 15.4839 23.2684 15.5531 23.7886 15.6914C24.3088 15.8298 24.7487 16.0317 25.1084 16.2974C25.4681 16.563 25.742 16.8923 25.9302 17.2852C26.1183 17.6725 26.2124 18.118 26.2124 18.6216C26.2124 19.186 26.099 19.6896 25.8721 20.1323C25.6507 20.5695 25.3353 20.9403 24.9258 21.2446C24.5163 21.549 24.0321 21.7786 23.4731 21.9336C22.9198 22.0885 22.311 22.166 21.647 22.166C21.1102 22.166 20.5789 22.0996 20.0532 21.9668C19.533 21.8285 19.0599 21.6182 18.6338 21.3359C18.2132 21.0482 17.8757 20.6829 17.6211 20.2402C17.3665 19.7975 17.2393 19.2663 17.2393 18.6465H19.3311C19.3311 18.9896 19.4279 19.305 19.6216 19.5928C19.8208 19.875 20.092 20.1019 20.4351 20.2734C20.7837 20.4395 21.1877 20.5225 21.647 20.5225C22.1727 20.5225 22.6182 20.4395 22.9834 20.2734C23.3542 20.1074 23.6364 19.8805 23.8301 19.5928C24.0293 19.305 24.1289 18.9813 24.1289 18.6216C24.1289 18.2785 24.0763 17.9824 23.9712 17.7334C23.8716 17.4788 23.7222 17.2741 23.5229 17.1191C23.3237 16.9587 23.0775 16.8397 22.7842 16.7622C22.4909 16.6847 22.1533 16.646 21.7715 16.646H20.3271V15.4839ZM33.0522 20.1987V15.9155C33.0522 15.5946 32.9941 15.3179 32.8779 15.0854C32.7617 14.853 32.5846 14.6732 32.3467 14.5459C32.1143 14.4186 31.821 14.355 31.4668 14.355C31.1403 14.355 30.8581 14.4103 30.6201 14.521C30.3822 14.6317 30.1968 14.7811 30.064 14.9692C29.9312 15.1574 29.8647 15.3704 29.8647 15.6084H27.8726C27.8726 15.2542 27.9583 14.9111 28.1299 14.5791C28.3014 14.2471 28.5505 13.951 28.877 13.6909C29.2035 13.4308 29.5936 13.2261 30.0474 13.0767C30.5011 12.9272 31.0103 12.8525 31.5747 12.8525C32.2498 12.8525 32.8475 12.966 33.3677 13.1929C33.8934 13.4198 34.3057 13.7629 34.6045 14.2222C34.9089 14.6759 35.061 15.2459 35.061 15.9321V19.9248C35.061 20.3343 35.0887 20.7023 35.144 21.0288C35.2049 21.3498 35.2907 21.6292 35.4014 21.8672V22H33.3511C33.257 21.7842 33.1823 21.5103 33.127 21.1782C33.0771 20.8407 33.0522 20.5142 33.0522 20.1987ZM33.3428 16.5381L33.3594 17.7749H31.9233C31.5526 17.7749 31.2261 17.8109 30.9438 17.8828C30.6616 17.9492 30.4264 18.0488 30.2383 18.1816C30.0501 18.3145 29.909 18.4749 29.8149 18.6631C29.7209 18.8512 29.6738 19.0643 29.6738 19.3022C29.6738 19.5402 29.7292 19.7588 29.8398 19.958C29.9505 20.1517 30.111 20.3039 30.3213 20.4146C30.5371 20.5252 30.7972 20.5806 31.1016 20.5806C31.5111 20.5806 31.868 20.4976 32.1724 20.3315C32.4823 20.16 32.7257 19.9525 32.9028 19.709C33.0799 19.46 33.174 19.2248 33.1851 19.0034L33.8325 19.8916C33.7661 20.1185 33.6527 20.362 33.4922 20.6221C33.3317 20.8822 33.1214 21.1312 32.8613 21.3691C32.6068 21.6016 32.2996 21.7925 31.9399 21.9419C31.5858 22.0913 31.1763 22.166 30.7114 22.166C30.1248 22.166 29.6019 22.0498 29.1426 21.8174C28.6833 21.5794 28.3236 21.2612 28.0635 20.8628C27.8034 20.4588 27.6733 20.0023 27.6733 19.4932C27.6733 19.0173 27.7619 18.5967 27.939 18.2314C28.1216 17.8607 28.3872 17.5508 28.7358 17.3018C29.09 17.0527 29.5216 16.8646 30.0308 16.7373C30.5399 16.6045 31.1209 16.5381 31.7739 16.5381H33.3428ZM42.7891 9.08398H44.4077C44.4077 9.5765 44.3385 9.98324 44.2002 10.3042C44.0674 10.6196 43.8682 10.8797 43.6025 11.0845C43.3424 11.2837 43.0187 11.4442 42.6313 11.5659C42.2495 11.6877 41.8068 11.7983 41.3032 11.8979C40.8384 11.9976 40.4178 12.1553 40.0415 12.3711C39.6707 12.5814 39.3581 12.8774 39.1035 13.2593C38.8545 13.6356 38.6746 14.1198 38.564 14.7119C38.4533 15.304 38.4201 16.0262 38.4644 16.8784V17.4429L36.8789 17.584V17.0195C36.8789 15.9626 36.9757 15.0412 37.1694 14.2554C37.3631 13.4696 37.637 12.8083 37.9912 12.2715C38.3509 11.7292 38.777 11.2975 39.2695 10.9766C39.7676 10.6556 40.321 10.4342 40.9297 10.3125C41.3447 10.224 41.6906 10.1354 41.9673 10.0469C42.244 9.9528 42.4487 9.83382 42.5815 9.68994C42.7199 9.54053 42.7891 9.33854 42.7891 9.08398ZM41.3862 13.5249C41.9839 13.5249 42.5151 13.63 42.98 13.8403C43.4448 14.0451 43.8377 14.3328 44.1587 14.7036C44.4797 15.0744 44.7231 15.5116 44.8892 16.0151C45.0607 16.5187 45.1465 17.0666 45.1465 17.6587V17.8413C45.1465 18.4611 45.0552 19.0339 44.8726 19.5596C44.6899 20.0853 44.4215 20.5446 44.0674 20.9375C43.7132 21.3249 43.2788 21.6292 42.7642 21.8506C42.255 22.0664 41.6712 22.1743 41.0127 22.1743C40.3597 22.1743 39.7759 22.0609 39.2612 21.834C38.7466 21.6071 38.3122 21.2917 37.958 20.8877C37.6038 20.4782 37.3354 19.9995 37.1528 19.4517C36.9702 18.9038 36.8789 18.3062 36.8789 17.6587V17.4761C36.8734 17.3599 36.9038 17.2464 36.9702 17.1357C37.0422 17.0251 37.1279 16.9061 37.2275 16.7788C37.3271 16.6515 37.4157 16.5049 37.4932 16.3389C37.7699 15.7799 38.0964 15.2902 38.4727 14.8696C38.849 14.4491 39.2778 14.1198 39.7593 13.8818C40.2463 13.6439 40.7886 13.5249 41.3862 13.5249ZM40.9961 15.1104C40.498 15.1104 40.0913 15.2293 39.7759 15.4673C39.466 15.6997 39.2363 16.0096 39.0869 16.397C38.943 16.7843 38.8711 17.2049 38.8711 17.6587V17.8413C38.8711 18.2121 38.9126 18.5635 38.9956 18.8955C39.0786 19.2275 39.2031 19.5208 39.3691 19.7754C39.5407 20.0244 39.762 20.2209 40.0332 20.3647C40.3099 20.5086 40.6364 20.5806 41.0127 20.5806C41.3945 20.5806 41.7183 20.5086 41.9839 20.3647C42.255 20.2209 42.4736 20.0244 42.6396 19.7754C42.8112 19.5208 42.9357 19.2275 43.0132 18.8955C43.0962 18.5635 43.1377 18.2121 43.1377 17.8413V17.6587C43.1377 17.3156 43.0962 16.9919 43.0132 16.6875C42.9357 16.3831 42.8112 16.1147 42.6396 15.8823C42.4681 15.6444 42.2467 15.4562 41.9756 15.3179C41.7044 15.1795 41.3779 15.1104 40.9961 15.1104ZM48.2012 15.874H50.8491C51.6239 15.874 52.2824 16.0041 52.8247 16.2642C53.367 16.5243 53.7793 16.8867 54.0615 17.3516C54.3493 17.8109 54.4932 18.3366 54.4932 18.9287C54.4932 19.3659 54.4129 19.7726 54.2524 20.1489C54.092 20.5197 53.854 20.8434 53.5386 21.1201C53.2287 21.3968 52.8468 21.6126 52.3931 21.7676C51.9448 21.9225 51.4302 22 50.8491 22H46.873V13.0186H48.8818V20.4146H50.8491C51.2476 20.4146 51.5658 20.3454 51.8037 20.207C52.0417 20.0687 52.2132 19.8888 52.3184 19.6675C52.429 19.4461 52.4844 19.2109 52.4844 18.9619C52.4844 18.7074 52.429 18.4666 52.3184 18.2397C52.2132 18.0129 52.0417 17.8275 51.8037 17.6836C51.5658 17.5397 51.2476 17.4678 50.8491 17.4678H48.2012V15.874ZM58.0293 13.0186V22H56.0288V13.0186H58.0293ZM66.4297 13.0186V14.6123H62.0469V13.0186H66.4297ZM67.9985 13.0186V22H65.998V13.0186H67.9985ZM61.5571 13.0186H63.5327L63.292 17.4595C63.2588 18.118 63.1924 18.6991 63.0928 19.2026C62.9987 19.7007 62.8714 20.1296 62.7109 20.4893C62.5505 20.8434 62.354 21.1312 62.1216 21.3525C61.8892 21.5739 61.618 21.7371 61.3081 21.8423C60.9982 21.9474 60.6496 22 60.2622 22H59.6396L59.6313 20.3564L59.9468 20.3315C60.1515 20.3149 60.3286 20.2624 60.478 20.1738C60.6274 20.0798 60.7547 19.9469 60.8599 19.7754C60.9705 19.6038 61.0591 19.3825 61.1255 19.1113C61.1974 18.8402 61.2528 18.5192 61.2915 18.1484C61.3358 17.7777 61.369 17.346 61.3911 16.8535L61.5571 13.0186ZM72.1904 19.0781L75.7183 13.0186H77.7188V22H75.7183V15.9321L72.1904 22H70.1899V13.0186H72.1904V19.0781ZM90.0952 13.0186V14.6123H85.6626V13.0186H90.0952ZM86.1357 13.0186V22H84.1353V13.0186H86.1357ZM91.6641 13.0186V22H89.6553V13.0186H91.6641ZM98.8442 20.1987V15.9155C98.8442 15.5946 98.7861 15.3179 98.6699 15.0854C98.5537 14.853 98.3766 14.6732 98.1387 14.5459C97.9062 14.4186 97.613 14.355 97.2588 14.355C96.9323 14.355 96.6501 14.4103 96.4121 14.521C96.1742 14.6317 95.9888 14.7811 95.856 14.9692C95.7231 15.1574 95.6567 15.3704 95.6567 15.6084H93.6646C93.6646 15.2542 93.7503 14.9111 93.9219 14.5791C94.0934 14.2471 94.3424 13.951 94.6689 13.6909C94.9954 13.4308 95.3856 13.2261 95.8394 13.0767C96.2931 12.9272 96.8022 12.8525 97.3667 12.8525C98.0418 12.8525 98.6395 12.966 99.1597 13.1929C99.6854 13.4198 100.098 13.7629 100.396 14.2222C100.701 14.6759 100.853 15.2459 100.853 15.9321V19.9248C100.853 20.3343 100.881 20.7023 100.936 21.0288C100.997 21.3498 101.083 21.6292 101.193 21.8672V22H99.1431C99.049 21.7842 98.9743 21.5103 98.9189 21.1782C98.8691 20.8407 98.8442 20.5142 98.8442 20.1987ZM99.1348 16.5381L99.1514 17.7749H97.7153C97.3446 17.7749 97.0181 17.8109 96.7358 17.8828C96.4536 17.9492 96.2184 18.0488 96.0303 18.1816C95.8421 18.3145 95.701 18.4749 95.6069 18.6631C95.5129 18.8512 95.4658 19.0643 95.4658 19.3022C95.4658 19.5402 95.5212 19.7588 95.6318 19.958C95.7425 20.1517 95.903 20.3039 96.1133 20.4146C96.3291 20.5252 96.5892 20.5806 96.8936 20.5806C97.3031 20.5806 97.66 20.4976 97.9644 20.3315C98.2743 20.16 98.5177 19.9525 98.6948 19.709C98.8719 19.46 98.966 19.2248 98.9771 19.0034L99.6245 19.8916C99.5581 20.1185 99.4447 20.362 99.2842 20.6221C99.1237 20.8822 98.9134 21.1312 98.6533 21.3691C98.3988 21.6016 98.0916 21.7925 97.7319 21.9419C97.3778 22.0913 96.9683 22.166 96.5034 22.166C95.9168 22.166 95.3939 22.0498 94.9346 21.8174C94.4753 21.5794 94.1156 21.2612 93.8555 20.8628C93.5954 20.4588 93.4653 20.0023 93.4653 19.4932C93.4653 19.0173 93.5539 18.5967 93.731 18.2314C93.9136 17.8607 94.1792 17.5508 94.5278 17.3018C94.882 17.0527 95.3136 16.8646 95.8228 16.7373C96.3319 16.6045 96.9129 16.5381 97.5659 16.5381H99.1348ZM104.954 14.7451V25.4531H102.953V13.0186H104.796L104.954 14.7451ZM110.806 17.4263V17.6006C110.806 18.2536 110.728 18.8595 110.573 19.4185C110.424 19.9718 110.2 20.4561 109.901 20.8711C109.608 21.2806 109.245 21.5988 108.813 21.8257C108.382 22.0526 107.884 22.166 107.319 22.166C106.76 22.166 106.271 22.0636 105.85 21.8589C105.435 21.6486 105.084 21.3525 104.796 20.9707C104.508 20.5889 104.276 20.1406 104.099 19.626C103.927 19.1058 103.805 18.5358 103.733 17.916V17.2437C103.805 16.5851 103.927 15.9875 104.099 15.4507C104.276 14.9139 104.508 14.4518 104.796 14.0645C105.084 13.6771 105.435 13.3783 105.85 13.168C106.265 12.9577 106.749 12.8525 107.303 12.8525C107.867 12.8525 108.368 12.9632 108.805 13.1846C109.242 13.4004 109.61 13.7103 109.909 14.1143C110.208 14.5127 110.432 14.9941 110.582 15.5586C110.731 16.1175 110.806 16.7401 110.806 17.4263ZM108.805 17.6006V17.4263C108.805 17.0112 108.766 16.6266 108.689 16.2725C108.611 15.9128 108.49 15.5973 108.324 15.3262C108.158 15.055 107.945 14.8447 107.685 14.6953C107.43 14.5404 107.123 14.4629 106.763 14.4629C106.409 14.4629 106.105 14.5238 105.85 14.6455C105.596 14.7617 105.382 14.925 105.211 15.1353C105.039 15.3455 104.907 15.5918 104.812 15.874C104.718 16.1507 104.652 16.4523 104.613 16.7788V18.3892C104.68 18.7876 104.793 19.1528 104.954 19.4849C105.114 19.8169 105.341 20.0825 105.634 20.2817C105.933 20.4754 106.315 20.5723 106.78 20.5723C107.139 20.5723 107.447 20.4948 107.701 20.3398C107.956 20.1849 108.163 19.9718 108.324 19.7007C108.49 19.424 108.611 19.1058 108.689 18.7461C108.766 18.3864 108.805 18.0046 108.805 17.6006ZM112.125 17.6089V17.418C112.125 16.7705 112.22 16.1701 112.408 15.6167C112.596 15.0578 112.867 14.5736 113.221 14.1641C113.581 13.749 114.018 13.4281 114.533 13.2012C115.053 12.9688 115.639 12.8525 116.292 12.8525C116.951 12.8525 117.538 12.9688 118.052 13.2012C118.572 13.4281 119.012 13.749 119.372 14.1641C119.732 14.5736 120.006 15.0578 120.194 15.6167C120.382 16.1701 120.476 16.7705 120.476 17.418V17.6089C120.476 18.2563 120.382 18.8568 120.194 19.4102C120.006 19.9635 119.732 20.4478 119.372 20.8628C119.012 21.2723 118.575 21.5933 118.061 21.8257C117.546 22.0526 116.962 22.166 116.309 22.166C115.651 22.166 115.061 22.0526 114.541 21.8257C114.026 21.5933 113.589 21.2723 113.229 20.8628C112.87 20.4478 112.596 19.9635 112.408 19.4102C112.22 18.8568 112.125 18.2563 112.125 17.6089ZM114.126 17.418V17.6089C114.126 18.0129 114.167 18.3947 114.25 18.7544C114.333 19.1141 114.464 19.4295 114.641 19.7007C114.818 19.9718 115.045 20.1849 115.321 20.3398C115.598 20.4948 115.927 20.5723 116.309 20.5723C116.68 20.5723 117.001 20.4948 117.272 20.3398C117.549 20.1849 117.776 19.9718 117.953 19.7007C118.13 19.4295 118.26 19.1141 118.343 18.7544C118.431 18.3947 118.476 18.0129 118.476 17.6089V17.418C118.476 17.0195 118.431 16.6432 118.343 16.2891C118.26 15.9294 118.127 15.6112 117.944 15.3345C117.767 15.0578 117.54 14.842 117.264 14.687C116.993 14.5265 116.669 14.4463 116.292 14.4463C115.916 14.4463 115.59 14.5265 115.313 14.687C115.042 14.842 114.818 15.0578 114.641 15.3345C114.464 15.6112 114.333 15.9294 114.25 16.2891C114.167 16.6432 114.126 17.0195 114.126 17.418ZM128.055 13.0186V14.6123H123.672V13.0186H128.055ZM129.624 13.0186V22H127.623V13.0186H129.624ZM123.182 13.0186H125.158L124.917 17.4595C124.884 18.118 124.817 18.6991 124.718 19.2026C124.624 19.7007 124.496 20.1296 124.336 20.4893C124.175 20.8434 123.979 21.1312 123.747 21.3525C123.514 21.5739 123.243 21.7371 122.933 21.8423C122.623 21.9474 122.275 22 121.887 22H121.265L121.256 20.3564L121.572 20.3315C121.777 20.3149 121.954 20.2624 122.103 20.1738C122.252 20.0798 122.38 19.9469 122.485 19.7754C122.596 19.6038 122.684 19.3825 122.75 19.1113C122.822 18.8402 122.878 18.5192 122.917 18.1484C122.961 17.7777 122.994 17.346 123.016 16.8535L123.182 13.0186ZM133.234 15.874H135.882C136.657 15.874 137.316 16.0041 137.858 16.2642C138.4 16.5243 138.812 16.8867 139.095 17.3516C139.382 17.8109 139.526 18.3366 139.526 18.9287C139.526 19.3659 139.446 19.7726 139.286 20.1489C139.125 20.5197 138.887 20.8434 138.572 21.1201C138.262 21.3968 137.88 21.6126 137.426 21.7676C136.978 21.9225 136.463 22 135.882 22H131.906V13.0186H133.915V20.4146H135.882C136.281 20.4146 136.599 20.3454 136.837 20.207C137.075 20.0687 137.246 19.8888 137.352 19.6675C137.462 19.4461 137.518 19.2109 137.518 18.9619C137.518 18.7074 137.462 18.4666 137.352 18.2397C137.246 18.0129 137.075 17.8275 136.837 17.6836C136.599 17.5397 136.281 17.4678 135.882 17.4678H133.234V15.874ZM144.872 18.439H143.021C143.027 17.9243 143.071 17.4927 143.154 17.144C143.237 16.7899 143.375 16.4689 143.569 16.1812C143.768 15.8934 144.031 15.589 144.357 15.2681C144.612 15.0246 144.842 14.7949 145.046 14.5791C145.251 14.3577 145.414 14.1253 145.536 13.8818C145.658 13.6328 145.719 13.3478 145.719 13.0269C145.719 12.6782 145.661 12.3822 145.544 12.1387C145.428 11.8952 145.257 11.7098 145.03 11.5825C144.808 11.4552 144.532 11.3916 144.2 11.3916C143.923 11.3916 143.663 11.4469 143.419 11.5576C143.176 11.6628 142.979 11.8288 142.83 12.0557C142.681 12.277 142.6 12.5703 142.589 12.9355H140.589C140.6 12.2383 140.766 11.6517 141.087 11.1758C141.408 10.6999 141.84 10.3429 142.382 10.105C142.924 9.86702 143.53 9.74805 144.2 9.74805C144.941 9.74805 145.575 9.87533 146.101 10.1299C146.626 10.3789 147.028 10.7441 147.304 11.2256C147.586 11.7015 147.728 12.277 147.728 12.9521C147.728 13.4391 147.631 13.8818 147.437 14.2803C147.243 14.6732 146.992 15.0412 146.682 15.3843C146.372 15.7218 146.037 16.0594 145.677 16.397C145.367 16.6792 145.157 16.9863 145.046 17.3184C144.936 17.6449 144.878 18.0184 144.872 18.439ZM142.855 21.0288C142.855 20.73 142.957 20.4782 143.162 20.2734C143.367 20.0632 143.646 19.958 144 19.958C144.355 19.958 144.634 20.0632 144.839 20.2734C145.044 20.4782 145.146 20.73 145.146 21.0288C145.146 21.3276 145.044 21.5822 144.839 21.7925C144.634 21.9972 144.355 22.0996 144 22.0996C143.646 22.0996 143.367 21.9972 143.162 21.7925C142.957 21.5822 142.855 21.3276 142.855 21.0288Z" fill="#2B2D33"/>
</svg>
