<svg width="48" height="48" viewBox="0 0 48 48" fill="none" xmlns="http://www.w3.org/2000/svg">
<circle cx="24" cy="24" r="24" fill="#CDE9FA"/>
<path d="M32.3198 14.3999H28.4084L28.8983 19.7332C28.8983 19.7332 29.8781 20.7999 31.3478 20.7999C32.1193 20.801 32.8646 20.4953 33.4436 19.9402C33.5048 19.8779 33.5504 19.7997 33.5761 19.7129C33.6018 19.6261 33.6068 19.5336 33.5905 19.4442L32.8988 14.9332C32.8757 14.7842 32.8048 14.6489 32.6989 14.5513C32.5929 14.4537 32.4586 14.4001 32.3198 14.3999V14.3999Z" stroke="#57B6ED"/>
<path d="M28.4085 14.3999L28.8984 19.7332C28.8984 19.7332 27.9187 20.7999 26.449 20.7999C24.9793 20.7999 23.9995 19.7332 23.9995 19.7332V14.3999H28.4085Z" stroke="#57B6ED"/>
<path d="M23.9996 14.3999V19.7332C23.9996 19.7332 23.0199 20.7999 21.5502 20.7999C20.0805 20.7999 19.1007 19.7332 19.1007 19.7332L19.5906 14.3999H23.9996Z" stroke="#57B6ED"/>
<path d="M19.5904 14.3999H15.6801C15.5409 14.3998 15.4063 14.4535 15.3001 14.5514C15.1939 14.6492 15.123 14.7849 15.1 14.9343L14.4093 19.4452C14.3931 19.5347 14.3982 19.6272 14.4239 19.7139C14.4496 19.8007 14.4951 19.8789 14.5563 19.9412C14.8776 20.2506 15.5958 20.801 16.651 20.801C18.1207 20.801 19.1005 19.7343 19.1005 19.7343L19.5904 14.401V14.3999Z" stroke="#57B6ED"/>
<path d="M15.1881 20.7998V31.4665C15.1881 32.0323 15.3946 32.5749 15.7621 32.975C16.1295 33.375 16.628 33.5998 17.1477 33.5998H30.8647C31.3844 33.5998 31.8828 33.375 32.2503 32.975C32.6178 32.5749 32.8243 32.0323 32.8243 31.4665V20.7998" stroke="#57B6ED"/>
<path d="M26.7823 33.5997V27.1997C26.7823 26.6339 26.5758 26.0913 26.2083 25.6912C25.8408 25.2912 25.3424 25.0664 24.8227 25.0664H22.8631C22.3434 25.0664 21.845 25.2912 21.4775 25.6912C21.11 26.0913 20.9036 26.6339 20.9036 27.1997V33.5997" stroke="#57B6ED" stroke-miterlimit="16"/>
</svg>
