<svg width="40" height="40" viewBox="0 0 40 40" fill="none" xmlns="http://www.w3.org/2000/svg">
<circle cx="20" cy="20" r="20" fill="#FACED1"/>
<path d="M13.0001 14.1333H26.8667M17.2667 14.1333V13.04C17.2667 12.7642 17.3763 12.4996 17.5713 12.3046C17.7664 12.1096 18.0309 12 18.3067 12H21.5601C21.6966 12 21.8319 12.0269 21.9581 12.0792C22.0842 12.1314 22.1989 12.208 22.2955 12.3046C22.392 12.4012 22.4686 12.5158 22.5209 12.642C22.5732 12.7682 22.6001 12.9034 22.6001 13.04V14.1333M25.4001 14.1333L24.6267 26.6933C24.6199 27.0377 24.48 27.3662 24.2365 27.6097C23.9929 27.8533 23.6645 27.9932 23.3201 28H16.5467C16.2023 27.9932 15.8739 27.8533 15.6303 27.6097C15.3867 27.3662 15.2469 27.0377 15.2401 26.6933L14.4667 14.1333" stroke="#EE505A" stroke-miterlimit="10" stroke-linecap="round" stroke-linejoin="round"/>
<path d="M19.9334 16.2666V25.8666M17.2667 16.2666L17.8001 25.8666M22.6001 16.2666L22.0667 25.8666" stroke="#EE505A" stroke-miterlimit="10" stroke-linecap="round" stroke-linejoin="round"/>
</svg>
