<svg width="54" height="54" viewBox="0 0 54 54" fill="none" xmlns="http://www.w3.org/2000/svg">
<rect width="54" height="54" rx="27" fill="white"/>
<g clip-path="url(#clip0_6827_8508)">
<path d="M21.3112 24.8666H32.6889H37.6667L34.8223 33.4H23.4445L19.8889 19.1777H16.3334" stroke="#5DB248" stroke-width="2" stroke-miterlimit="10" stroke-linecap="round" stroke-linejoin="round"/>
<path d="M24.1561 37.6667C24.9416 37.6667 25.5783 37.03 25.5783 36.2445C25.5783 35.459 24.9416 34.8223 24.1561 34.8223C23.3706 34.8223 22.7339 35.459 22.7339 36.2445C22.7339 37.03 23.3706 37.6667 24.1561 37.6667Z" stroke="#5DB248" stroke-width="2" stroke-miterlimit="10" stroke-linecap="round" stroke-linejoin="round"/>
<path d="M33.3996 37.6667C34.1851 37.6667 34.8219 37.03 34.8219 36.2445C34.8219 35.459 34.1851 34.8223 33.3996 34.8223C32.6142 34.8223 31.9774 35.459 31.9774 36.2445C31.9774 37.03 32.6142 37.6667 33.3996 37.6667Z" stroke="#5DB248" stroke-width="2" stroke-miterlimit="10" stroke-linecap="round" stroke-linejoin="round"/>
</g>
<defs>
<clipPath id="clip0_6827_8508">
<rect width="32" height="32" fill="white" transform="translate(11 11)"/>
</clipPath>
</defs>
</svg>
