<svg width="29" height="30" viewBox="0 0 29 30" fill="none" xmlns="http://www.w3.org/2000/svg">
<g clip-path="url(#clip0_6985_19974)">
<path d="M14.4001 18.2008C16.1674 18.2008 17.6001 16.7681 17.6001 15.0008C17.6001 13.2335 16.1674 11.8008 14.4001 11.8008C12.6328 11.8008 11.2001 13.2335 11.2001 15.0008C11.2001 16.7681 12.6328 18.2008 14.4001 18.2008Z" stroke="#404247" stroke-miterlimit="10" stroke-linecap="round" stroke-linejoin="round"/>
<path d="M23.6801 13.4004H21.5837C21.3988 12.5671 21.0695 11.7726 20.6106 11.0529L22.0935 9.56999C22.1535 9.50998 22.1872 9.4286 22.1872 9.34375C22.1872 9.2589 22.1535 9.17752 22.0935 9.11751L20.2832 7.30695C20.2232 7.24696 20.1419 7.21326 20.057 7.21326C19.9722 7.21326 19.8908 7.24696 19.8308 7.30695L18.3479 8.78983C17.628 8.33104 16.8334 8.00181 16 7.81703V5.72039C16 5.63552 15.9663 5.55413 15.9063 5.49412C15.8463 5.4341 15.7649 5.40039 15.68 5.40039H13.12C13.0352 5.40039 12.9538 5.4341 12.8938 5.49412C12.8338 5.55413 12.8 5.63552 12.8 5.72039V7.81703C11.9668 8.00194 11.1723 8.33129 10.4525 8.79015L8.96933 7.30695C8.90932 7.24696 8.82794 7.21326 8.74309 7.21326C8.65824 7.21326 8.57686 7.24696 8.51685 7.30695L6.70661 9.11719C6.64662 9.1772 6.61292 9.25858 6.61292 9.34343C6.61292 9.42828 6.64662 9.50966 6.70661 9.56967L8.18949 11.0526C7.7307 11.7724 7.40147 12.567 7.21669 13.4004H5.12005C5.03518 13.4004 4.95379 13.4341 4.89377 13.4941C4.83376 13.5541 4.80005 13.6355 4.80005 13.7204V16.2804C4.80005 16.3653 4.83376 16.4467 4.89377 16.5067C4.95379 16.5667 5.03518 16.6004 5.12005 16.6004H7.21669C7.40159 17.4337 7.73094 18.2282 8.18981 18.9479L6.70661 20.4311C6.64662 20.4911 6.61292 20.5725 6.61292 20.6574C6.61292 20.7422 6.64662 20.8236 6.70661 20.8836L8.51685 22.6938C8.57686 22.7538 8.65824 22.7875 8.74309 22.7875C8.82794 22.7875 8.90932 22.7538 8.96933 22.6938L10.4522 21.211C11.172 21.6698 11.9667 21.9992 12.8 22.1841V24.2804C12.8 24.3653 12.8338 24.4467 12.8938 24.5067C12.9538 24.5667 13.0352 24.6004 13.12 24.6004H15.68C15.7649 24.6004 15.8463 24.5667 15.9063 24.5067C15.9663 24.4467 16 24.3653 16 24.2804V22.1841C16.8333 21.9991 17.6278 21.6698 18.3476 21.211L19.8305 22.6938C19.8905 22.7538 19.9718 22.7875 20.0567 22.7875C20.1415 22.7875 20.2229 22.7538 20.2829 22.6938L22.0932 20.8836C22.1532 20.8236 22.1869 20.7422 22.1869 20.6574C22.1869 20.5725 22.1532 20.4911 22.0932 20.4311L20.6103 18.9482C21.0693 18.2284 21.3988 17.4338 21.5837 16.6004H23.6801C23.7649 16.6004 23.8463 16.5667 23.9063 16.5067C23.9663 16.4467 24.0001 16.3653 24.0001 16.2804V13.7204C24.0001 13.6355 23.9663 13.5541 23.9063 13.4941C23.8463 13.4341 23.7649 13.4004 23.6801 13.4004Z" stroke="#404247" stroke-miterlimit="10" stroke-linecap="round" stroke-linejoin="round"/>
</g>
<defs>
<clipPath id="clip0_6985_19974">
<rect width="28.8" height="28.8" fill="white" transform="translate(0 0.599609)"/>
</clipPath>
</defs>
</svg>
