<svg width="29" height="30" viewBox="0 0 29 30" fill="none" xmlns="http://www.w3.org/2000/svg">
<path d="M5.76005 23.8796L11.776 21.6716C12.6373 21.8649 13.5174 21.9615 14.4 21.9596C19.7121 21.9596 24.0001 18.5356 24.0001 14.2796C24.0001 10.0236 19.7121 6.59961 14.4 6.59961C9.08805 6.59961 4.80005 10.0236 4.80005 14.2796C4.80005 16.4236 5.92005 18.3756 7.71205 19.7836L5.76005 23.8796Z" stroke="#404247" stroke-miterlimit="10" stroke-linecap="round" stroke-linejoin="round"/>
<path d="M10.56 14.9187C10.9135 14.9187 11.2 14.6321 11.2 14.2787C11.2 13.9252 10.9135 13.6387 10.56 13.6387C10.2066 13.6387 9.92004 13.9252 9.92004 14.2787C9.92004 14.6321 10.2066 14.9187 10.56 14.9187Z" stroke="#404247" stroke-miterlimit="10" stroke-linecap="round" stroke-linejoin="round"/>
<path d="M14.4 14.9187C14.7535 14.9187 15.04 14.6321 15.04 14.2787C15.04 13.9252 14.7535 13.6387 14.4 13.6387C14.0465 13.6387 13.76 13.9252 13.76 14.2787C13.76 14.6321 14.0465 14.9187 14.4 14.9187Z" stroke="#404247" stroke-miterlimit="10" stroke-linecap="round" stroke-linejoin="round"/>
<path d="M18.2401 14.9187C18.5936 14.9187 18.8801 14.6321 18.8801 14.2787C18.8801 13.9252 18.5936 13.6387 18.2401 13.6387C17.8866 13.6387 17.6001 13.9252 17.6001 14.2787C17.6001 14.6321 17.8866 14.9187 18.2401 14.9187Z" stroke="#404247" stroke-miterlimit="10" stroke-linecap="round" stroke-linejoin="round"/>
</svg>
