<svg width="48" height="48" viewBox="0 0 48 48" fill="none" xmlns="http://www.w3.org/2000/svg">
<circle cx="24" cy="24" r="24" fill="#E7F8F4"/>
<g clip-path="url(#clip0_7171_10957)">
<path d="M26.752 29.4237C24.16 28.9117 24 28.2717 24 27.7597V27.1197C24.6356 26.5135 25.0805 25.735 25.28 24.8797C26.08 24.8797 26.56 23.9197 26.56 22.9597C26.56 22.7037 26.56 21.6797 25.92 21.6797C27.52 17.0397 22.848 15.2797 19.52 17.5197C18.112 17.5197 17.728 19.6317 18.24 21.6797C17.6 21.6797 17.6 22.7037 17.6 22.9597C17.6 23.9197 18.08 24.8797 18.88 24.8797C19.0813 25.7343 19.5259 26.5124 20.16 27.1197V27.7597C20.16 28.2717 20 28.9117 17.408 29.4237C14.816 29.9357 14.4 32.2397 14.4 32.2397H29.76C29.76 32.2397 29.76 30.0317 26.752 29.4237Z" stroke="#5ED1B6" stroke-miterlimit="10" stroke-linecap="round" stroke-linejoin="round"/>
<path d="M27.2001 15.5996H33.6001M28.4801 20.7196H33.6001H28.4801ZM28.4801 18.1596H33.6001H28.4801Z" stroke="#5ED1B6" stroke-miterlimit="10" stroke-linecap="round" stroke-linejoin="round"/>
</g>
<defs>
<clipPath id="clip0_7171_10957">
<rect width="28.8" height="28.8" fill="white" transform="translate(9.59998 9.59961)"/>
</clipPath>
</defs>
</svg>
