<svg width="123" height="123" viewBox="0 0 123 123" fill="none" xmlns="http://www.w3.org/2000/svg">
<path d="M61.5 122C94.9132 122 122 94.9132 122 61.5C122 28.0868 94.9132 1 61.5 1C28.0868 1 1 28.0868 1 61.5C1 94.9132 28.0868 122 61.5 122Z" stroke="#5DB248" stroke-width="2" stroke-linecap="round" stroke-linejoin="round"/>
<path d="M103.35 103.345C126.463 80.232 126.463 42.7584 103.35 19.6453C80.2365 -3.46771 42.7629 -3.46772 19.6498 19.6453C-3.4632 42.7584 -3.4632 80.232 19.6498 103.345C42.7629 126.458 80.2365 126.458 103.35 103.345Z" fill="white"/>
<path fill-rule="evenodd" clip-rule="evenodd" d="M31.4962 50.1055C31.4962 46.7645 32.4273 44.1629 34.2894 42.3007C36.1516 40.4386 38.7461 39.5125 42.0731 39.5225C45.4844 39.5225 48.1111 40.4366 49.9532 42.2646C51.7953 44.0927 52.7173 46.6551 52.7193 49.952C52.7275 51.9755 52.3176 53.9788 51.5153 55.8365L42.323 77.4479L32.9048 56.0773C32.1614 54.3917 31.4932 52.4984 31.4932 50.1055H31.4962ZM37.8171 49.2958C37.8171 51.0697 38.2013 52.3439 38.9699 53.1185C39.7384 53.893 40.7879 54.2773 42.1183 54.2713C43.4758 54.2713 44.5262 53.892 45.2787 53.1335C46.0312 52.375 46.3984 51.0266 46.3984 49.043C46.3984 47.3895 46.0091 46.1856 45.2306 45.4311C44.448 44.6635 43.3945 44.2843 42.0611 44.2843C41.4954 44.2591 40.9306 44.3492 40.4008 44.5489C39.8709 44.7486 39.3872 45.0538 38.9789 45.4461C38.2043 46.2227 37.8171 47.5059 37.8171 49.2958Z" fill="#5DB248"/>
<path d="M55.9059 43.0691H66.4216C68.7119 43.0691 70.4249 43.6137 71.5607 44.703C72.7059 45.7923 73.2785 47.3424 73.2785 49.3534C73.2785 51.4202 72.6547 53.0355 71.4071 54.1993C70.1689 55.363 68.2743 55.9449 65.7233 55.9449H62.26V63.5419H55.9059V43.0691ZM62.26 51.7973H63.8101C65.0297 51.7973 65.8863 51.5878 66.3797 51.1689C66.8731 50.7406 67.1198 50.196 67.1198 49.5349C67.1198 48.8925 66.9057 48.3479 66.4774 47.901C66.0492 47.4541 65.2439 47.2307 64.0615 47.2307H62.26V51.7973Z" fill="#2B2D33"/>
<path d="M75.0443 43.1624H94.2743V48.2178H87.8224V63.6353H81.4962V48.2178H75.0443V43.1624Z" fill="#2B2D33"/>
<path d="M29.7348 73.7715H35.6142V88.1133H44.7903V92.7987H29.7348V73.7715Z" fill="#2B2D33"/>
<path d="M59.171 89.6577H52.4739L51.5524 92.7987H45.5431L52.6945 73.7715H59.1061L66.2575 92.7987H60.1055L59.171 89.6577ZM57.938 85.5434L55.8354 78.7035L53.7458 85.5434H57.938Z" fill="#2B2D33"/>
<path d="M64.7909 73.7715H70.9429L75.2259 87.4643L79.4441 73.7715H85.4144L78.3539 92.7987H71.9812L64.7909 73.7715Z" fill="#2B2D33"/>
<path d="M19.8848 66.7281H21.4862C21.8798 66.7281 22.1718 66.7615 22.3621 66.8284C22.5551 66.8927 22.7197 67.0123 22.856 67.1873C22.995 67.3622 23.0644 67.5719 23.0644 67.8162C23.0644 68.0117 23.0232 68.1828 22.9409 68.3295C22.8612 68.4735 22.7403 68.5944 22.5782 68.6922C22.7711 68.7565 22.9306 68.8774 23.0567 69.0549C23.1853 69.2298 23.2496 69.4382 23.2496 69.68C23.2239 70.0684 23.085 70.3566 22.8329 70.5443C22.5808 70.7321 22.2142 70.826 21.7332 70.826H19.8848V66.7281ZM20.5794 68.4529H21.3203C21.6161 68.4529 21.8193 68.4375 21.93 68.4066C22.0406 68.3758 22.1396 68.314 22.2271 68.2214C22.3145 68.1262 22.3583 68.013 22.3583 67.8818C22.3583 67.6658 22.2811 67.5153 22.1267 67.4304C21.975 67.3455 21.7139 67.303 21.3434 67.303H20.5794V68.4529ZM20.5794 70.2549H21.4939C21.8875 70.2549 22.1576 70.2099 22.3042 70.1199C22.4509 70.0273 22.528 69.8691 22.5358 69.6453C22.5358 69.5141 22.4933 69.3932 22.4084 69.2825C22.3235 69.1694 22.2129 69.0986 22.0766 69.0703C21.9402 69.0395 21.7216 69.024 21.4206 69.024H20.5794V70.2549Z" fill="#5DB248"/>
<path d="M26.7919 69.5064L27.5096 69.5951C27.3964 70.0144 27.1868 70.3398 26.8807 70.5714C26.5745 70.8029 26.1835 70.9186 25.7076 70.9186C25.1082 70.9186 24.6323 70.7347 24.2799 70.3668C23.93 69.9964 23.7551 69.4781 23.7551 68.8118C23.7551 68.1224 23.9326 67.5873 24.2876 67.2066C24.6426 66.8258 25.1031 66.6355 25.669 66.6355C26.217 66.6355 26.6646 66.822 27.0119 67.195C27.3591 67.568 27.5328 68.0928 27.5328 68.7693C27.5328 68.8105 27.5315 68.8722 27.5289 68.9546H24.4728C24.4986 69.4047 24.6259 69.7495 24.8548 69.9887C25.0838 70.2279 25.3693 70.3475 25.7115 70.3475C25.9661 70.3475 26.1835 70.2807 26.3636 70.1469C26.5437 70.0131 26.6864 69.7996 26.7919 69.5064ZM24.5114 68.3835H26.7996C26.7688 68.0388 26.6813 67.7802 26.5372 67.6079C26.316 67.3403 26.0292 67.2066 25.6767 67.2066C25.3578 67.2066 25.0889 67.3133 24.8703 67.5268C24.6542 67.7404 24.5346 68.0259 24.5114 68.3835Z" fill="#5DB248"/>
<path d="M31.0596 69.325L31.7426 69.4137C31.668 69.8845 31.4764 70.2537 31.1677 70.5212C30.8615 70.7861 30.4847 70.9186 30.0371 70.9186C29.4763 70.9186 29.0248 70.736 28.6827 70.3707C28.3431 70.0028 28.1733 69.4768 28.1733 68.7925C28.1733 68.35 28.2466 67.9629 28.3933 67.631C28.5399 67.2992 28.7624 67.0509 29.0608 66.8863C29.3618 66.7191 29.6885 66.6355 30.0409 66.6355C30.486 66.6355 30.85 66.7487 31.1329 66.9751C31.4159 67.1989 31.5973 67.5178 31.677 67.932L31.0017 68.0362C30.9374 67.7609 30.823 67.5539 30.6583 67.4149C30.4962 67.276 30.2995 67.2066 30.0679 67.2066C29.7181 67.2066 29.4338 67.3326 29.2152 67.5847C28.9965 67.8343 28.8872 68.2304 28.8872 68.7732C28.8872 69.3237 28.9926 69.7237 29.2036 69.9733C29.4145 70.2228 29.6898 70.3475 30.0293 70.3475C30.302 70.3475 30.5297 70.2639 30.7123 70.0967C30.895 69.9295 31.0107 69.6723 31.0596 69.325Z" fill="#5DB248"/>
<path d="M32.3253 66.7281H33.0198V68.3295H33.8996C34.4733 68.3295 34.9145 68.4414 35.2231 68.6652C35.5344 68.8864 35.69 69.1925 35.69 69.5835C35.69 69.9257 35.5601 70.2189 35.3003 70.4633C35.0431 70.7051 34.6302 70.826 34.0617 70.826H32.3253V66.7281ZM33.0198 70.2549H33.7491C34.189 70.2549 34.5029 70.2009 34.6906 70.0929C34.8784 69.9848 34.9723 69.8163 34.9723 69.5874C34.9723 69.4099 34.9029 69.2517 34.764 69.1128C34.625 68.9739 34.3176 68.9044 33.8417 68.9044H33.0198V70.2549Z" fill="#5DB248"/>
<path d="M51.5956 68.7771C51.5956 68.0182 51.8065 67.4561 52.2284 67.0908C52.5808 66.7873 53.0104 66.6355 53.5172 66.6355C54.0806 66.6355 54.541 66.8207 54.8986 67.1911C55.2562 67.559 55.435 68.0684 55.435 68.7192C55.435 69.2465 55.3552 69.662 55.1957 69.9655C55.0388 70.2665 54.8086 70.5006 54.505 70.6678C54.2041 70.835 53.8748 70.9186 53.5172 70.9186C52.9436 70.9186 52.4792 70.7347 52.1242 70.3668C51.7718 69.999 51.5956 69.4691 51.5956 68.7771ZM52.3094 68.7771C52.3094 69.3018 52.4239 69.6954 52.6529 69.9578C52.8818 70.2176 53.1699 70.3475 53.5172 70.3475C53.8619 70.3475 54.1487 70.2164 54.3777 69.954C54.6066 69.6916 54.7211 69.2916 54.7211 68.7539C54.7211 68.2471 54.6054 67.8638 54.3738 67.604C54.1449 67.3416 53.8593 67.2104 53.5172 67.2104C53.1699 67.2104 52.8818 67.3403 52.6529 67.6002C52.4239 67.86 52.3094 68.2523 52.3094 68.7771Z" fill="#5DB248"/>
<path d="M56.2569 66.7281H59.4905V70.826H58.7959V67.303H56.9514V70.826H56.2569V66.7281Z" fill="#5DB248"/>
<path d="M60.1619 66.7281H63.4919V67.303H62.1723V70.826H61.4816V67.303H60.1619V66.7281Z" fill="#5DB248"/>
<path d="M66.3589 66.7281H67.9603C68.3539 66.7281 68.6459 66.7615 68.8362 66.8284C69.0291 66.8927 69.1938 67.0123 69.3301 67.1873C69.469 67.3622 69.5385 67.5719 69.5385 67.8162C69.5385 68.0117 69.4973 68.1828 69.415 68.3295C69.3353 68.4735 69.2144 68.5944 69.0523 68.6922C69.2452 68.7565 69.4047 68.8774 69.5308 69.0549C69.6594 69.2298 69.7237 69.4382 69.7237 69.68C69.698 70.0684 69.5591 70.3566 69.307 70.5443C69.0549 70.7321 68.6883 70.826 68.2073 70.826H66.3589V66.7281ZM67.0535 68.4529H67.7944C68.0902 68.4529 68.2934 68.4375 68.404 68.4066C68.5147 68.3758 68.6137 68.314 68.7012 68.2214C68.7886 68.1262 68.8324 68.013 68.8324 67.8818C68.8324 67.6658 68.7552 67.5153 68.6008 67.4304C68.4491 67.3455 68.188 67.303 67.8175 67.303H67.0535V68.4529ZM67.0535 70.2549H67.968C68.3616 70.2549 68.6317 70.2099 68.7783 70.1199C68.925 70.0273 69.0021 69.8691 69.0099 69.6453C69.0099 69.5141 68.9674 69.3932 68.8825 69.2825C68.7976 69.1694 68.687 69.0986 68.5507 69.0703C68.4143 69.0395 68.1957 69.024 67.8947 69.024H67.0535V70.2549Z" fill="#5DB248"/>
<path d="M72.7489 66.7281H73.4435V68.4992C73.6647 68.4992 73.8191 68.4568 73.9065 68.3719C73.9966 68.287 74.1278 68.0401 74.3001 67.631C74.4365 67.3069 74.5471 67.0934 74.632 66.9905C74.7169 66.8876 74.8146 66.8181 74.9252 66.7821C75.0359 66.7461 75.2133 66.7281 75.4577 66.7281H75.5966V67.303L75.4037 67.2992C75.2211 67.2992 75.104 67.3262 75.0526 67.3802C74.9986 67.4368 74.9162 67.6053 74.8056 67.8857C74.7001 68.1532 74.6037 68.3385 74.5162 68.4414C74.4287 68.5443 74.2937 68.6381 74.111 68.723C74.4095 68.8028 74.7027 69.0806 74.9908 69.5565L75.751 70.826H74.987L74.2461 69.5565C74.0943 69.3018 73.9619 69.1346 73.8487 69.0549C73.7355 68.9726 73.6004 68.9314 73.4435 68.9314V70.826H72.7489V66.7281Z" fill="#5DB248"/>
<path d="M79.0617 70.3205C78.8045 70.5392 78.5563 70.6935 78.317 70.7836C78.0804 70.8736 77.8257 70.9186 77.553 70.9186C77.1028 70.9186 76.7568 70.8093 76.515 70.5906C76.2732 70.3694 76.1523 70.0877 76.1523 69.7456C76.1523 69.5449 76.1973 69.3623 76.2874 69.1977C76.38 69.0304 76.4996 68.8967 76.6462 68.7963C76.7954 68.696 76.9626 68.6201 77.1478 68.5687C77.2842 68.5327 77.49 68.498 77.7652 68.4645C78.326 68.3976 78.7389 68.3179 79.0039 68.2253C79.0064 68.1301 79.0077 68.0696 79.0077 68.0439C79.0077 67.7609 78.9421 67.5616 78.8109 67.4458C78.6334 67.2889 78.3698 67.2104 78.0199 67.2104C77.6932 67.2104 77.4514 67.2683 77.2945 67.3841C77.1401 67.4973 77.0256 67.6992 76.951 67.9899L76.2719 67.8973C76.3336 67.6066 76.4353 67.3725 76.5768 67.195C76.7182 67.0149 76.9228 66.8773 77.1903 66.7821C77.4578 66.6844 77.7678 66.6355 78.1202 66.6355C78.4701 66.6355 78.7543 66.6767 78.973 66.759C79.1917 66.8413 79.3524 66.9455 79.4553 67.0715C79.5582 67.195 79.6303 67.3519 79.6714 67.5423C79.6946 67.6606 79.7061 67.8741 79.7061 68.1828V69.1089C79.7061 69.7546 79.7203 70.1636 79.7486 70.336C79.7795 70.5058 79.8386 70.6691 79.9261 70.826H79.2007C79.1286 70.682 79.0823 70.5135 79.0617 70.3205ZM79.0039 68.7693C78.7518 68.8722 78.3736 68.9597 77.8694 69.0317C77.5839 69.0729 77.3819 69.1192 77.2636 69.1707C77.1453 69.2221 77.0539 69.298 76.9896 69.3983C76.9253 69.4961 76.8932 69.6054 76.8932 69.7263C76.8932 69.9115 76.9626 70.0659 77.1015 70.1893C77.243 70.3128 77.4488 70.3746 77.7189 70.3746C77.9865 70.3746 78.2244 70.3167 78.4328 70.2009C78.6412 70.0826 78.7942 69.9218 78.892 69.7186C78.9666 69.5617 79.0039 69.3301 79.0039 69.024V68.7693Z" fill="#5DB248"/>
<path d="M80.7866 72.3965V66.7281H81.4194V67.2606C81.5686 67.0522 81.7371 66.8966 81.9249 66.7937C82.1127 66.6882 82.3403 66.6355 82.6079 66.6355C82.9577 66.6355 83.2664 66.7255 83.534 66.9056C83.8015 67.0857 84.0034 67.3403 84.1398 67.6696C84.2761 67.9963 84.3443 68.3552 84.3443 68.7462C84.3443 69.1655 84.2684 69.5437 84.1166 69.8806C83.9674 70.2151 83.7488 70.4723 83.4607 70.6524C83.1751 70.8299 82.8741 70.9186 82.5577 70.9186C82.3262 70.9186 82.1178 70.8698 81.9326 70.772C81.75 70.6742 81.5995 70.5508 81.4811 70.4016V72.3965H80.7866ZM81.4156 68.8002C81.4156 69.3276 81.5223 69.7173 81.7358 69.9694C81.9493 70.2215 82.2079 70.3475 82.5114 70.3475C82.8201 70.3475 83.0838 70.2176 83.3025 69.9578C83.5237 69.6954 83.6343 69.2903 83.6343 68.7423C83.6343 68.2201 83.5263 67.8291 83.3102 67.5693C83.0966 67.3095 82.8407 67.1796 82.5423 67.1796C82.2465 67.1796 81.9841 67.3185 81.7551 67.5963C81.5287 67.8716 81.4156 68.2729 81.4156 68.8002Z" fill="#5DB248"/>
<path d="M85.2048 66.7281H86.2852L87.3618 70.008L88.558 66.7281H89.5574V70.826H88.8628V67.5268L87.6512 70.826H87.0299L85.8839 67.3686V70.826H85.2048V66.7281Z" fill="#5DB248"/>
<path d="M93.2926 70.3205C93.0354 70.5392 92.7871 70.6935 92.5479 70.7836C92.3112 70.8736 92.0565 70.9186 91.7839 70.9186C91.3337 70.9186 90.9877 70.8093 90.7459 70.5906C90.5041 70.3694 90.3832 70.0877 90.3832 69.7456C90.3832 69.5449 90.4282 69.3623 90.5182 69.1977C90.6108 69.0304 90.7304 68.8967 90.8771 68.7963C91.0263 68.696 91.1935 68.6201 91.3787 68.5687C91.515 68.5327 91.7208 68.498 91.9961 68.4645C92.5569 68.3976 92.9698 68.3179 93.2347 68.2253C93.2373 68.1301 93.2386 68.0696 93.2386 68.0439C93.2386 67.7609 93.173 67.5616 93.0418 67.4458C92.8643 67.2889 92.6006 67.2104 92.2508 67.2104C91.9241 67.2104 91.6822 67.2683 91.5253 67.3841C91.371 67.4973 91.2565 67.6992 91.1819 67.9899L90.5028 67.8973C90.5645 67.6066 90.6661 67.3725 90.8076 67.195C90.9491 67.0149 91.1536 66.8773 91.4211 66.7821C91.6887 66.6844 91.9986 66.6355 92.3511 66.6355C92.7009 66.6355 92.9852 66.6767 93.2039 66.759C93.4225 66.8413 93.5833 66.9455 93.6862 67.0715C93.7891 67.195 93.8611 67.3519 93.9023 67.5423C93.9254 67.6606 93.937 67.8741 93.937 68.1828V69.1089C93.937 69.7546 93.9511 70.1636 93.9794 70.336C94.0103 70.5058 94.0695 70.6691 94.1569 70.826H93.4315C93.3595 70.682 93.3132 70.5135 93.2926 70.3205ZM93.2347 68.7693C92.9826 68.8722 92.6045 68.9597 92.1003 69.0317C91.8147 69.0729 91.6128 69.1192 91.4945 69.1707C91.3761 69.2221 91.2848 69.298 91.2205 69.3983C91.1562 69.4961 91.124 69.6054 91.124 69.7263C91.124 69.9115 91.1935 70.0659 91.3324 70.1893C91.4739 70.3128 91.6797 70.3746 91.9498 70.3746C92.2173 70.3746 92.4553 70.3167 92.6636 70.2009C92.872 70.0826 93.0251 69.9218 93.1228 69.7186C93.1974 69.5617 93.2347 69.3301 93.2347 69.024V68.7693Z" fill="#5DB248"/>
<path d="M95.0213 66.7281H95.7159V68.4336H97.6413V66.7281H98.3359V70.826H97.6413V69.0086H95.7159V70.826H95.0213V66.7281Z" fill="#5DB248"/>
<path d="M102.191 69.5064L102.908 69.5951C102.795 70.0144 102.586 70.3398 102.28 70.5714C101.973 70.8029 101.582 70.9186 101.106 70.9186C100.507 70.9186 100.031 70.7347 99.6787 70.3668C99.3289 69.9964 99.154 69.4781 99.154 68.8118C99.154 68.1224 99.3315 67.5873 99.6865 67.2066C100.041 66.8258 100.502 66.6355 101.068 66.6355C101.616 66.6355 102.063 66.822 102.411 67.195C102.758 67.568 102.932 68.0928 102.932 68.7693C102.932 68.8105 102.93 68.8722 102.928 68.9546H99.8717C99.8974 69.4047 100.025 69.7495 100.254 69.9887C100.483 70.2279 100.768 70.3475 101.11 70.3475C101.365 70.3475 101.582 70.2807 101.762 70.1469C101.943 70.0131 102.085 69.7996 102.191 69.5064ZM99.9103 68.3835H102.198C102.168 68.0388 102.08 67.7802 101.936 67.6079C101.715 67.3403 101.428 67.2066 101.076 67.2066C100.757 67.2066 100.488 67.3133 100.269 67.5268C100.053 67.7404 99.9334 68.0259 99.9103 68.3835Z" fill="#5DB248"/>
</svg>
